<svg width="269" height="269" viewBox="0 0 269 269" fill="none" xmlns="http://www.w3.org/2000/svg">
<path d="M242.524 43.6778V225.322C242.524 230.175 239.347 234.335 235.64 234.335H33.3607C29.654 234.335 26.4768 230.175 26.4768 225.322V43.6778C26.4768 38.8247 29.654 34.6649 33.3607 34.6649H235.64C239.347 35.3582 242.524 38.8247 242.524 43.6778ZM187.453 128.26C187.453 125.487 186.394 123.407 184.806 122.021L110.672 73.4897C109.083 72.7964 106.965 72.7964 105.376 73.4897C103.788 74.8763 102.729 76.9562 102.729 79.7294V176.791C102.729 178.871 103.788 181.644 105.376 183.031C106.435 183.724 106.965 183.724 108.024 183.724C108.554 183.724 109.613 183.724 110.142 183.031L184.276 134.5C186.394 133.807 187.453 131.033 187.453 128.26Z" fill="#55CBCD"/>
<path d="M167.002 135.8L119.345 168.991L119.146 121.414C119.146 114.481 124.971 109.628 129.737 112.401L167.002 135.8Z" fill="white"/>
<path d="M106.602 77.4022V169.104L122.962 158.863V116.96C122.962 115.865 123.474 115.631 123.53 115.631C123.53 115.631 123.587 115.631 123.587 115.709L123.701 115.787L155.001 136.973L174.03 123.839L106.602 77.4022Z" fill="#D9CDC1" fill-opacity="0.9"/>
<path d="M169.981 128.26L112.792 90.8223V165.699L118.617 161.539L162.038 133.113L169.981 128.26ZM184.278 134.5L110.144 183.031C109.615 183.724 108.556 183.724 108.026 183.724C106.967 183.724 105.908 183.724 105.379 183.031C103.79 181.644 102.731 179.565 102.731 176.791V79.7295C102.731 76.9563 103.79 74.8764 105.379 73.4898C106.967 72.1032 109.085 72.1032 110.674 73.4898L184.808 122.021C186.396 123.407 187.455 125.487 187.455 128.26C187.455 131.034 186.396 133.807 184.278 134.5Z" fill="#42210B"/>
<path d="M235.638 9.53296H33.3585C18.7303 9.53296 7.2793 24.5256 7.2793 43.6779V225.322C7.2793 244.475 18.7303 259.467 33.3585 259.467H235.638C250.266 259.467 261.717 244.475 261.717 225.322V43.6779C261.717 24.5256 250.266 9.53296 235.638 9.53296ZM239.212 225.322C239.212 227.749 237.491 230.002 235.638 230.002H33.3585C31.5052 230.002 29.7842 227.749 29.7842 225.322V43.6779C29.7842 41.2514 31.5052 38.9982 33.3585 38.9982H235.638C237.491 38.9982 239.212 41.2514 239.212 43.6779V225.322Z" fill="#1D9AAE"/>
<path d="M33.3602 14.5593C20.6516 14.5593 10.5906 27.732 10.5906 44.3711V226.015C10.5906 242.655 20.6516 255.827 33.3602 255.827H235.64C248.348 255.827 258.409 242.655 258.409 226.015V43.6778C258.409 27.0387 248.348 13.866 235.64 13.866H33.3602V14.5593ZM0.529528 43.6778C0.529528 19.4124 15.3563 0 33.8898 0H235.64C254.173 0 269 19.4124 269 43.6778V225.322C269 249.588 254.173 269 235.64 269H33.3602C15.3563 269 0 249.588 0 225.322V43.6778H0.529528Z" fill="#42210B"/>
</svg>
