<svg width="270" height="269" viewBox="0 0 270 269" fill="none" xmlns="http://www.w3.org/2000/svg">
<path d="M223.814 13.1275H46.846C27.9945 13.1275 12.6211 28.5009 12.6211 47.3525V224.321C12.6211 243.172 27.9945 258.546 46.846 258.546H223.814C242.666 258.546 258.039 243.172 258.039 224.321V47.3525C258.039 28.5009 242.666 13.1275 223.814 13.1275ZM208.858 54.1001C206.98 46.2395 211.641 38.2397 219.293 36.292C220.545 36.0137 221.797 35.8746 222.979 35.8746C229.727 35.8746 235.501 40.3266 237.101 46.796C238.979 54.1697 234.179 62.1694 226.457 64.5345C225.136 64.8128 224.092 64.8128 222.701 64.8128C216.301 64.8824 210.319 60.2216 208.858 54.1001ZM135.33 60.4303C175.955 60.4303 209.067 93.5423 209.067 134.167C209.067 174.792 175.955 207.904 135.33 207.904C94.7053 207.904 61.5934 174.792 61.5934 134.167C61.5934 93.5423 94.7053 60.4303 135.33 60.4303Z" fill="#55CBCD"/>
<path d="M135.331 83.1431C164.269 82.8649 187.642 111.386 187.642 140.324C187.642 169.262 164.269 192.635 135.331 192.635C106.392 192.635 78.2194 169.262 78.1498 140.324C78.0802 106.377 104.027 83.4214 135.331 83.1431Z" fill="#D9CDC1"/>
<path d="M146.461 91.8928C117.523 91.8928 94.1499 115.266 94.1499 144.204C94.1499 155.891 98.0454 166.464 104.167 174.812C113.071 180.933 123.645 184.829 134.775 184.829C163.713 184.829 187.086 161.456 187.086 132.518C187.086 120.831 183.19 110.257 177.069 101.91C168.721 95.7883 158.148 91.8928 146.461 91.8928Z" fill="#FFF8EF"/>
<path d="M135.335 70.0135C172.273 70.0135 202.115 99.856 202.115 136.794C202.115 173.732 172.273 203.574 135.335 203.574C98.3969 203.574 68.5544 173.732 68.5544 136.794C68.5544 99.856 98.3969 70.0135 135.335 70.0135ZM187.09 136.237C187.09 107.299 163.717 83.9261 134.778 83.9261C105.84 83.9261 82.467 107.299 82.467 136.237C82.467 165.176 105.84 188.549 134.778 188.549C163.717 188.549 187.09 165.176 187.09 136.237Z" fill="#42210B"/>
<path d="M198.216 135.201C198.216 100.141 169.834 71.7593 134.775 71.7593C99.715 71.7593 71.3333 100.141 71.3333 135.201C71.3333 170.26 99.715 198.642 134.775 198.642C170.391 198.642 198.216 170.26 198.216 135.201ZM204.894 135.201C204.894 173.599 173.73 204.764 135.331 204.764C96.9325 204.764 65.7683 173.599 65.7683 135.201C65.7683 96.8019 96.9325 65.6377 135.331 65.6377C173.73 65.6377 204.894 96.8019 204.894 135.201Z" fill="#1D9AAE"/>
<path d="M135.331 207.142C173.73 207.142 204.894 175.978 204.894 137.579C204.894 99.1803 173.73 68.0161 135.331 68.0161C96.9327 68.0161 65.7685 99.1803 65.7685 137.579C65.7685 175.978 96.9327 207.142 135.331 207.142ZM216.024 137.579C216.024 182.099 179.852 218.272 135.331 218.272C90.8111 218.272 54.6384 182.099 54.6384 137.579C54.6384 93.0587 90.8111 56.886 135.331 56.886C179.852 56.886 216.024 93.0587 216.024 137.579Z" fill="#42210B"/>
<path d="M226.667 0H43.995C20.1349 0 0.796387 19.4081 0.796387 43.1986V225.801C0.796387 249.661 20.2044 269 43.995 269H226.598C250.458 269 269.796 249.592 269.796 225.801V43.1986C269.866 19.4081 250.458 0 226.667 0ZM251.223 225.245C251.223 238.81 240.232 249.801 226.667 249.801H223.05V250.357H43.995C30.4302 250.357 19.4392 239.366 19.4392 225.801V43.1986C19.4392 29.6338 30.4302 18.6429 43.995 18.6429H226.598C240.162 18.6429 251.153 29.6338 251.153 43.1986V225.245H251.223Z" fill="#1D9AAE"/>
<path d="M220.722 0C247.092 0 268.618 21.5263 268.618 47.8961V219.031C268.618 245.4 247.092 266.927 220.722 266.927H49.5875C23.2177 266.927 1.69141 245.4 1.69141 219.031V47.8961C1.69141 21.5263 23.2177 0 49.5875 0H220.722ZM257.855 47.8961C257.855 27.4461 241.172 10.7632 220.722 10.7632H49.5875C29.1375 10.7632 12.4546 27.4461 12.4546 47.8961V219.031C12.4546 239.481 29.1375 256.163 49.5875 256.163H220.722C241.172 256.163 257.855 239.481 257.855 219.031V47.8961Z" fill="#42210B"/>
<path d="M233.223 49.7475C231.693 43.8346 225.989 39.3826 219.867 39.3826C219.102 39.3826 217.572 39.3826 216.181 40.2174C212.911 41.0521 210.059 43.2086 208.32 46.0607C206.442 49.191 205.955 52.9474 206.998 56.4951C208.32 62.5471 213.468 66.7904 219.728 66.7904C220.98 66.7904 222.232 66.5817 223.485 66.2339C227.032 65.4687 230.093 63.3123 231.902 60.2515C233.849 57.1212 234.267 53.2952 233.223 49.7475Z" fill="#1D9AAE"/>
<path d="M213.845 54.6328C215.515 60.1978 221.08 63.5368 226.088 61.8673C231.653 60.1978 234.992 54.6328 233.323 49.6242C232.21 45.1722 227.758 41.8332 223.306 41.8332C222.749 41.8332 221.636 41.8332 220.523 42.3897C215.515 43.5027 212.176 49.0677 213.845 54.6328ZM244.453 46.8417C247.235 58.5283 240.557 69.6584 228.871 72.9974C227.201 73.5539 225.532 73.5539 223.306 73.5539C213.845 73.5539 204.941 66.8759 202.715 57.4153C199.933 46.2852 206.611 34.5986 218.297 31.2596C229.427 28.4771 241.114 35.1551 244.453 46.8417Z" fill="#42210B"/>
</svg>
