<svg width="880" height="286" viewBox="0 0 880 286" fill="none" xmlns="http://www.w3.org/2000/svg">
<g filter="url(#filter0_d_434_293)">
<path d="M10 112.861L14.1914 98.3938C14.6885 98.5162 15.3234 98.5774 16.0959 98.5774C16.8684 98.5774 17.7556 98.7075 18.7499 98.9523C19.6448 95.5402 20.9145 90.751 22.5589 84.5771C24.2339 78.4031 26.146 71.6784 28.28 64.3875C30.4522 57.066 32.8079 49.4997 35.3549 41.6809C37.8942 33.8698 40.4412 26.6554 42.9805 20.0531L37.4429 19.8618C37.573 17.5973 37.7565 15.5087 38.0013 13.5808C38.1237 11.9359 38.2537 10.3599 38.3761 8.83748C38.4984 7.31504 38.6973 6.22867 38.9803 5.57838C41.489 5.33357 45.168 5.18056 50.0018 5.11936C54.8434 5.0505 59.6007 5.0199 64.2816 5.0199C69.8957 5.0199 75.8003 5.0811 82.0033 5.21116L85.6287 21.5831L78.0031 21.2159L88.7034 102.579C90.4702 102.456 92.0535 102.395 93.4455 102.395H96.7038L99.5414 116.678L67.3487 121.054C66.5762 118.507 65.9414 116.166 65.4442 114.024C65.1994 113.129 64.9318 112.272 64.6564 111.468C64.404 110.635 64.1593 109.885 63.9068 109.234C63.6621 108.492 63.4785 107.727 63.3485 106.955C64.3734 106.457 65.5054 106.021 66.7445 105.654C68.0218 105.249 69.4291 104.858 70.9817 104.491L68.2818 86.9487C66.3926 87.0711 64.2357 87.2012 61.8188 87.3236C59.4019 87.446 56.9161 87.5837 54.3768 87.7443C51.8298 87.8667 49.3517 87.9892 46.9348 88.1116C44.5484 88.234 42.3303 88.4252 40.2805 88.67L35.722 102.211C38.269 102.953 40.0511 103.841 41.076 104.858L37.2594 117.841L10 112.861ZM55.3558 72.2981C59.1648 71.6478 62.7137 71.1352 66.0026 70.7603L60.2815 31.3069L45.4433 74.0194C48.235 73.4915 51.5392 72.9177 55.3558 72.2981ZM133.44 9.95444C136.231 8.95988 139.872 8.18719 144.369 7.62871C148.897 7.03962 153.854 6.55764 159.253 6.18277C164.646 5.78495 170.229 5.51718 175.996 5.39477C181.794 5.27236 187.362 5.21116 192.693 5.21116C199.668 5.21116 205.703 5.27236 210.789 5.39477C215.876 5.51718 218.927 5.63959 219.952 5.76964L218.04 35.6829L201.435 39.6841L199.347 24.0542L183.155 24.8422L178.604 102.02L185.251 101.232L186.972 117.237L152.882 121.054L153.999 104.491L162.604 103.933L164.692 26.7472L152.087 27.8642L151.528 43.4941L137.249 45.4067C136.599 40.0667 135.964 35.1245 135.344 30.5648C134.969 26.5024 134.587 22.5012 134.182 18.5612C133.807 14.6212 133.562 11.7523 133.44 9.95444ZM195.156 61.4114C195.408 60.0114 195.905 58.466 196.647 56.76C197.42 55.0539 198.261 53.4244 199.156 51.8713C200.058 49.9817 201.144 48.0843 202.414 46.1947C205.581 48.0843 208.365 49.7292 210.789 51.1292C212.923 52.3992 214.82 53.5162 216.457 54.4801C218.132 55.4058 218.973 55.949 218.973 56.102C217.451 58.619 216.273 62.1994 215.44 66.8509C214.629 71.4718 214.231 76.0774 214.231 80.6677C214.231 81.0425 214.262 82.5344 214.323 85.1355C214.384 87.7443 214.912 90.8581 215.906 94.4844C216.923 98.1184 218.461 99.9927 220.511 100.115C221.903 100.115 223.203 99.3883 224.411 97.9271C225.62 96.4429 226.721 94.4691 227.715 92.0209C228.74 89.5422 229.735 86.7498 230.691 83.6437C231.654 80.5147 232.503 77.3015 233.253 74.0194C235.173 66.3843 236.833 57.6092 238.225 47.6865C240.366 48.0843 242.339 48.5357 244.137 49.033C245.781 49.4079 247.426 49.8899 249.063 50.4789C250.707 51.0374 251.977 51.703 252.879 52.4757C252.26 54.7402 251.747 58.4507 251.342 63.5918C250.975 68.7406 250.753 73.0095 250.692 76.391C250.63 79.742 250.6 81.8611 250.6 82.7639C250.6 87.729 250.783 92.9084 251.158 98.302C251.533 103.696 252.168 108.102 253.063 111.514C251.671 112.539 250.271 113.312 248.879 113.84C247.487 114.337 246.148 114.712 244.879 114.957C243.487 115.202 242.087 115.332 240.695 115.332L237.812 103.512C236.412 105.929 234.354 108.416 231.624 110.956C228.893 113.503 225.497 114.896 221.436 115.141C220.816 115.141 220.182 115.141 219.532 115.141C215.47 115.141 211.982 114.322 209.068 112.677C206.154 111.032 203.821 108.722 202.085 105.746C200.38 102.739 199.232 99.4648 198.643 95.9303C198.085 92.3652 197.81 88.999 197.81 85.8317C197.81 85.1814 197.84 83.7278 197.901 81.4633C197.963 79.1682 198.307 76.238 198.926 72.6653C199.577 69.1002 200.227 66.1088 200.877 63.6913C198.835 62.6967 196.922 61.9393 195.156 61.4114ZM265.614 45.7739C267.014 44.787 268.559 43.7771 270.264 42.752C272.008 41.7268 273.691 40.9694 275.335 40.4721C277.385 42.3618 278.869 44.3968 279.802 46.5696C280.766 48.7117 281.508 51.1751 282.035 53.9675C283.925 52.0702 286.326 50.4636 289.248 49.1248C292.193 47.7936 295.244 46.7532 298.411 46.0111C301.57 45.2307 304.423 44.7564 306.962 44.5651C309.509 44.3815 311.536 44.2897 313.058 44.2897C313.96 44.2897 314.718 44.2897 315.337 44.2897C316.24 47.0821 316.714 49.4385 316.783 51.3587C316.844 53.2484 316.874 54.6331 316.874 55.4976C316.874 57.3032 316.813 58.9557 316.683 60.4781C316.438 63.1481 316.064 65.7493 315.567 68.2969L303.574 70.7603L302.411 62.0158C301.264 62.6355 299.864 63.3011 298.22 64.0126C296.575 64.6935 294.824 65.5197 292.965 66.4837C291.137 67.4094 289.355 68.6182 287.619 70.11C285.913 71.5636 284.483 73.3691 283.336 75.5036C283.091 77.7987 282.731 80.8589 282.265 84.6689C281.836 88.4864 281.462 92.3958 281.148 96.397C280.842 100.398 280.659 103.826 280.59 106.679C280.529 109.533 280.498 111.713 280.498 113.236C280.498 114.758 280.498 116.089 280.498 117.237C277.056 117.359 274.731 117.451 273.523 117.52C272.314 117.612 271.587 117.658 271.335 117.658C269.446 117.658 267.74 117.39 266.218 116.862C266.593 114.2 266.876 110.581 267.06 106.021C267.243 101.431 267.365 96.6418 267.434 91.6461C267.495 86.6274 267.557 81.6316 267.618 76.6665C267.679 71.709 267.71 67.44 267.71 63.8749L262.776 64.6629L260.688 49.5915C262.333 48.1991 263.97 46.9215 265.614 45.7739ZM323.162 59.6901C323.406 58.0452 323.858 56.4004 324.508 54.7556C325.127 52.8353 325.946 50.8003 326.971 48.6581C328.615 48.5357 330.198 48.4745 331.713 48.4745C332.493 48.4745 333.265 48.4745 334.045 48.4745C335.812 48.727 337.61 49.1095 339.438 49.6374C341.296 50.1347 342.596 51.0833 343.346 52.4757C341.449 57.4103 339.996 63.018 338.971 69.3144C337.946 75.6107 337.342 80.9966 337.158 85.4645C336.975 89.8941 336.875 93.3827 336.875 95.9303C336.875 98.6003 336.975 101.653 337.158 105.096C337.342 108.508 337.763 111.032 338.413 112.677L326.603 116.12C325.701 114.728 324.898 111.996 324.179 107.934C323.498 103.872 323.123 100.283 323.062 97.185C323.001 94.056 322.97 91.975 322.97 90.9499C322.97 86.6427 323.192 82.083 323.62 77.2709C324.087 72.4358 325.081 68.1056 326.603 64.2957C325.946 64.0126 325.295 63.8137 324.645 63.6913C324.026 63.5612 323.529 63.5 323.162 63.5C323.032 63.0028 322.97 62.429 322.97 61.7787C322.97 61.159 323.032 60.4628 323.162 59.6901ZM331.713 29.2183C332.615 28.1931 333.824 27.6806 335.346 27.6806C335.59 27.6806 335.919 27.6806 336.317 27.6806C338.581 27.9254 340.195 28.591 341.159 29.6773C342.122 30.7637 342.596 32.1943 342.596 33.9616C342.596 35.1092 342.122 36.5168 341.159 38.1923C340.195 39.8371 338.459 40.6558 335.95 40.6558C335.797 40.6558 335.59 40.6558 335.346 40.6558C333.579 40.5333 332.24 39.7759 331.345 38.3836C330.473 36.9835 330.045 35.4611 330.045 33.8239C330.045 32.1484 330.596 30.6107 331.713 29.2183ZM357.45 91.9291L367.538 96.856L365.075 101.607C365.695 102.257 366.483 102.846 367.447 103.374C368.41 103.872 369.588 104.116 370.98 104.116C371.477 104.116 371.929 104.116 372.334 104.116C375.37 104.116 377.29 103.481 378.101 102.211C378.935 100.941 379.355 99.9162 379.355 99.1359C379.355 98.1184 378.981 97.2309 378.239 96.4888C375.944 94.1937 373.497 92.3193 370.888 90.8581C368.288 89.3968 365.741 87.9739 363.263 86.5815C360.777 85.1814 358.452 83.5978 356.287 81.8305C354.146 80.0327 352.379 77.6763 350.979 74.7615C349.587 71.7243 348.861 69.2226 348.799 67.2717C348.731 65.2826 348.7 64.1503 348.7 63.8749C348.7 60.5852 349.434 57.395 350.887 54.2889C352.348 51.1598 354.781 48.4286 358.192 46.1029C361.634 43.7465 366.207 42.2394 371.913 41.5891C373.061 41.4667 374.147 41.4055 375.172 41.4055C378.736 41.4055 382.285 42.1629 385.818 43.6853C389.383 45.2001 392.626 47.1127 395.54 49.4079C399.104 52.0702 402.286 55.1916 405.077 58.7567C404.052 59.3764 402.936 60.4628 401.727 62.0158C400.549 63.5306 399.448 65.1143 398.423 66.7591C397.153 68.5264 395.945 70.5002 394.798 72.6653L380.701 63.8749L384.143 61.0366C381.604 59.7666 378.935 59.1316 376.143 59.1316C374.598 59.1316 373.152 59.3917 371.821 59.9196C370.483 60.4169 369.512 61.3656 368.892 62.7579C368.364 63.7831 368.097 64.793 368.097 65.7799C368.097 67.3329 368.984 69.1002 370.751 71.0893C372.548 73.0402 375.676 75.1517 380.143 77.4162C382.529 78.6862 385 80.3463 387.539 82.389C390.086 84.4087 392.297 86.6274 394.193 89.0449C396.113 91.4625 397.383 93.6658 398.002 95.6473C398.66 97.6058 399.043 99.22 399.165 100.49C399.043 101.638 398.798 102.846 398.423 104.116C397.528 106.534 396.442 108.661 395.165 110.489C393.895 112.318 392.266 113.84 390.285 115.049C388.335 116.258 386.055 117.114 383.447 117.612C380.839 118.14 377.956 118.4 374.797 118.4C374.024 118.4 373.259 118.4 372.517 118.4C369.32 118.277 366.238 117.581 363.263 116.304C360.287 115.034 357.588 113.641 355.171 112.119C352.379 110.321 349.71 108.286 347.17 106.021L357.45 91.9291ZM414.607 24.4674C415.349 24.8422 416.359 25.263 417.629 25.722C418.906 26.1581 420.374 26.686 422.049 27.3057C423.441 22.8684 424.734 19.1962 425.912 16.2814C427.12 13.3359 428.046 11.3468 428.704 10.3293L444.704 16.465C443.802 17.9874 442.869 20.0148 441.913 22.5624C440.98 25.1024 440.001 28.0172 438.983 31.3069C441.278 31.8042 443.121 32.1331 444.513 32.2861C445.913 32.4086 446.999 32.4698 447.771 32.4698C448.636 32.4698 449.401 32.4086 450.051 32.2861C449.768 33.8086 449.271 35.8972 448.559 38.5672C447.878 41.2295 446.9 43.8383 445.63 46.3783C444.36 46.8756 443.091 47.1586 441.813 47.2198C440.574 47.281 439.633 47.3116 438.983 47.3116C437.584 47.3116 436.13 47.2504 434.608 47.128C433.339 52.5828 432.253 58.0759 431.35 63.5918C430.486 69.1155 430.004 73.0554 429.912 75.4118C429.851 77.7681 429.82 79.0687 429.82 79.3212C429.82 83.3836 430.295 86.7804 431.258 89.5116C432.222 92.2352 433.912 93.6046 436.329 93.6046C438.471 93.3521 440.238 92.3499 441.63 90.5827C443.029 88.8077 444.047 87.0252 444.704 85.2273C443.68 84.6077 442.655 84.0951 441.63 83.6972C441.133 83.3224 440.635 83.0087 440.146 82.7639L446.234 65.5963L452.514 69.039C454.28 70.0641 456.139 71.0893 458.097 72.1068C460.078 73.1014 461.829 74.05 463.352 74.9451C463.474 75.32 463.535 75.8326 463.535 76.4829C463.535 77.6304 463.29 79.3212 462.793 81.5551C462.296 83.7584 461.508 86.3902 460.422 89.4657C459.336 92.5029 458.005 95.6014 456.422 98.7687C454.839 101.928 453.118 104.813 451.259 107.421C449.431 110.022 447.488 112.103 445.446 113.656C443.427 115.171 441.461 115.936 439.542 115.936C439.289 115.936 439.106 115.936 438.983 115.936C431.105 115.531 425.193 113.052 421.262 108.492C417.323 103.902 414.867 98.8758 413.911 93.4133C412.978 87.9586 412.512 83.0087 412.512 78.5791C412.512 75.3812 412.825 70.8674 413.445 65.0378C414.095 59.2081 415.303 52.4757 417.07 44.8482C414.906 44.4733 413.116 44.0985 411.724 43.7312C410.332 43.3258 409.383 43.0044 408.886 42.752L414.607 24.4674ZM471.36 59.6901C471.604 58.0452 472.056 56.4004 472.706 54.7556C473.325 52.8353 474.151 50.8003 475.169 48.6581C476.813 48.5357 478.396 48.4745 479.918 48.4745C480.691 48.4745 481.463 48.4745 482.243 48.4745C484.01 48.727 485.808 49.1095 487.636 49.6374C489.494 50.1347 490.802 51.0833 491.544 52.4757C489.655 57.4103 488.194 63.018 487.169 69.3144C486.152 75.6107 485.548 80.9966 485.356 85.4645C485.173 89.8941 485.081 93.3827 485.081 95.9303C485.081 98.6003 485.173 101.653 485.356 105.096C485.548 108.508 485.961 111.032 486.611 112.677L474.801 116.12C473.899 114.728 473.096 111.996 472.384 107.934C471.696 103.872 471.329 100.283 471.268 97.185C471.207 94.056 471.168 91.975 471.168 90.9499C471.168 86.6427 471.39 82.083 471.826 77.2709C472.285 72.4358 473.279 68.1056 474.801 64.2957C474.151 64.0126 473.501 63.8137 472.843 63.6913C472.224 63.5612 471.727 63.5 471.36 63.5C471.237 63.0028 471.168 62.429 471.168 61.7787C471.168 61.159 471.237 60.4628 471.36 59.6901ZM479.918 29.2183C480.813 28.1931 482.022 27.6806 483.544 27.6806C483.796 27.6806 484.117 27.6806 484.523 27.6806C486.787 27.9254 488.4 28.591 489.356 29.6773C490.32 30.7637 490.802 32.1943 490.802 33.9616C490.802 35.1092 490.32 36.5168 489.356 38.1923C488.4 39.8371 486.664 40.6558 484.148 40.6558C483.995 40.6558 483.796 40.6558 483.544 40.6558C481.777 40.5333 480.446 39.7759 479.543 38.3836C478.679 36.9835 478.243 35.4611 478.243 33.8239C478.243 32.1484 478.802 30.6107 479.918 29.2183ZM495.552 49.7751L514.627 48.4745L515.186 55.1304C516.08 53.7304 517.059 52.3074 518.115 50.8462C519.201 49.3926 520.348 48.0843 521.557 46.9368C522.765 45.7892 524.066 44.9094 525.465 44.2897C526.857 43.6394 528.249 43.3105 529.649 43.3105C534.238 43.4329 537.925 44.7717 540.716 47.3116C543.508 49.8592 545.604 53.126 546.996 57.1272C548.395 61.1284 549.214 65.0072 549.459 68.7559C549.711 72.5123 549.833 75.6643 549.833 78.2042C549.833 80.3463 549.742 83.0393 549.558 86.2984C549.367 89.5269 548.916 93.0461 548.204 96.856C547.524 100.674 546.935 103.527 546.437 105.417L552.901 107.934L550.017 118.958L530.016 114.399C532.066 104.629 533.397 95.9303 534.016 88.3028C534.299 84.9825 534.468 82.4349 534.529 80.6677C534.59 78.9004 534.628 77.814 534.628 77.4162C534.628 74.7462 534.391 72.2216 533.924 69.827C533.496 67.4094 532.762 65.4126 531.737 63.829C530.72 62.2148 529.32 61.3502 527.553 61.2202C527.431 61.2202 527.308 61.2202 527.186 61.2202C525.786 61.2202 524.486 62.0923 523.278 63.829C522.069 65.5351 520.922 67.9067 519.836 70.9439C518.75 73.9888 517.786 77.4774 516.952 81.4174C516.142 85.3497 515.384 89.3968 514.673 93.5587C513.992 97.6823 513.35 101.775 512.761 105.838C512.203 109.9 511.675 113.519 511.185 116.678C510.528 117.176 509.319 117.42 507.552 117.42C506.535 117.42 505.418 117.359 504.202 117.237C502.994 117.114 501.892 116.923 500.906 116.678L497.464 115.936C497.709 114.536 498.175 111.744 498.856 107.559C499.567 103.344 500.271 98.5621 500.952 93.2297C501.663 87.8973 502.267 82.3737 502.764 76.6665C503.292 70.9592 503.552 65.9405 503.552 61.5951L495.368 62.0158L495.552 49.7751ZM560.702 87.6984C560.702 81.8611 560.916 75.9397 561.352 69.9264C561.819 63.8749 562.423 58.0911 563.165 52.5675C563.945 47.0515 564.794 42.0405 565.727 37.542C566.683 33.0129 567.739 29.356 568.886 26.5636C567.739 26.1581 566.668 25.9592 565.681 25.9592C564.901 25.9592 564.19 26.0969 563.54 26.38C563.417 25.9745 563.356 25.5231 563.356 25.0259C563.356 24.2532 563.54 23.1056 563.914 21.5831C564.312 20.0684 564.825 18.4235 565.444 16.6562C566.347 14.6059 567.372 12.372 568.519 9.95444C569.414 9.70963 570.301 9.57957 571.165 9.57957C572.068 9.57957 573.276 9.70963 574.798 9.95444C576.313 10.1993 578.11 10.6506 580.19 11.3009C582.301 11.9206 584.175 12.5939 585.82 13.3053C587.495 14.0168 588.642 14.6824 589.262 15.3021C588.267 17.5973 587.319 20.2673 586.424 23.3045C585.522 26.3494 584.688 29.5855 583.908 33.0282C583.166 36.4709 582.5 39.883 581.911 43.2646C581.353 46.6155 580.886 49.6833 580.519 52.4757C582.156 50.433 584.022 48.7117 586.095 47.3116C588.206 45.9193 590.531 45.2154 593.071 45.2154C593.201 45.2154 593.399 45.2154 593.675 45.2154C598.363 45.3455 602.096 46.6461 604.888 49.1248C607.679 51.6112 609.744 54.7249 611.075 58.4813C612.406 62.2301 613.163 65.6575 613.355 68.7559C613.569 71.862 613.676 74.2489 613.676 75.9244C613.676 78.7168 613.477 81.8917 613.071 85.4645C612.704 88.999 612.131 92.61 611.351 96.3052C610.609 99.9927 609.913 102.846 609.263 104.858L614.792 106.396L612.33 118.025C609.913 117.902 607.557 117.52 605.262 116.862C603.243 116.372 601.186 115.669 599.075 114.773C596.994 113.871 595.258 112.601 593.866 110.956C594.486 108.661 595.136 105.899 595.816 102.678C596.528 99.4495 597.17 95.9915 597.729 92.304C598.317 88.6088 598.7 85.4033 598.891 82.6721C599.075 79.9409 599.166 77.6916 599.166 75.9244C599.166 74.3713 599.075 72.497 598.891 70.2936C598.7 68.0597 598.126 66.0323 597.17 64.2039C596.237 62.3372 594.746 61.4114 592.703 61.4114C592.451 61.4114 592.267 61.4114 592.145 61.4114C589.728 61.4114 587.617 62.1382 585.82 63.5918C584.053 65.0531 582.592 67.0192 581.445 69.5056C580.328 71.9844 579.51 74.8533 578.982 78.1124C578.485 81.3333 578.171 84.6689 578.049 88.1116C577.927 89.8788 577.865 91.6461 577.865 93.4133C577.865 100.023 578.439 107.33 579.586 115.332C577.414 115.454 575.372 115.653 573.444 115.936C571.678 116.059 569.865 116.242 568.006 116.495C566.178 116.74 564.564 117.053 563.165 117.42C562.301 113.764 561.666 109.655 561.26 105.096C560.886 100.505 560.702 95.9762 560.702 91.5084C560.702 90.2384 560.702 88.9684 560.702 87.6984ZM625.447 88.1116C627.864 84.3016 630.923 81.0578 634.61 78.3878C638.304 75.7255 642.052 73.5374 645.868 71.8314C649.677 70.0947 652.592 68.6488 654.611 67.5012C657.028 66.1088 658.703 64.946 659.636 64.0126C660.592 63.0563 661.104 62.3525 661.166 61.924C661.265 61.4573 661.311 61.2202 661.311 61.2202C661.311 60.6005 661.012 60.0726 660.424 59.6442C659.865 59.1775 659.261 58.7567 658.611 58.3819C658.489 58.3819 658.366 58.3513 658.236 58.2901C658.114 58.2289 657.93 58.1983 657.678 58.1983C657.555 58.1983 657.418 58.1983 657.265 58.1983C656.768 58.1983 655.727 58.4507 654.144 58.9404C652.561 59.4376 650.779 60.1721 648.798 61.1284C646.84 62.0923 644.935 63.0869 643.077 64.1044C641.249 65.099 639.941 65.9864 639.168 66.7591C638.549 65.4891 637.73 64.1886 636.705 62.8497C635.681 61.5186 634.671 60.218 633.677 58.9404C632.529 57.548 631.321 56.1556 630.051 54.7556C633.218 52.9883 636.254 51.3281 639.168 49.7751C641.585 48.5051 644.002 47.3422 646.427 46.2865C648.844 45.2001 650.748 44.5957 652.148 44.4733C652.89 44.4733 653.647 44.4121 654.427 44.2897C655.322 44.4121 656.469 44.5039 657.869 44.5651C659.261 44.6263 661.058 45.1389 663.261 46.1029C665.495 47.0362 667.758 48.4592 670.053 50.3795C672.348 52.2768 674.505 55.008 676.516 58.5731C678.16 61.3655 679.078 64.8848 679.262 69.1308C679.476 73.3844 679.591 77.225 679.591 80.6677C679.591 82.3125 679.56 84.8907 679.491 88.3946C679.43 91.8679 679.369 94.7828 679.308 97.1391C679.247 99.4955 679.216 100.796 679.216 101.048C679.216 104.858 679.591 107.345 680.333 108.492C679.308 109.387 678.161 110.214 676.891 110.956C675.897 111.606 674.688 112.256 673.265 112.907C671.866 113.534 670.413 113.962 668.891 114.215C667.743 113.19 666.917 111.92 666.428 110.397C665.931 108.875 665.556 107.092 665.311 105.05C663.758 106.32 662.099 107.651 660.332 109.051C658.565 110.443 656.691 111.713 654.702 112.861C652.752 114.008 650.779 114.988 648.798 115.799C646.84 116.632 644.966 117.114 643.168 117.237C642.794 117.237 642.427 117.237 642.052 117.237C640.407 117.237 638.533 116.992 636.422 116.495C634.319 115.997 632.239 115.11 630.189 113.84C628.177 112.57 626.472 110.956 625.072 109.005C623.68 107.016 622.862 104.813 622.609 102.395C622.487 101.247 622.426 100.161 622.426 99.1359C622.426 94.9511 623.435 91.2788 625.447 88.1116ZM638.426 99.1359C638.549 100.536 639.092 101.592 640.056 102.303C641.012 102.984 642.251 103.328 643.773 103.328C644.27 103.328 644.767 103.328 645.264 103.328C646.656 103.206 648.239 102.502 650.006 101.232C651.804 99.9621 653.647 98.4703 655.544 96.7642C657.464 95.0582 659.338 93.2603 661.166 91.3707C663.032 89.4504 664.592 87.729 665.869 86.2066C666.114 84.2863 666.298 82.4043 666.428 80.5759C666.55 78.7168 666.672 76.9036 666.795 75.1364C665.15 76.5288 663.093 78.0359 660.607 79.6425C658.129 81.2261 655.651 82.7792 653.165 84.3016C650.718 85.8164 648.408 87.2165 646.236 88.4864C644.071 89.7564 642.549 90.7663 641.677 91.5084C640.53 92.4111 639.696 93.5281 639.168 94.8593C638.671 96.1904 638.426 97.3686 638.426 98.3938C638.426 98.6463 638.426 98.8911 638.426 99.1359Z" stroke="#42210B" stroke-width="8.59534" shape-rendering="crispEdges"/>
</g>
<g filter="url(#filter1_d_434_293)">
<path d="M10.0137 112.872L14.2051 98.3969C14.6946 98.5193 15.3141 98.5805 16.0713 98.5805C16.8438 98.5805 17.7387 98.7029 18.7636 98.9477C19.6585 95.5203 20.9205 90.7311 22.5573 84.5648C24.2094 78.4062 26.1138 71.6738 28.2784 64.3676C30.4353 57.0691 32.7834 49.5104 35.315 41.6916C37.862 33.8805 40.4089 26.6661 42.9636 20.0561L37.426 19.8725C37.5484 17.5927 37.7396 15.4964 38.0073 13.5991C38.1297 11.9466 38.2521 10.3553 38.3744 8.82523C38.5121 7.29514 38.711 6.21642 38.9557 5.58144C41.5027 5.33662 45.1816 5.18361 50.0002 5.12241C54.8341 5.0459 59.5915 5 64.2877 5C69.8711 5 75.7758 5.07651 82.0017 5.21421L85.6424 21.5862L78.0244 21.219L88.6712 102.589C90.4457 102.452 92.0366 102.375 93.4439 102.375H96.6869L99.5321 116.666L67.3471 121.073C66.5899 118.518 65.9551 116.161 65.4503 114.004C65.1826 113.132 64.9149 112.282 64.6548 111.464C64.4101 110.63 64.1653 109.896 63.9205 109.261C63.6528 108.488 63.4616 107.723 63.3393 106.965C64.3565 106.46 65.4961 106.017 66.7658 105.649C68.0278 105.267 69.4275 104.877 70.9572 104.487L68.2955 86.9518C66.3987 87.0742 64.2341 87.2119 61.8095 87.3496C59.4003 87.472 56.9221 87.5944 54.3752 87.7168C51.8435 87.8392 49.3654 87.9769 46.9408 88.1146C44.5315 88.237 42.3211 88.4207 40.3019 88.6655L35.7127 102.191C38.2597 102.972 40.0418 103.859 41.0667 104.854L37.2425 117.829L10.0137 112.872ZM55.3542 72.2935C59.1479 71.6432 62.6968 71.1306 66.0009 70.7634L60.2798 31.3176L45.4417 74.0072C48.2334 73.5023 51.5376 72.9285 55.3542 72.2935Z" fill="#55CBCD"/>
</g>
<g filter="url(#filter2_d_434_293)">
<path d="M133.428 9.95752C136.219 8.96296 139.868 8.17496 144.38 7.60118C148.885 7.03504 153.842 6.55306 159.249 6.16289C164.649 5.78037 170.24 5.52025 176.015 5.39784C181.782 5.27544 187.342 5.21423 192.689 5.21423C199.664 5.21423 205.691 5.27544 210.77 5.39784C215.864 5.52025 218.915 5.64266 219.917 5.76507L218.021 35.6937L201.438 39.7025L199.358 24.065L183.174 24.83L178.585 102.008L185.254 101.243L186.967 117.248L152.855 121.073L154.018 104.487L162.584 103.905L164.664 26.7273L152.121 27.8902L151.539 43.4971L137.252 45.4251C136.617 40.085 135.982 35.1275 135.355 30.5526C134.965 26.4978 134.575 22.4966 134.193 18.5566C133.803 14.6243 133.55 11.7554 133.428 9.95752Z" fill="#55CBCD"/>
</g>
<g filter="url(#filter3_d_434_293)">
<path d="M195.169 61.4298C195.414 60.0222 195.911 58.4615 196.668 56.7478C197.441 55.0341 198.267 53.4122 199.146 51.8821C200.041 49.9848 201.12 48.0874 202.389 46.1901C205.571 48.0874 208.363 49.7323 210.772 51.117C212.929 52.4023 214.841 53.5269 216.493 54.4832C218.145 55.4242 218.971 55.9521 218.971 56.0745C217.441 58.6298 216.256 62.2178 215.422 66.8464C214.604 71.4826 214.198 76.0881 214.198 80.6784C214.198 81.0456 214.229 82.5375 214.29 85.1463C214.351 87.7627 214.887 90.8841 215.912 94.5104C216.929 98.1215 218.459 99.9882 220.501 100.111C221.885 100.111 223.178 99.3914 224.386 97.9379C225.61 96.469 226.719 94.5028 227.721 92.0317C228.738 89.5453 229.725 86.7529 230.689 83.6468C231.645 80.5254 232.501 77.3122 233.259 74.0072C235.155 66.3797 236.808 57.6046 238.215 47.6896C240.372 48.0798 242.345 48.5312 244.12 49.0361C245.772 49.4263 247.424 49.9082 249.076 50.4744C250.728 51.0482 251.99 51.7138 252.869 52.4635C252.235 54.751 251.722 58.4615 251.34 63.6026C250.973 68.7437 250.758 73.0126 250.697 76.3942C250.636 79.7604 250.606 81.8872 250.606 82.7593C250.606 87.7168 250.789 92.9039 251.156 98.3051C251.539 103.691 252.181 108.098 253.084 111.525C251.676 112.55 250.269 113.315 248.862 113.82C247.47 114.333 246.146 114.708 244.884 114.952C243.477 115.213 242.077 115.35 240.693 115.35L237.817 103.538C236.425 105.948 234.368 108.427 231.637 110.974C228.899 113.507 225.503 114.899 221.449 115.167C220.814 115.167 220.18 115.167 219.552 115.167C215.468 115.167 211.973 114.34 209.059 112.688C206.137 111.035 203.827 108.725 202.114 105.741C200.401 102.742 199.253 99.4679 198.687 95.9181C198.114 92.353 197.831 88.9868 197.831 85.8195C197.831 85.1922 197.861 83.7309 197.922 81.4435C197.984 79.1407 198.328 76.2105 198.963 72.6607C199.59 69.1109 200.225 66.1272 200.859 63.6944C198.84 62.6998 196.943 61.9424 195.169 61.4298Z" fill="#55CBCD"/>
</g>
<g filter="url(#filter4_d_434_293)">
<path d="M265.622 45.7923C267.029 44.7748 268.59 43.7649 270.303 42.7627C272.016 41.7452 273.699 40.9802 275.351 40.4676C277.385 42.3649 278.877 44.3999 279.818 46.5574C280.774 48.7224 281.508 51.2012 282.02 53.9936C283.917 52.081 286.319 50.4591 289.241 49.1279C292.178 47.8044 295.222 46.7639 298.388 46.0065C301.57 45.2338 304.423 44.7518 306.955 44.5682C309.502 44.3693 311.544 44.2622 313.073 44.2622C313.968 44.2622 314.733 44.2622 315.368 44.2622C316.24 47.0623 316.714 49.4186 316.775 51.3312C316.852 53.2286 316.898 54.6286 316.898 55.5237C316.898 57.2986 316.821 58.9511 316.684 60.4812C316.439 63.1359 316.056 65.7371 315.552 68.2847L303.559 70.7634L302.396 61.9807C301.249 62.6157 299.857 63.2889 298.205 64.0004C296.553 64.6966 294.809 65.5229 292.973 66.4792C291.137 67.4202 289.363 68.6213 287.65 70.0902C285.936 71.5591 284.506 73.3646 283.367 75.5067C283.099 77.8171 282.739 80.8773 282.296 84.6873C281.867 88.4819 281.485 92.3836 281.164 96.3772C280.835 100.378 280.644 103.813 280.582 106.69C280.521 109.551 280.491 111.732 280.491 113.239C280.491 114.769 280.491 116.1 280.491 117.248C277.064 117.37 274.747 117.462 273.546 117.523C272.337 117.6 271.603 117.645 271.343 117.645C269.446 117.645 267.733 117.385 266.203 116.88C266.586 114.21 266.876 110.592 267.06 106.017C267.243 101.449 267.366 96.6526 267.427 91.6339C267.503 86.6152 267.58 81.6271 267.641 76.6696C267.702 71.7121 267.733 67.4584 267.733 63.9086L262.777 64.6737L260.696 49.6175C262.325 48.2099 263.97 46.9399 265.622 45.7923Z" fill="#55CBCD"/>
</g>
<g filter="url(#filter5_d_434_293)">
<path d="M323.163 59.7161C323.408 58.0636 323.851 56.4111 324.509 54.7586C325.136 52.846 325.962 50.8033 326.987 48.6382C328.616 48.5158 330.2 48.4546 331.729 48.4546C332.502 48.4546 333.267 48.4546 334.024 48.4546C335.798 48.7224 337.603 49.1126 339.439 49.6175C341.29 50.1071 342.598 51.0558 343.355 52.4635C341.458 57.421 339.997 63.0441 338.98 69.3251C337.955 75.6138 337.343 80.9767 337.145 85.4217C336.961 89.8742 336.869 93.3705 336.869 95.9181C336.869 98.5958 336.961 101.641 337.145 105.068C337.343 108.495 337.764 111.035 338.399 112.688L326.59 116.115C325.687 114.708 324.892 111.976 324.203 107.914C323.507 103.859 323.132 100.279 323.071 97.1728C323.01 94.0514 322.979 91.9858 322.979 90.9606C322.979 86.6381 323.194 82.0708 323.622 77.251C324.066 72.4159 325.06 68.0934 326.59 64.2758C325.955 64.031 325.32 63.8474 324.693 63.7249C324.058 63.5872 323.545 63.5107 323.163 63.5107C323.041 63.0058 322.979 62.432 322.979 61.797C322.979 61.1697 323.041 60.4735 323.163 59.7161ZM331.729 29.2061C332.624 28.1885 333.84 27.676 335.37 27.676C335.615 27.676 335.928 27.676 336.319 27.676C338.598 27.9437 340.212 28.617 341.152 29.6957C342.108 30.7821 342.59 32.205 342.59 33.9799C342.59 35.1275 342.108 36.5199 341.152 38.1724C340.212 39.8249 338.468 40.6512 335.921 40.6512C335.798 40.6512 335.615 40.6512 335.37 40.6512C333.573 40.5287 332.227 39.779 331.332 38.3866C330.452 36.9789 330.016 35.4488 330.016 33.7963C330.016 32.1438 330.582 30.6137 331.729 29.2061Z" fill="#55CBCD"/>
</g>
<g filter="url(#filter6_d_434_293)">
<path d="M357.458 91.9094L367.554 96.8669L365.076 101.641C365.703 102.276 366.491 102.85 367.432 103.354C368.388 103.867 369.574 104.12 370.981 104.12C371.486 104.12 371.937 104.12 372.327 104.12C375.364 104.12 377.291 103.492 378.109 102.222C378.943 100.937 379.364 99.9194 379.364 99.162C379.364 98.1445 378.981 97.2494 378.232 96.4691C375.922 94.1892 373.467 92.3225 370.859 90.8689C368.266 89.4 365.726 87.977 363.241 86.5847C360.77 85.177 358.453 83.5857 356.296 81.8108C354.154 80.0359 352.38 77.6948 350.972 74.7723C349.58 71.7122 348.846 69.2028 348.77 67.2443C348.708 65.2705 348.678 64.1535 348.678 63.9087C348.678 60.6037 349.412 57.4058 350.881 54.2997C352.349 51.1783 354.797 48.4471 358.223 46.0984C361.65 43.7344 366.216 42.2349 371.929 41.5999C373.069 41.4775 374.147 41.4163 375.172 41.4163C378.721 41.4163 382.27 42.1814 385.819 43.7115C389.383 45.2263 392.626 47.1236 395.548 49.4034C399.112 52.0811 402.294 55.1872 405.093 58.737C404.069 59.3949 402.952 60.4813 401.728 62.0114C400.52 63.5262 399.418 65.1022 398.424 66.7547C397.139 68.5296 395.923 70.5034 394.783 72.6608L380.679 63.9087L384.136 61.0321C381.582 59.7698 378.912 59.1348 376.121 59.1348C374.591 59.1348 373.161 59.3949 371.838 59.8998C370.507 60.4124 369.52 61.3611 368.87 62.7458C368.38 63.771 368.136 64.7885 368.136 65.806C368.136 67.3361 369.023 69.0957 370.797 71.0695C372.572 73.028 375.677 75.1549 380.129 77.4347C382.53 78.7047 385.001 80.3572 387.532 82.3922C390.079 84.4119 392.305 86.6382 394.202 89.0634C396.114 91.4733 397.391 93.669 398.026 95.6428C398.653 97.6013 399.043 99.2156 399.189 100.478C399.043 101.625 398.791 102.834 398.424 104.12C397.521 106.529 396.435 108.649 395.15 110.485C393.881 112.321 392.259 113.843 390.286 115.044C388.328 116.268 386.041 117.133 383.433 117.646C380.84 118.15 377.956 118.411 374.775 118.411C374.017 118.411 373.26 118.411 372.511 118.411C369.329 118.265 366.239 117.561 363.241 116.299C360.258 115.029 357.565 113.637 355.164 112.107C352.364 110.332 349.703 108.304 347.179 106.017L357.458 91.9094Z" fill="#55CBCD"/>
</g>
<g filter="url(#filter7_d_434_293)">
<path d="M414.588 24.4627C415.36 24.83 416.378 25.2431 417.647 25.6868C418.909 26.1382 420.37 26.6814 422.022 27.3087C423.43 22.8638 424.73 19.1839 425.938 16.2614C427.139 13.3466 428.057 11.3804 428.692 10.3553L444.693 16.4451C443.813 17.9751 442.895 20.0178 441.939 22.5654C440.975 25.0977 439.989 28.0126 438.971 31.3176C441.251 31.8301 443.086 32.1438 444.478 32.2662C445.886 32.3886 446.972 32.4498 447.752 32.4498C448.624 32.4498 449.389 32.3886 450.047 32.2662C449.779 33.7963 449.297 35.9002 448.609 38.5702C447.913 41.2249 446.926 43.8261 445.641 46.3737C444.371 46.8862 443.109 47.1693 441.847 47.2305C440.578 47.2917 439.622 47.3223 438.971 47.3223C437.579 47.3223 436.126 47.2611 434.597 47.1387C433.327 52.5858 432.248 58.0789 431.354 63.6025C430.474 69.1338 430.007 73.0814 429.946 75.4454C429.885 77.7941 429.854 79.087 429.854 79.3319C429.854 83.3943 430.321 86.7911 431.262 89.5223C432.218 92.2611 433.901 93.6229 436.31 93.6229C438.467 93.3781 440.241 92.3682 441.633 90.5933C443.041 88.8031 444.058 87.0129 444.693 85.238C443.668 84.6107 442.658 84.0981 441.664 83.7079C441.151 83.3407 440.639 83.027 440.134 82.7593L446.222 65.6222L452.525 69.0496C454.299 70.0748 456.165 71.0923 458.123 72.1098C460.097 73.112 461.841 74.0607 463.355 74.9558C463.493 75.323 463.569 75.8356 463.569 76.4859C463.569 77.6335 463.309 79.3166 462.804 81.5352C462.292 83.7615 461.496 86.3932 460.418 89.4305C459.332 92.4754 458.001 95.5814 456.41 98.764C454.819 101.947 453.106 104.846 451.27 107.455C449.435 110.048 447.492 112.106 445.457 113.637C443.415 115.167 441.45 115.932 439.553 115.932C439.308 115.932 439.109 115.932 438.971 115.932C431.094 115.541 425.189 113.07 421.257 108.495C417.318 103.928 414.871 98.9094 413.915 93.4393C412.974 87.9769 412.508 83.0194 412.508 78.5668C412.508 75.3842 412.821 70.8781 413.456 65.0408C414.083 59.2111 415.292 52.4787 417.066 44.8436C414.902 44.461 413.119 44.0785 411.712 43.7113C410.32 43.3288 409.387 42.9998 408.897 42.732L414.588 24.4627Z" fill="#55CBCD"/>
</g>
<g filter="url(#filter8_d_434_293)">
<path d="M471.363 59.7161C471.608 58.0636 472.052 56.4111 472.709 54.7586C473.337 52.846 474.163 50.8033 475.188 48.6382C476.817 48.5158 478.4 48.4546 479.93 48.4546C480.702 48.4546 481.467 48.4546 482.224 48.4546C483.999 48.7224 485.804 49.1126 487.639 49.6175C489.49 50.1071 490.798 51.0558 491.555 52.4635C489.659 57.421 488.198 63.0441 487.18 69.3251C486.156 75.6138 485.544 80.9767 485.345 85.4217C485.161 89.8742 485.069 93.3705 485.069 95.9181C485.069 98.5958 485.161 101.641 485.345 105.068C485.544 108.495 485.964 111.035 486.599 112.688L474.79 116.115C473.887 114.708 473.092 111.976 472.403 107.914C471.707 103.859 471.333 100.279 471.271 97.1728C471.21 94.0514 471.18 91.9858 471.18 90.9606C471.18 86.6381 471.394 82.0708 471.822 77.251C472.266 72.4159 473.26 68.0934 474.79 64.2758C474.155 64.031 473.52 63.8474 472.893 63.7249C472.258 63.5872 471.746 63.5107 471.363 63.5107C471.241 63.0058 471.18 62.432 471.18 61.797C471.18 61.1697 471.241 60.4735 471.363 59.7161ZM479.93 29.2061C480.824 28.1885 482.041 27.676 483.57 27.676C483.815 27.676 484.129 27.676 484.519 27.676C486.798 27.9437 488.412 28.617 489.353 29.6957C490.309 30.7821 490.791 32.205 490.791 33.9799C490.791 35.1275 490.309 36.5199 489.353 38.1724C488.412 39.8249 486.668 40.6512 484.121 40.6512C483.999 40.6512 483.815 40.6512 483.57 40.6512C481.773 40.5287 480.427 39.779 479.532 38.3866C478.652 36.9789 478.216 35.4488 478.216 33.7963C478.216 32.1438 478.782 30.6137 479.93 29.2061Z" fill="#55CBCD"/>
</g>
<g filter="url(#filter9_d_434_293)">
<path d="M495.562 49.8011L514.592 48.4546L515.173 55.1259C516.068 53.7411 517.055 52.3105 518.141 50.8416C519.219 49.3727 520.359 48.0721 521.567 46.9246C522.768 45.7846 524.061 44.8972 525.453 44.2622C526.86 43.6349 528.252 43.3135 529.644 43.3135C534.233 43.4359 537.92 44.7748 540.719 47.3224C543.511 49.8547 545.599 53.1291 546.991 57.1456C548.399 61.1468 549.225 65.0256 549.469 68.7743C549.714 72.5077 549.836 75.652 549.836 78.1997C549.836 80.3647 549.745 83.0653 549.561 86.3091C549.378 89.5376 548.926 93.0568 548.215 96.8668C547.519 100.684 546.915 103.538 546.41 105.435L552.896 107.914L550.051 118.961L530.042 114.402C532.061 104.609 533.392 95.9105 534.05 88.2983C534.295 84.9933 534.448 82.4533 534.509 80.6784C534.57 78.8882 534.601 77.8018 534.601 77.4346C534.601 74.7646 534.371 72.2246 533.928 69.8147C533.499 67.3895 532.773 65.3928 531.755 63.8168C530.73 62.2255 529.338 61.361 527.564 61.2156C527.442 61.2156 527.304 61.2156 527.166 61.2156C525.774 61.2156 524.482 62.0878 523.281 63.8168C522.072 65.5305 520.933 67.9098 519.854 70.947C518.768 73.9919 517.812 77.4882 516.978 81.4434C516.16 85.3834 515.395 89.4152 514.684 93.5312C513.988 97.6548 513.353 101.755 512.787 105.833C512.213 109.896 511.67 113.507 511.165 116.666C510.531 117.171 509.33 117.431 507.555 117.431C506.53 117.431 505.421 117.37 504.221 117.248C503.012 117.125 501.903 116.926 500.886 116.666L497.459 115.932C497.704 114.524 498.171 111.732 498.867 107.547C499.578 103.347 500.282 98.5805 500.978 93.2558C501.666 87.9157 502.27 82.3845 502.783 76.6696C503.287 70.9623 503.548 65.9436 503.548 61.6134L495.379 61.9807L495.562 49.8011Z" fill="#55CBCD"/>
</g>
<g filter="url(#filter10_d_434_293)">
<path d="M560.71 87.7168C560.71 81.8871 560.924 75.9504 561.352 69.9065C561.796 63.8703 562.4 58.0866 563.157 52.5553C563.93 47.0316 564.787 42.0129 565.727 37.4992C566.683 32.993 567.747 29.3438 568.909 26.5437C567.747 26.1612 566.661 25.9623 565.666 25.9623C564.886 25.9623 564.182 26.1 563.555 26.3601C563.433 25.9776 563.372 25.5262 563.372 25.0136C563.372 24.2639 563.555 23.1163 563.922 21.5862C564.305 20.0561 564.817 18.4036 565.452 16.6287C566.347 14.609 567.364 12.3903 568.511 9.95749C569.406 9.71268 570.294 9.59027 571.173 9.59027C572.068 9.59027 573.269 9.72798 574.783 9.9881C576.313 10.2329 578.126 10.6766 580.229 11.304C582.325 11.939 584.206 12.6122 585.858 13.3237C587.51 14.0199 588.65 14.6855 589.285 15.3128C588.26 17.6003 587.304 20.2703 586.409 23.3305C585.529 26.3754 584.703 29.6039 583.931 33.0313C583.174 36.4587 582.508 39.8555 581.942 43.2217C581.369 46.5879 580.887 49.671 580.504 52.4635C582.156 50.4284 584.03 48.7147 586.134 47.3224C588.229 45.9147 590.547 45.2108 593.079 45.2108C593.216 45.2108 593.415 45.2108 593.66 45.2108C598.348 45.3562 602.089 46.6644 604.888 49.1279C607.68 51.599 609.737 54.7127 611.068 58.4614C612.414 62.2178 613.179 65.6529 613.362 68.7743C613.561 71.8803 613.668 74.252 613.668 75.9045C613.668 78.7046 613.47 81.8871 613.087 85.4523C612.72 89.0021 612.146 92.6284 611.374 96.3159C610.617 99.9881 609.921 102.834 609.293 104.854L614.8 106.384L612.322 118.013C609.913 117.89 607.565 117.508 605.286 116.88C603.243 116.368 601.171 115.664 599.075 114.769C596.995 113.897 595.251 112.627 593.843 110.974C594.471 108.694 595.136 105.925 595.832 102.681C596.543 99.4373 597.186 95.9793 597.759 92.3071C598.325 88.6196 598.708 85.4064 598.891 82.6675C599.09 79.9363 599.197 77.6794 599.197 75.9045C599.197 74.3744 599.09 72.5 598.891 70.2737C598.708 68.0551 598.134 66.0201 597.178 64.184C596.237 62.3479 594.746 61.4298 592.711 61.4298C592.444 61.4298 592.253 61.4298 592.13 61.4298C589.721 61.4298 587.633 62.1643 585.858 63.6331C584.084 65.0867 582.615 67.0529 581.453 69.5393C580.306 72.0104 579.479 74.864 578.975 78.1078C578.485 81.3363 578.164 84.6566 578.026 88.084C577.904 89.8819 577.843 91.6644 577.843 93.4393C577.843 100.049 578.409 107.356 579.556 115.35C577.391 115.473 575.365 115.664 573.468 115.932C571.693 116.054 569.873 116.238 568.022 116.483C566.186 116.743 564.572 117.064 563.188 117.431C562.286 113.759 561.643 109.643 561.261 105.068C560.894 100.478 560.71 95.9716 560.71 91.542C560.71 90.2568 560.71 88.9868 560.71 87.7168Z" fill="#55CBCD"/>
</g>
<g filter="url(#filter11_d_434_293)">
<path d="M625.463 88.0841C627.865 84.2895 630.917 81.061 634.611 78.3833C638.298 75.7133 642.045 73.5176 645.839 71.8039C649.648 70.0902 652.577 68.6672 654.62 67.5197C657.021 66.112 658.704 64.9415 659.668 64.0005C660.624 63.0442 661.136 62.3403 661.197 61.8889C661.259 61.4452 661.289 61.2157 661.289 61.2157C661.289 60.5884 660.998 60.0528 660.432 59.6244C659.859 59.1807 659.255 58.7599 658.627 58.3697C658.482 58.3697 658.352 58.3391 658.23 58.2779C658.107 58.2167 657.924 58.1861 657.679 58.1861C657.534 58.1861 657.404 58.1861 657.281 58.1861C656.769 58.1861 655.721 58.4462 654.13 58.9512C652.539 59.4637 650.749 60.1982 648.776 61.1545C646.818 62.0955 644.921 63.0748 643.086 64.0923C641.25 65.1174 639.95 66.0049 639.2 66.7546C638.542 65.4923 637.709 64.1994 636.691 62.8682C635.689 61.5217 634.68 60.2211 633.663 58.9512C632.515 57.5435 631.315 56.1511 630.053 54.7587C633.211 52.9838 636.263 51.3313 639.2 49.8012C641.602 48.5389 644.011 47.3684 646.42 46.282C648.822 45.2033 650.734 44.5912 652.141 44.4459C652.891 44.4459 653.656 44.3847 654.436 44.2623C655.308 44.3847 656.44 44.4918 657.832 44.5683C659.239 44.6295 661.052 45.1421 663.278 46.0984C665.496 47.0394 667.752 48.47 670.039 50.3826C672.318 52.28 674.483 55.0035 676.525 58.5533C678.177 61.3534 679.095 64.8803 679.278 69.1416C679.477 73.3876 679.584 77.2358 679.584 80.6785C679.584 82.331 679.539 84.9015 679.462 88.3901C679.401 91.8788 679.34 94.8012 679.278 97.1423C679.217 99.491 679.187 100.799 679.187 101.059C679.187 104.877 679.569 107.356 680.349 108.496C679.324 109.375 678.177 110.202 676.892 110.974C675.89 111.609 674.689 112.244 673.282 112.872C671.89 113.507 670.437 113.958 668.907 114.218C667.76 113.201 666.934 111.923 666.429 110.393C665.916 108.863 665.542 107.088 665.297 105.068C663.767 106.338 662.115 107.669 660.341 109.077C658.566 110.469 656.685 111.732 654.711 112.872C652.73 114.019 650.749 114.991 648.776 115.809C646.818 116.643 644.952 117.125 643.177 117.248C642.81 117.248 642.428 117.248 642.045 117.248C640.393 117.248 638.512 116.988 636.416 116.483C634.313 115.97 632.24 115.083 630.205 113.82C628.186 112.558 626.473 110.944 625.066 108.985C623.674 107.011 622.863 104.808 622.618 102.375C622.496 101.235 622.435 100.164 622.435 99.162C622.435 94.9619 623.444 91.2667 625.463 88.0841ZM638.435 99.162C638.558 100.554 639.085 101.602 640.026 102.314C640.982 103.01 642.229 103.354 643.759 103.354C644.263 103.354 644.776 103.354 645.288 103.354C646.673 103.217 648.256 102.513 650.03 101.243C651.82 99.9806 653.671 98.4888 655.568 96.775C657.465 95.0613 659.331 93.2558 661.167 91.3585C663.018 89.4459 664.578 87.7169 665.848 86.1868C666.108 84.2895 666.307 82.4228 666.429 80.5867C666.551 78.7353 666.674 76.9144 666.796 75.1395C665.144 76.5472 663.079 78.0467 660.616 79.638C658.146 81.214 655.667 82.7594 653.182 84.2895C650.711 85.8196 648.394 87.2196 646.237 88.4819C644.072 89.7519 642.543 90.7694 641.648 91.5421C640.5 92.4219 639.674 93.5313 639.17 94.8777C638.68 96.2089 638.435 97.3794 638.435 98.3969C638.435 98.6418 638.435 98.9019 638.435 99.162Z" fill="#55CBCD"/>
</g>
<g filter="url(#filter12_d_434_293)">
<mask id="mask0_434_293" style="mask-type:luminance" maskUnits="userSpaceOnUse" x="642" y="110" width="167" height="112">
<path d="M642.228 110.267H808.66V221.903H642.228V110.267Z" fill="white"/>
</mask>
<g mask="url(#mask0_434_293)">
<mask id="mask1_434_293" style="mask-type:luminance" maskUnits="userSpaceOnUse" x="615" y="48" width="288" height="194">
<path d="M615.825 157.983L866.032 48.9795L902.538 132.821L652.332 241.825L615.825 157.983Z" fill="white"/>
</mask>
<g mask="url(#mask1_434_293)">
<mask id="mask2_434_293" style="mask-type:luminance" maskUnits="userSpaceOnUse" x="615" y="48" width="288" height="194">
<path d="M615.825 157.983L866.032 48.9795L902.538 132.821L652.332 241.825L615.825 157.983Z" fill="white"/>
</mask>
<g mask="url(#mask2_434_293)">
<path d="M806.435 145.459C785.914 162.298 758.394 174.302 731.54 168.327C720.618 165.771 710.201 160.057 703.371 150.983C699.378 145.59 698.942 138.084 701.596 132.033C704.548 124.903 712.273 120.374 719.937 121.307C723.586 121.72 726.813 123.044 730.01 124.75L726.546 126.15L727.249 124.023C727.456 123.419 727.815 122.324 728.075 121.72C728.787 120.182 729.727 118.736 730.806 117.421C735.311 111.928 742.646 109.196 749.369 112.402C755.549 115.133 759.151 121.797 760.107 128.185C762.631 143.983 753.086 158.526 742.217 168.977C731.334 179.412 718.079 187.04 704.128 192.54C695.737 195.868 686.781 198.209 677.648 197.705C671.583 197.299 664.944 195.746 660.982 190.72C654.879 183.115 657.908 170.369 667.552 167.455C674.245 165.596 680.371 169.681 681.373 176.497C681.863 179.535 681.182 182.58 680.379 185.487C678.689 191.255 675.629 196.496 672.08 201.285C668.57 206.082 664.417 210.504 659.391 213.725C654.389 216.984 648.699 219.034 642.894 220.189C651.59 218.368 659.843 214.26 665.984 207.78C671.927 201.338 677.09 193.711 679.499 185.242C680.211 182.465 680.838 179.527 680.325 176.673C679.331 170.576 673.878 167.011 667.943 168.763C659.468 171.479 656.867 182.909 662.405 189.572C666.069 194.048 672.218 195.295 677.756 195.578C689.465 196.021 700.793 191.561 711.195 186.527C726.775 178.838 741.491 167.998 750.677 153.026C755.052 145.804 757.537 137.228 756.061 128.873C755.335 124.895 753.721 121.123 750.738 118.438C748 116.028 744.03 114.758 740.512 116.021C736.993 117.191 734.011 120.228 732.466 123.617C732.297 124.092 731.991 125.025 731.831 125.522L731.173 127.634C730.775 128.904 729.414 129.615 728.136 129.218C725.437 127.909 722.446 126.555 719.425 126.318C708.755 125.392 702.323 136.822 706.866 145.972C707.508 147.211 708.365 148.237 709.313 149.292C719.731 160.799 736.198 164.815 751.266 163.147C769.951 161.043 787.374 151.848 801.593 139.729C805.463 136.639 810.182 142.032 806.435 145.459Z" fill="#42210B"/>
</g>
</g>
</g>
</g>
<g filter="url(#filter13_d_434_293)">
<mask id="mask3_434_293" style="mask-type:luminance" maskUnits="userSpaceOnUse" x="791" y="69" width="85" height="87">
<path d="M791.038 69.1385H875.233V155.313H791.038V69.1385Z" fill="white"/>
</mask>
<g mask="url(#mask3_434_293)">
<mask id="mask4_434_293" style="mask-type:luminance" maskUnits="userSpaceOnUse" x="615" y="48" width="288" height="194">
<path d="M615.825 157.983L866.032 48.9795L902.538 132.821L652.332 241.825L615.825 157.983Z" fill="white"/>
</mask>
<g mask="url(#mask4_434_293)">
<mask id="mask5_434_293" style="mask-type:luminance" maskUnits="userSpaceOnUse" x="615" y="48" width="288" height="194">
<path d="M615.825 157.983L866.032 48.9795L902.538 132.821L652.332 241.825L615.825 157.983Z" fill="white"/>
</mask>
<g mask="url(#mask5_434_293)">
<path d="M874.475 71.5101C872.173 68.9243 863.171 73.7823 859.92 76.8196C859.874 76.8655 855.629 81.4328 849.61 87.9127L831.422 84.034L831.697 83.7662C832.454 83.0011 832.454 81.7618 831.697 80.9967L831.146 80.4459C830.382 79.6885 829.142 79.6885 828.378 80.4459L826.611 82.2131C826.404 82.4197 826.259 82.6645 826.167 82.917L817.379 81.0503L817.708 80.7213C818.473 79.9563 818.473 78.7092 817.708 77.9518L817.157 77.401C816.392 76.6436 815.153 76.6436 814.388 77.401L812.568 79.2218C812.362 79.4284 812.216 79.6732 812.124 79.9257L802.158 77.7988C801.103 77.577 799.619 78.013 798.862 78.7781L795.596 82.0372C794.839 82.8022 795.022 83.7662 796.017 84.1793L837.066 101.416C825.968 113.373 814.19 126.058 810.205 130.35L795.94 128.147C794.854 127.971 793.363 128.43 792.636 129.156C791.909 129.883 792.154 130.817 793.179 131.222L807.329 136.845C807.719 137.006 808.629 137.909 808.782 138.306L814.404 152.46C814.809 153.493 815.742 153.737 816.469 153.011C817.195 152.284 817.654 150.792 817.478 149.698L815.26 135.338L844.164 108.531L861.381 149.591C861.794 150.585 862.758 150.769 863.515 150.012L866.781 146.745C867.546 145.987 867.982 144.503 867.76 143.447L865.641 133.479C865.894 133.387 866.138 133.242 866.345 133.035L868.165 131.207C868.923 130.449 868.93 129.21 868.165 128.445L867.615 127.894C866.85 127.129 865.611 127.129 864.846 127.894L864.525 128.215L862.651 119.433C862.911 119.341 863.156 119.195 863.354 118.989L865.129 117.222C865.886 116.457 865.886 115.217 865.129 114.452L864.578 113.901C863.813 113.136 862.567 113.136 861.809 113.901L861.534 114.177L857.672 95.9993L868.265 86.1761C871.515 83.1389 876.778 74.096 874.475 71.5101Z" fill="#42210B"/>
</g>
</g>
</g>
</g>
<g filter="url(#filter14_d_434_293)">
<path d="M195.882 139.67C195.064 139.265 194.169 139.593 193.756 140.328C192.861 142.042 191.714 144.253 190.329 147.03C183.3 161.084 170.061 187.156 157.074 209.549C149.884 221.974 143.75 231.537 138.687 238.078C130.923 248.207 127.902 248.452 127.084 248.291C126.51 248.131 124.636 246.983 124.797 237.994C125.042 222.142 135.91 178.083 140.568 159.209C141.302 156.348 141.876 153.976 142.281 152.263C144.163 144.253 143.834 139.593 141.058 137.796C139.589 136.893 136.805 136.487 132.147 140.167C123.818 146.617 110.746 165.582 114.586 176.943C115.726 180.378 119.076 184.54 128.231 184.708C129.126 184.708 129.86 184.05 129.86 183.155C129.86 182.252 129.126 181.602 128.308 181.518C122.426 181.434 118.747 179.56 117.523 175.964C114.586 166.974 125.37 149.401 134.113 142.615C136.973 140.412 138.771 140.083 139.421 140.489C139.589 140.573 141.463 142.126 139.26 151.521C138.847 153.242 138.281 155.614 137.547 158.475C132.476 178.986 121.852 221.729 121.607 237.994C121.607 243.143 122.02 250.25 126.349 251.313C126.755 251.397 127.084 251.482 127.497 251.482C131.902 251.482 139.91 245.43 159.85 211.102C172.845 188.709 186.077 162.56 193.19 148.422C194.574 145.722 195.722 143.434 196.54 141.797C196.945 140.978 196.617 140.083 195.882 139.67Z" fill="#42210B"/>
</g>
<g filter="url(#filter15_d_434_293)">
<path d="M203.065 200.889C202.331 200.399 201.436 200.644 200.946 201.379C195.47 210.207 186.315 218.539 183.538 217.399C183.209 217.238 180.601 215.685 184.196 201.868C184.357 200.973 183.867 200.155 183.049 199.91C182.154 199.741 181.336 200.239 181.091 201.05C178.146 212.579 178.559 218.707 182.23 220.26C182.804 220.505 183.378 220.589 183.951 220.589C190.078 220.589 199.47 209.633 203.639 203.016C204.052 202.281 203.807 201.294 203.065 200.889ZM183.783 194.271C187.952 194.516 187.867 189.283 184.517 190.431C182.804 190.92 180.601 194.103 183.783 194.271Z" fill="#42210B"/>
</g>
<g filter="url(#filter16_d_434_293)">
<path d="M240.899 201.623C240.241 201.05 239.262 201.134 238.689 201.784C235.339 205.709 230.849 207.675 227.17 206.688C224.149 205.877 221.938 202.932 221.128 198.517C220.959 197.783 220.225 197.293 219.491 197.293C218.757 197.293 218.099 197.867 218.022 198.602C216.301 210.858 206.58 225.493 201.922 227.046C201.348 227.207 201.188 227.122 201.188 227.046C200.782 226.717 197.998 222.876 206.664 197.133C206.909 196.314 206.496 195.411 205.678 195.166C204.867 194.838 203.964 195.335 203.635 196.146C194.159 224.506 197.754 228.102 198.901 229.249C199.39 229.655 200.209 230.313 201.433 230.313C201.838 230.313 202.327 230.229 202.901 229.984C205.93 229.004 210.014 224.674 213.686 218.539C216.47 213.964 218.588 209.06 219.896 204.485C221.449 207.185 223.659 208.983 226.352 209.718C231.178 210.942 236.891 208.654 241.06 203.834C241.633 203.177 241.549 202.197 240.899 201.623Z" fill="#42210B"/>
</g>
<g filter="url(#filter17_d_434_293)">
<path d="M266.062 201.218C265.327 200.728 264.341 200.889 263.851 201.623C257.725 210.207 252.746 215.601 247.843 219.112C245.388 220.834 243.017 221.155 241.464 220.015C240.485 219.281 237.464 216.006 240.974 204.569C248.898 198.028 253.235 191.816 252.088 188.549C251.682 187.569 250.696 186.912 249.64 186.912C246.367 186.996 241.387 192.634 238.114 203.176C234.114 216.175 237.38 220.91 239.667 222.547C240.814 223.443 242.122 223.856 243.59 223.856C245.472 223.856 247.59 223.121 249.64 221.645C254.864 217.888 260.012 212.334 266.391 203.421C266.88 202.687 266.712 201.708 266.062 201.218ZM248.982 190.347C248.654 191.655 247.269 194.271 243.43 198.188C245.548 193.453 247.843 191.165 248.982 190.347Z" fill="#42210B"/>
</g>
<g filter="url(#filter18_d_434_293)">
<path d="M295.069 201.218C294.327 200.805 293.348 201.05 292.943 201.868C290.977 205.219 285.829 214.293 282.892 213.964C282.319 213.887 280.682 213.069 279.053 207.346C277.906 203.337 276.353 199.581 273.332 199.42C271.121 199.252 268.674 200.973 264.918 207.996C265.897 204.485 266.961 200.973 267.771 198.112C268.1 197.049 268.345 196.146 268.59 195.251C268.834 194.432 268.345 193.537 267.527 193.285C266.716 193.04 265.813 193.537 265.569 194.432C265.324 195.251 265.079 196.23 264.75 197.209C262.624 204.485 259.442 215.517 258.624 222.219C258.54 222.953 259.029 223.695 259.771 223.856C259.932 223.94 260.016 223.94 260.176 223.94C260.826 223.94 261.4 223.527 261.645 222.953C269.324 203.835 272.429 202.526 273.171 202.526C273.332 202.526 274.471 202.848 276.024 208.241C277.661 213.887 279.787 216.741 282.564 217.07C286.732 217.559 290.487 212.411 295.635 203.421C296.124 202.603 295.803 201.708 295.069 201.218Z" fill="#42210B"/>
</g>
<g filter="url(#filter19_d_434_293)">
<path d="M326.279 151.199C325.705 150.71 324.971 150.541 324.236 150.71C320.718 151.849 314.431 168.933 308.381 197.048C308.22 197.538 307.976 197.944 307.731 198.433C307.318 195.251 305.192 194.348 304.457 194.103C300.947 193.04 295.386 196.23 291.547 204.4C288.61 210.536 288.036 218.539 291.715 220.665C293.512 221.729 296.618 221.568 301.107 215.027C303.073 212.25 304.786 209.549 306.423 206.94C305.521 211.592 304.626 216.496 303.807 221.645C302.255 230.802 301.107 238.483 300.457 244.045C299.149 254.909 299.799 256.385 301.436 256.875C301.597 256.952 301.842 256.952 302.01 256.952C303.478 256.952 304.457 255.077 304.947 253.853C305.36 253.111 305.031 252.132 304.213 251.803C303.807 251.558 303.318 251.558 302.905 251.726C303.073 248.207 303.884 240.197 306.913 222.218C308.381 213.229 309.934 205.219 311.402 198.188C317.536 186.583 320.634 176.775 323.173 169.017C323.495 168.03 323.823 167.135 324.068 166.316C328.397 153.318 326.768 151.773 326.279 151.199ZM298.492 213.229C295.386 217.728 293.673 218.133 293.268 217.972C292.036 217.238 291.631 211.592 294.407 205.709C297.184 199.826 300.947 197.048 302.989 197.048C303.234 197.048 303.394 197.048 303.562 197.133C304.87 197.454 304.626 199.826 304.542 200.483C304.457 201.218 304.87 201.952 305.605 202.197C303.562 205.709 301.191 209.389 298.492 213.229ZM321.131 165.337C320.802 166.156 320.473 167.051 320.229 168.03C318.76 172.445 317.123 177.433 314.921 183.071C318.347 169.507 321.452 161.007 323.418 156.753C323.089 158.72 322.355 161.497 321.131 165.337Z" fill="#42210B"/>
</g>
<g filter="url(#filter20_d_434_293)">
<path d="M346.536 201.708C345.801 201.134 344.822 201.294 344.333 201.952C340.899 206.367 335.262 210.039 330.933 209.228C331.009 208.654 331.093 208.08 331.093 207.507C331.667 198.273 328.806 196.39 327.093 196.069C325.127 195.656 323.085 197.133 322.106 199.581C321.701 199.42 321.211 199.42 320.798 199.741C317.532 201.784 314.832 207.017 316.309 212.655C317.288 216.006 319.574 218.133 322.596 218.133C325.456 218.133 328.477 216.006 330.03 212.25C335.751 213.474 342.612 209.228 346.78 203.911C347.354 203.176 347.193 202.197 346.536 201.708ZM322.68 215.027C322.596 215.027 322.596 215.027 322.596 215.027C320.553 214.943 319.659 212.984 319.406 211.837C318.595 209.06 319.246 205.219 321.532 203.092C321.701 205.877 323.253 208.899 327.169 211.026C326.03 213.642 324.064 215.027 322.68 215.027ZM327.988 207.346C327.911 207.507 327.911 207.675 327.911 207.836C324.806 205.793 324.309 203.176 324.883 201.134C325.296 199.826 326.106 199.175 326.519 199.175C326.925 199.252 328.317 200.805 327.988 207.346Z" fill="#42210B"/>
</g>
<g filter="url(#filter21_d_434_293)">
<path d="M401.037 201.218C400.295 200.805 399.316 201.05 398.91 201.868C396.945 205.219 391.797 214.293 388.86 213.964C388.287 213.887 386.65 213.069 385.021 207.346C383.873 203.337 382.321 199.581 379.3 199.42C377.089 199.252 374.642 200.973 370.886 207.996C371.865 204.485 372.928 200.973 373.739 198.112C374.068 197.049 374.313 196.146 374.557 195.251C374.802 194.432 374.313 193.537 373.494 193.285C372.684 193.04 371.781 193.537 371.536 194.432C371.292 195.251 371.047 196.23 370.718 197.209C368.592 204.485 365.41 215.517 364.591 222.219C364.507 222.953 364.997 223.695 365.739 223.856C365.899 223.94 365.983 223.94 366.144 223.94C366.794 223.94 367.368 223.527 367.613 222.953C375.292 203.835 378.397 202.526 379.139 202.526C379.3 202.526 380.439 202.848 381.992 208.241C383.629 213.887 385.755 216.741 388.531 217.07C392.7 217.559 396.455 212.411 401.603 203.421C402.092 202.603 401.771 201.708 401.037 201.218Z" fill="#42210B"/>
</g>
<g filter="url(#filter22_d_434_293)">
<path d="M431.505 201.294C430.77 200.973 429.791 201.294 429.463 202.037C423.252 214.698 418.602 218.707 416.391 218.294C415.496 218.133 412.552 216.419 411.817 202.113C411.817 201.463 411.328 200.889 410.754 200.728C410.104 200.56 409.362 200.728 409.041 201.294C408.551 201.868 408.054 202.526 407.565 203.261C405.523 206.038 402.83 209.794 399.557 213.313C399.067 213.887 398.662 214.208 398.417 214.377C397.844 211.515 400.865 200.56 405.691 197.133C407.075 196.146 408.957 195.411 411.489 198.357C412.062 199.007 413.041 199.091 413.699 198.517C414.349 198.028 414.433 196.964 413.944 196.314C410.838 192.718 407.894 192.795 405.936 193.453C399.641 195.656 395.396 207.751 395.228 213.313C395.151 215.601 395.801 217.07 397.109 217.559C399.151 218.378 401.194 216.175 401.851 215.44C404.628 212.411 407.159 209.144 408.957 206.612C409.852 215.93 412.062 220.589 415.741 221.4C416.062 221.4 416.391 221.484 416.72 221.484C422.273 221.484 428.239 211.76 432.247 203.421C432.652 202.603 432.323 201.708 431.505 201.294Z" fill="#42210B"/>
</g>
<g filter="url(#filter23_d_434_293)">
<path d="M540.26 140.573C528 140.733 509.375 143.434 493.359 147.274C493.52 146.617 493.681 145.882 493.849 145.316C494.009 144.413 493.436 143.595 492.625 143.434C491.723 143.189 490.904 143.763 490.744 144.574C490.499 145.721 490.254 146.869 489.925 148.17C476.441 151.605 460.998 156.998 458.956 163.868C458.306 165.827 458.551 168.772 462.796 171.71C463.125 171.955 463.369 172.039 463.698 172.039C464.188 172.039 464.677 171.794 465.006 171.305C465.496 170.647 465.327 169.667 464.593 169.178C461.327 166.89 461.733 165.337 461.901 164.763C463.285 160.273 474.728 155.529 489.107 151.605C487.554 158.146 485.512 165.988 483.386 174.082C481.428 181.434 479.47 189.123 477.588 196.635C466.964 199.497 457.977 202.526 455.851 204.569C455.277 205.135 455.201 206.122 455.851 206.772C456.096 207.101 456.585 207.262 456.998 207.262C457.327 207.262 457.732 207.101 458.061 206.772C459.201 205.709 465.412 203.261 476.686 200.154C472.525 217.07 469.091 233.006 468.93 242.569C468.846 247.802 470.154 250.908 472.846 252.055C473.58 252.377 474.322 252.461 475.133 252.461C481.917 252.461 492.625 242.569 504.794 230.718C505.696 229.823 506.591 229.004 507.333 228.27L508.718 226.878C509.047 226.633 509.375 226.227 509.781 225.898C509.865 226.059 509.941 226.143 510.026 226.227C510.76 226.717 511.739 226.549 512.236 225.898C515.418 221.645 516.642 220.015 515.257 218.791C514.033 217.643 512.557 218.952 511.005 220.421C509.781 221.568 508.228 223.037 506.515 224.674L505.207 225.982C504.389 226.793 503.486 227.612 502.591 228.431C494.423 236.441 479.225 251.397 474.077 249.194C472.356 248.452 472.028 245.185 472.112 242.653C472.28 233.09 475.875 216.419 480.204 199.175C482.078 198.686 484.043 198.112 486.17 197.622C500.304 194.026 513.46 191.487 516.726 191.655C517.628 191.731 518.362 191.081 518.362 190.186C518.439 189.283 517.789 188.549 516.886 188.549C512.97 188.304 496.136 191.731 481.022 195.656C482.82 188.633 484.694 181.518 486.415 174.9C488.701 166.072 490.904 157.656 492.541 150.786C508.633 146.701 527.594 143.924 540.337 143.763C541.155 143.763 541.889 143.021 541.889 142.126C541.889 141.307 541.155 140.657 540.26 140.573Z" fill="#42210B"/>
</g>
<g filter="url(#filter24_d_434_293)">
<path d="M554.635 201.784C553.9 201.379 552.914 201.623 552.508 202.358C544.745 214.782 538.213 220.344 536.821 219.847C536.821 219.847 535.184 218.952 536.737 209.549C537.311 206.367 537.555 204.569 536.003 203.911C534.534 203.337 533.632 204.569 531.918 207.017C530.526 208.983 528.653 211.592 526.61 213.39C526.366 213.558 525.463 214.377 525.058 214.048C523.826 213.068 523.582 207.751 526.442 202.847C526.932 202.113 526.61 201.134 525.869 200.644C525.134 200.239 524.155 200.483 523.75 201.218C520.476 206.94 520.155 214.048 523.016 216.419C523.75 217.07 525.792 218.217 528.653 215.846C530.526 214.208 532.163 212.089 533.471 210.291C532.324 217.888 532.982 221.729 535.674 222.792C536.087 222.953 536.492 222.953 536.821 222.953C543.032 222.953 553.082 207.262 555.124 203.995C555.614 203.261 555.369 202.281 554.635 201.784Z" fill="#42210B"/>
</g>
<g filter="url(#filter25_d_434_293)">
<path d="M587.234 200.973C586.415 200.56 585.436 200.889 585.107 201.708C575.715 221.484 566.804 231.621 564.846 231.292C564.678 231.208 561.818 228.431 571.057 200.07C571.302 199.336 571.868 197.622 570.56 196.719C569.336 195.74 567.952 196.635 565.665 198.188C563.21 199.741 559.859 201.952 557.244 201.623C565.581 187.241 564.762 184.05 562.881 182.826C559.944 181.113 555.691 186.093 553.733 188.954C549.725 195.166 549.809 200.805 554.062 203.666C558.391 206.688 564.028 203.016 567.378 200.805C567.462 200.728 567.462 200.728 567.539 200.644C564.357 210.697 562.315 218.623 561.573 224.1C560.678 230.144 561.328 233.335 563.615 234.237C564.028 234.314 564.357 234.398 564.762 234.398C571.302 234.398 582.66 214.293 587.968 203.092C588.297 202.281 587.968 201.294 587.234 200.973ZM554.223 195.335C555.362 190.92 559.209 186.827 560.923 185.848C560.762 187.156 559.859 190.836 554.628 199.91C554.062 199.007 553.649 197.622 554.223 195.335Z" fill="#42210B"/>
</g>
<g filter="url(#filter26_d_434_293)">
<path d="M613.538 201.708C612.804 201.134 611.825 201.294 611.336 201.952C607.901 206.367 602.265 210.039 597.935 209.228C598.012 208.654 598.096 208.08 598.096 207.507C598.67 198.273 595.809 196.39 594.096 196.069C592.13 195.656 590.088 197.133 589.109 199.581C588.704 199.42 588.214 199.42 587.801 199.741C584.535 201.784 581.835 207.017 583.311 212.655C584.29 216.006 586.577 218.133 589.599 218.133C592.459 218.133 595.48 216.006 597.033 212.25C602.754 213.474 609.615 209.228 613.783 203.911C614.357 203.176 614.196 202.197 613.538 201.708ZM589.683 215.027C589.599 215.027 589.599 215.027 589.599 215.027C587.556 214.943 586.662 212.984 586.409 211.837C585.598 209.06 586.248 205.219 588.535 203.092C588.704 205.877 590.256 208.899 594.172 211.026C593.033 213.642 591.067 215.027 589.683 215.027ZM594.991 207.346C594.914 207.507 594.914 207.675 594.914 207.836C591.809 205.793 591.312 203.176 591.885 201.134C592.298 199.826 593.109 199.175 593.522 199.175C593.928 199.252 595.32 200.805 594.991 207.346Z" fill="#42210B"/>
</g>
<g filter="url(#filter27_d_434_293)">
<path d="M627.591 189.123C625.465 188.465 619.912 188.878 614.107 205.793C617.38 187.325 617.954 184.05 617.87 183.477C617.87 182.666 617.135 181.931 616.233 182.008C615.414 182.092 614.764 182.742 614.764 183.561C614.68 184.708 612.638 195.74 610.435 208.486C609.946 211.271 609.372 214.132 608.883 217.07C607.735 217.483 606.596 217.888 605.448 218.217C604.63 218.462 604.14 219.281 604.385 220.176C604.63 220.994 605.448 221.484 606.267 221.239C606.917 221.079 607.575 220.834 608.225 220.665C604.714 240.61 600.706 263.409 598.832 275.917C598.748 276.736 599.322 277.554 600.14 277.631C600.217 277.631 600.301 277.715 600.385 277.715C601.119 277.715 601.854 277.141 601.938 276.407C603.98 264.311 609.617 235.622 613.862 218.217C616.401 216.909 618.764 215.44 620.975 213.719C624.486 210.858 628.983 206.283 630.536 200.315C632.088 194.837 630.78 190.102 627.591 189.123ZM627.507 199.497C625.954 205.303 620.807 210.452 614.925 214.048C615.659 211.271 616.317 208.899 616.891 207.185C621.136 194.677 625.059 192.144 626.451 192.144C626.528 192.144 626.612 192.144 626.696 192.144C627.759 192.473 628.654 195.335 627.507 199.497Z" fill="#42210B"/>
</g>
<g filter="url(#filter28_d_434_293)">
<path d="M668.931 201.294C668.196 200.973 667.217 201.294 666.888 202.037C660.678 214.698 656.027 218.707 653.817 218.294C652.922 218.133 649.977 216.419 649.243 202.113C649.243 201.463 648.754 200.889 648.18 200.728C647.53 200.56 646.788 200.728 646.467 201.294C645.977 201.868 645.48 202.526 644.991 203.261C642.948 206.038 640.256 209.794 636.983 213.313C636.493 213.887 636.088 214.208 635.843 214.377C635.269 211.515 638.29 200.56 643.117 197.133C644.501 196.146 646.383 195.411 648.914 198.357C649.488 199.007 650.467 199.091 651.125 198.517C651.775 198.028 651.859 196.964 651.369 196.314C648.264 192.718 645.319 192.795 643.361 193.453C637.067 195.656 632.822 207.751 632.654 213.313C632.577 215.601 633.227 217.07 634.535 217.559C636.577 218.378 638.619 216.175 639.277 215.44C642.054 212.411 644.585 209.144 646.383 206.612C647.278 215.93 649.488 220.589 653.167 221.4C653.488 221.4 653.817 221.484 654.146 221.484C659.699 221.484 665.665 211.76 669.672 203.421C670.078 202.603 669.749 201.708 668.931 201.294Z" fill="#42210B"/>
</g>
<defs>
<filter id="filter0_d_434_293" x="0.548828" y="0.722229" width="689.412" height="134.176" filterUnits="userSpaceOnUse" color-interpolation-filters="sRGB">
<feFlood flood-opacity="0" result="BackgroundImageFix"/>
<feColorMatrix in="SourceAlpha" type="matrix" values="0 0 0 0 0 0 0 0 0 0 0 0 0 0 0 0 0 0 127 0" result="hardAlpha"/>
<feOffset dy="5"/>
<feGaussianBlur stdDeviation="2"/>
<feComposite in2="hardAlpha" operator="out"/>
<feColorMatrix type="matrix" values="0 0 0 0 0 0 0 0 0 0 0 0 0 0 0 0 0 0 0.3 0"/>
<feBlend mode="normal" in2="BackgroundImageFix" result="effect1_dropShadow_434_293"/>
<feBlend mode="normal" in="SourceGraphic" in2="effect1_dropShadow_434_293" result="shape"/>
</filter>
<filter id="filter1_d_434_293" x="6.01367" y="5" width="97.5186" height="125.073" filterUnits="userSpaceOnUse" color-interpolation-filters="sRGB">
<feFlood flood-opacity="0" result="BackgroundImageFix"/>
<feColorMatrix in="SourceAlpha" type="matrix" values="0 0 0 0 0 0 0 0 0 0 0 0 0 0 0 0 0 0 127 0" result="hardAlpha"/>
<feOffset dy="5"/>
<feGaussianBlur stdDeviation="2"/>
<feComposite in2="hardAlpha" operator="out"/>
<feColorMatrix type="matrix" values="0 0 0 0 0 0 0 0 0 0 0 0 0 0 0 0 0 0 0.3 0"/>
<feBlend mode="normal" in2="BackgroundImageFix" result="effect1_dropShadow_434_293"/>
<feBlend mode="normal" in="SourceGraphic" in2="effect1_dropShadow_434_293" result="shape"/>
</filter>
<filter id="filter2_d_434_293" x="129.428" y="5.21423" width="94.4893" height="124.859" filterUnits="userSpaceOnUse" color-interpolation-filters="sRGB">
<feFlood flood-opacity="0" result="BackgroundImageFix"/>
<feColorMatrix in="SourceAlpha" type="matrix" values="0 0 0 0 0 0 0 0 0 0 0 0 0 0 0 0 0 0 127 0" result="hardAlpha"/>
<feOffset dy="5"/>
<feGaussianBlur stdDeviation="2"/>
<feComposite in2="hardAlpha" operator="out"/>
<feColorMatrix type="matrix" values="0 0 0 0 0 0 0 0 0 0 0 0 0 0 0 0 0 0 0.3 0"/>
<feBlend mode="normal" in2="BackgroundImageFix" result="effect1_dropShadow_434_293"/>
<feBlend mode="normal" in="SourceGraphic" in2="effect1_dropShadow_434_293" result="shape"/>
</filter>
<filter id="filter3_d_434_293" x="191.169" y="46.1901" width="65.915" height="78.1602" filterUnits="userSpaceOnUse" color-interpolation-filters="sRGB">
<feFlood flood-opacity="0" result="BackgroundImageFix"/>
<feColorMatrix in="SourceAlpha" type="matrix" values="0 0 0 0 0 0 0 0 0 0 0 0 0 0 0 0 0 0 127 0" result="hardAlpha"/>
<feOffset dy="5"/>
<feGaussianBlur stdDeviation="2"/>
<feComposite in2="hardAlpha" operator="out"/>
<feColorMatrix type="matrix" values="0 0 0 0 0 0 0 0 0 0 0 0 0 0 0 0 0 0 0.3 0"/>
<feBlend mode="normal" in2="BackgroundImageFix" result="effect1_dropShadow_434_293"/>
<feBlend mode="normal" in="SourceGraphic" in2="effect1_dropShadow_434_293" result="shape"/>
</filter>
<filter id="filter4_d_434_293" x="256.696" y="40.4676" width="64.2012" height="86.1779" filterUnits="userSpaceOnUse" color-interpolation-filters="sRGB">
<feFlood flood-opacity="0" result="BackgroundImageFix"/>
<feColorMatrix in="SourceAlpha" type="matrix" values="0 0 0 0 0 0 0 0 0 0 0 0 0 0 0 0 0 0 127 0" result="hardAlpha"/>
<feOffset dy="5"/>
<feGaussianBlur stdDeviation="2"/>
<feComposite in2="hardAlpha" operator="out"/>
<feColorMatrix type="matrix" values="0 0 0 0 0 0 0 0 0 0 0 0 0 0 0 0 0 0 0.3 0"/>
<feBlend mode="normal" in2="BackgroundImageFix" result="effect1_dropShadow_434_293"/>
<feBlend mode="normal" in="SourceGraphic" in2="effect1_dropShadow_434_293" result="shape"/>
</filter>
<filter id="filter5_d_434_293" x="318.979" y="27.676" width="28.376" height="97.4394" filterUnits="userSpaceOnUse" color-interpolation-filters="sRGB">
<feFlood flood-opacity="0" result="BackgroundImageFix"/>
<feColorMatrix in="SourceAlpha" type="matrix" values="0 0 0 0 0 0 0 0 0 0 0 0 0 0 0 0 0 0 127 0" result="hardAlpha"/>
<feOffset dy="5"/>
<feGaussianBlur stdDeviation="2"/>
<feComposite in2="hardAlpha" operator="out"/>
<feColorMatrix type="matrix" values="0 0 0 0 0 0 0 0 0 0 0 0 0 0 0 0 0 0 0.3 0"/>
<feBlend mode="normal" in2="BackgroundImageFix" result="effect1_dropShadow_434_293"/>
<feBlend mode="normal" in="SourceGraphic" in2="effect1_dropShadow_434_293" result="shape"/>
</filter>
<filter id="filter6_d_434_293" x="343.179" y="41.4163" width="65.915" height="85.9943" filterUnits="userSpaceOnUse" color-interpolation-filters="sRGB">
<feFlood flood-opacity="0" result="BackgroundImageFix"/>
<feColorMatrix in="SourceAlpha" type="matrix" values="0 0 0 0 0 0 0 0 0 0 0 0 0 0 0 0 0 0 127 0" result="hardAlpha"/>
<feOffset dy="5"/>
<feGaussianBlur stdDeviation="2"/>
<feComposite in2="hardAlpha" operator="out"/>
<feColorMatrix type="matrix" values="0 0 0 0 0 0 0 0 0 0 0 0 0 0 0 0 0 0 0.3 0"/>
<feBlend mode="normal" in2="BackgroundImageFix" result="effect1_dropShadow_434_293"/>
<feBlend mode="normal" in="SourceGraphic" in2="effect1_dropShadow_434_293" result="shape"/>
</filter>
<filter id="filter7_d_434_293" x="404.897" y="10.3553" width="62.6719" height="114.576" filterUnits="userSpaceOnUse" color-interpolation-filters="sRGB">
<feFlood flood-opacity="0" result="BackgroundImageFix"/>
<feColorMatrix in="SourceAlpha" type="matrix" values="0 0 0 0 0 0 0 0 0 0 0 0 0 0 0 0 0 0 127 0" result="hardAlpha"/>
<feOffset dy="5"/>
<feGaussianBlur stdDeviation="2"/>
<feComposite in2="hardAlpha" operator="out"/>
<feColorMatrix type="matrix" values="0 0 0 0 0 0 0 0 0 0 0 0 0 0 0 0 0 0 0.3 0"/>
<feBlend mode="normal" in2="BackgroundImageFix" result="effect1_dropShadow_434_293"/>
<feBlend mode="normal" in="SourceGraphic" in2="effect1_dropShadow_434_293" result="shape"/>
</filter>
<filter id="filter8_d_434_293" x="467.18" y="27.676" width="28.376" height="97.4394" filterUnits="userSpaceOnUse" color-interpolation-filters="sRGB">
<feFlood flood-opacity="0" result="BackgroundImageFix"/>
<feColorMatrix in="SourceAlpha" type="matrix" values="0 0 0 0 0 0 0 0 0 0 0 0 0 0 0 0 0 0 127 0" result="hardAlpha"/>
<feOffset dy="5"/>
<feGaussianBlur stdDeviation="2"/>
<feComposite in2="hardAlpha" operator="out"/>
<feColorMatrix type="matrix" values="0 0 0 0 0 0 0 0 0 0 0 0 0 0 0 0 0 0 0.3 0"/>
<feBlend mode="normal" in2="BackgroundImageFix" result="effect1_dropShadow_434_293"/>
<feBlend mode="normal" in="SourceGraphic" in2="effect1_dropShadow_434_293" result="shape"/>
</filter>
<filter id="filter9_d_434_293" x="491.379" y="43.3135" width="65.5166" height="84.6478" filterUnits="userSpaceOnUse" color-interpolation-filters="sRGB">
<feFlood flood-opacity="0" result="BackgroundImageFix"/>
<feColorMatrix in="SourceAlpha" type="matrix" values="0 0 0 0 0 0 0 0 0 0 0 0 0 0 0 0 0 0 127 0" result="hardAlpha"/>
<feOffset dy="5"/>
<feGaussianBlur stdDeviation="2"/>
<feComposite in2="hardAlpha" operator="out"/>
<feColorMatrix type="matrix" values="0 0 0 0 0 0 0 0 0 0 0 0 0 0 0 0 0 0 0.3 0"/>
<feBlend mode="normal" in2="BackgroundImageFix" result="effect1_dropShadow_434_293"/>
<feBlend mode="normal" in="SourceGraphic" in2="effect1_dropShadow_434_293" result="shape"/>
</filter>
<filter id="filter10_d_434_293" x="556.71" y="9.59027" width="62.0908" height="117.422" filterUnits="userSpaceOnUse" color-interpolation-filters="sRGB">
<feFlood flood-opacity="0" result="BackgroundImageFix"/>
<feColorMatrix in="SourceAlpha" type="matrix" values="0 0 0 0 0 0 0 0 0 0 0 0 0 0 0 0 0 0 127 0" result="hardAlpha"/>
<feOffset dy="5"/>
<feGaussianBlur stdDeviation="2"/>
<feComposite in2="hardAlpha" operator="out"/>
<feColorMatrix type="matrix" values="0 0 0 0 0 0 0 0 0 0 0 0 0 0 0 0 0 0 0.3 0"/>
<feBlend mode="normal" in2="BackgroundImageFix" result="effect1_dropShadow_434_293"/>
<feBlend mode="normal" in="SourceGraphic" in2="effect1_dropShadow_434_293" result="shape"/>
</filter>
<filter id="filter11_d_434_293" x="618.435" y="44.2623" width="65.915" height="81.9854" filterUnits="userSpaceOnUse" color-interpolation-filters="sRGB">
<feFlood flood-opacity="0" result="BackgroundImageFix"/>
<feColorMatrix in="SourceAlpha" type="matrix" values="0 0 0 0 0 0 0 0 0 0 0 0 0 0 0 0 0 0 127 0" result="hardAlpha"/>
<feOffset dy="5"/>
<feGaussianBlur stdDeviation="2"/>
<feComposite in2="hardAlpha" operator="out"/>
<feColorMatrix type="matrix" values="0 0 0 0 0 0 0 0 0 0 0 0 0 0 0 0 0 0 0.3 0"/>
<feBlend mode="normal" in2="BackgroundImageFix" result="effect1_dropShadow_434_293"/>
<feBlend mode="normal" in="SourceGraphic" in2="effect1_dropShadow_434_293" result="shape"/>
</filter>
<filter id="filter12_d_434_293" x="638.894" y="111.033" width="172.911" height="117.156" filterUnits="userSpaceOnUse" color-interpolation-filters="sRGB">
<feFlood flood-opacity="0" result="BackgroundImageFix"/>
<feColorMatrix in="SourceAlpha" type="matrix" values="0 0 0 0 0 0 0 0 0 0 0 0 0 0 0 0 0 0 127 0" result="hardAlpha"/>
<feOffset dy="4"/>
<feGaussianBlur stdDeviation="2"/>
<feComposite in2="hardAlpha" operator="out"/>
<feColorMatrix type="matrix" values="0 0 0 0 0 0 0 0 0 0 0 0 0 0 0 0 0 0 0.25 0"/>
<feBlend mode="normal" in2="BackgroundImageFix" result="effect1_dropShadow_434_293"/>
<feBlend mode="normal" in="SourceGraphic" in2="effect1_dropShadow_434_293" result="shape"/>
</filter>
<filter id="filter13_d_434_293" x="788.218" y="70.7777" width="90.8232" height="90.6507" filterUnits="userSpaceOnUse" color-interpolation-filters="sRGB">
<feFlood flood-opacity="0" result="BackgroundImageFix"/>
<feColorMatrix in="SourceAlpha" type="matrix" values="0 0 0 0 0 0 0 0 0 0 0 0 0 0 0 0 0 0 127 0" result="hardAlpha"/>
<feOffset dy="4"/>
<feGaussianBlur stdDeviation="2"/>
<feComposite in2="hardAlpha" operator="out"/>
<feColorMatrix type="matrix" values="0 0 0 0 0 0 0 0 0 0 0 0 0 0 0 0 0 0 0.3 0"/>
<feBlend mode="normal" in2="BackgroundImageFix" result="effect1_dropShadow_434_293"/>
<feBlend mode="normal" in="SourceGraphic" in2="effect1_dropShadow_434_293" result="shape"/>
</filter>
<filter id="filter14_d_434_293" x="109.896" y="137.179" width="90.8193" height="122.303" filterUnits="userSpaceOnUse" color-interpolation-filters="sRGB">
<feFlood flood-opacity="0" result="BackgroundImageFix"/>
<feColorMatrix in="SourceAlpha" type="matrix" values="0 0 0 0 0 0 0 0 0 0 0 0 0 0 0 0 0 0 127 0" result="hardAlpha"/>
<feOffset dy="4"/>
<feGaussianBlur stdDeviation="2"/>
<feComposite in2="hardAlpha" operator="out"/>
<feColorMatrix type="matrix" values="0 0 0 0 0 0 0 0 0 0 0 0 0 0 0 0 0 0 0.25 0"/>
<feBlend mode="normal" in2="BackgroundImageFix" result="effect1_dropShadow_434_293"/>
<feBlend mode="normal" in="SourceGraphic" in2="effect1_dropShadow_434_293" result="shape"/>
</filter>
<filter id="filter15_d_434_293" x="175.146" y="190.266" width="32.6934" height="38.3228" filterUnits="userSpaceOnUse" color-interpolation-filters="sRGB">
<feFlood flood-opacity="0" result="BackgroundImageFix"/>
<feColorMatrix in="SourceAlpha" type="matrix" values="0 0 0 0 0 0 0 0 0 0 0 0 0 0 0 0 0 0 127 0" result="hardAlpha"/>
<feOffset dy="4"/>
<feGaussianBlur stdDeviation="2"/>
<feComposite in2="hardAlpha" operator="out"/>
<feColorMatrix type="matrix" values="0 0 0 0 0 0 0 0 0 0 0 0 0 0 0 0 0 0 0.25 0"/>
<feBlend mode="normal" in2="BackgroundImageFix" result="effect1_dropShadow_434_293"/>
<feBlend mode="normal" in="SourceGraphic" in2="effect1_dropShadow_434_293" result="shape"/>
</filter>
<filter id="filter16_d_434_293" x="193.272" y="195.064" width="52.1699" height="43.2489" filterUnits="userSpaceOnUse" color-interpolation-filters="sRGB">
<feFlood flood-opacity="0" result="BackgroundImageFix"/>
<feColorMatrix in="SourceAlpha" type="matrix" values="0 0 0 0 0 0 0 0 0 0 0 0 0 0 0 0 0 0 127 0" result="hardAlpha"/>
<feOffset dy="4"/>
<feGaussianBlur stdDeviation="2"/>
<feComposite in2="hardAlpha" operator="out"/>
<feColorMatrix type="matrix" values="0 0 0 0 0 0 0 0 0 0 0 0 0 0 0 0 0 0 0.25 0"/>
<feBlend mode="normal" in2="BackgroundImageFix" result="effect1_dropShadow_434_293"/>
<feBlend mode="normal" in="SourceGraphic" in2="effect1_dropShadow_434_293" result="shape"/>
</filter>
<filter id="filter17_d_434_293" x="232.229" y="186.912" width="38.4443" height="44.9441" filterUnits="userSpaceOnUse" color-interpolation-filters="sRGB">
<feFlood flood-opacity="0" result="BackgroundImageFix"/>
<feColorMatrix in="SourceAlpha" type="matrix" values="0 0 0 0 0 0 0 0 0 0 0 0 0 0 0 0 0 0 127 0" result="hardAlpha"/>
<feOffset dy="4"/>
<feGaussianBlur stdDeviation="2"/>
<feComposite in2="hardAlpha" operator="out"/>
<feColorMatrix type="matrix" values="0 0 0 0 0 0 0 0 0 0 0 0 0 0 0 0 0 0 0.25 0"/>
<feBlend mode="normal" in2="BackgroundImageFix" result="effect1_dropShadow_434_293"/>
<feBlend mode="normal" in="SourceGraphic" in2="effect1_dropShadow_434_293" result="shape"/>
</filter>
<filter id="filter18_d_434_293" x="254.614" y="193.222" width="45.2549" height="38.7176" filterUnits="userSpaceOnUse" color-interpolation-filters="sRGB">
<feFlood flood-opacity="0" result="BackgroundImageFix"/>
<feColorMatrix in="SourceAlpha" type="matrix" values="0 0 0 0 0 0 0 0 0 0 0 0 0 0 0 0 0 0 127 0" result="hardAlpha"/>
<feOffset dy="4"/>
<feGaussianBlur stdDeviation="2"/>
<feComposite in2="hardAlpha" operator="out"/>
<feColorMatrix type="matrix" values="0 0 0 0 0 0 0 0 0 0 0 0 0 0 0 0 0 0 0.25 0"/>
<feBlend mode="normal" in2="BackgroundImageFix" result="effect1_dropShadow_434_293"/>
<feBlend mode="normal" in="SourceGraphic" in2="effect1_dropShadow_434_293" result="shape"/>
</filter>
<filter id="filter19_d_434_293" x="285.147" y="150.646" width="45.8398" height="114.305" filterUnits="userSpaceOnUse" color-interpolation-filters="sRGB">
<feFlood flood-opacity="0" result="BackgroundImageFix"/>
<feColorMatrix in="SourceAlpha" type="matrix" values="0 0 0 0 0 0 0 0 0 0 0 0 0 0 0 0 0 0 127 0" result="hardAlpha"/>
<feOffset dy="4"/>
<feGaussianBlur stdDeviation="2"/>
<feComposite in2="hardAlpha" operator="out"/>
<feColorMatrix type="matrix" values="0 0 0 0 0 0 0 0 0 0 0 0 0 0 0 0 0 0 0.25 0"/>
<feBlend mode="normal" in2="BackgroundImageFix" result="effect1_dropShadow_434_293"/>
<feBlend mode="normal" in="SourceGraphic" in2="effect1_dropShadow_434_293" result="shape"/>
</filter>
<filter id="filter20_d_434_293" x="311.895" y="196" width="39.2373" height="30.1329" filterUnits="userSpaceOnUse" color-interpolation-filters="sRGB">
<feFlood flood-opacity="0" result="BackgroundImageFix"/>
<feColorMatrix in="SourceAlpha" type="matrix" values="0 0 0 0 0 0 0 0 0 0 0 0 0 0 0 0 0 0 127 0" result="hardAlpha"/>
<feOffset dy="4"/>
<feGaussianBlur stdDeviation="2"/>
<feComposite in2="hardAlpha" operator="out"/>
<feColorMatrix type="matrix" values="0 0 0 0 0 0 0 0 0 0 0 0 0 0 0 0 0 0 0.25 0"/>
<feBlend mode="normal" in2="BackgroundImageFix" result="effect1_dropShadow_434_293"/>
<feBlend mode="normal" in="SourceGraphic" in2="effect1_dropShadow_434_293" result="shape"/>
</filter>
<filter id="filter21_d_434_293" x="360.582" y="193.222" width="45.2549" height="38.7176" filterUnits="userSpaceOnUse" color-interpolation-filters="sRGB">
<feFlood flood-opacity="0" result="BackgroundImageFix"/>
<feColorMatrix in="SourceAlpha" type="matrix" values="0 0 0 0 0 0 0 0 0 0 0 0 0 0 0 0 0 0 127 0" result="hardAlpha"/>
<feOffset dy="4"/>
<feGaussianBlur stdDeviation="2"/>
<feComposite in2="hardAlpha" operator="out"/>
<feColorMatrix type="matrix" values="0 0 0 0 0 0 0 0 0 0 0 0 0 0 0 0 0 0 0.25 0"/>
<feBlend mode="normal" in2="BackgroundImageFix" result="effect1_dropShadow_434_293"/>
<feBlend mode="normal" in="SourceGraphic" in2="effect1_dropShadow_434_293" result="shape"/>
</filter>
<filter id="filter22_d_434_293" x="391.222" y="193.101" width="45.1982" height="36.3835" filterUnits="userSpaceOnUse" color-interpolation-filters="sRGB">
<feFlood flood-opacity="0" result="BackgroundImageFix"/>
<feColorMatrix in="SourceAlpha" type="matrix" values="0 0 0 0 0 0 0 0 0 0 0 0 0 0 0 0 0 0 127 0" result="hardAlpha"/>
<feOffset dy="4"/>
<feGaussianBlur stdDeviation="2"/>
<feComposite in2="hardAlpha" operator="out"/>
<feColorMatrix type="matrix" values="0 0 0 0 0 0 0 0 0 0 0 0 0 0 0 0 0 0 0.25 0"/>
<feBlend mode="normal" in2="BackgroundImageFix" result="effect1_dropShadow_434_293"/>
<feBlend mode="normal" in="SourceGraphic" in2="effect1_dropShadow_434_293" result="shape"/>
</filter>
<filter id="filter23_d_434_293" x="451.392" y="140.573" width="94.498" height="119.888" filterUnits="userSpaceOnUse" color-interpolation-filters="sRGB">
<feFlood flood-opacity="0" result="BackgroundImageFix"/>
<feColorMatrix in="SourceAlpha" type="matrix" values="0 0 0 0 0 0 0 0 0 0 0 0 0 0 0 0 0 0 127 0" result="hardAlpha"/>
<feOffset dy="4"/>
<feGaussianBlur stdDeviation="2"/>
<feComposite in2="hardAlpha" operator="out"/>
<feColorMatrix type="matrix" values="0 0 0 0 0 0 0 0 0 0 0 0 0 0 0 0 0 0 0.25 0"/>
<feBlend mode="normal" in2="BackgroundImageFix" result="effect1_dropShadow_434_293"/>
<feBlend mode="normal" in="SourceGraphic" in2="effect1_dropShadow_434_293" result="shape"/>
</filter>
<filter id="filter24_d_434_293" x="517.065" y="200.449" width="42.3135" height="30.5035" filterUnits="userSpaceOnUse" color-interpolation-filters="sRGB">
<feFlood flood-opacity="0" result="BackgroundImageFix"/>
<feColorMatrix in="SourceAlpha" type="matrix" values="0 0 0 0 0 0 0 0 0 0 0 0 0 0 0 0 0 0 127 0" result="hardAlpha"/>
<feOffset dy="4"/>
<feGaussianBlur stdDeviation="2"/>
<feComposite in2="hardAlpha" operator="out"/>
<feColorMatrix type="matrix" values="0 0 0 0 0 0 0 0 0 0 0 0 0 0 0 0 0 0 0.25 0"/>
<feBlend mode="normal" in2="BackgroundImageFix" result="effect1_dropShadow_434_293"/>
<feBlend mode="normal" in="SourceGraphic" in2="effect1_dropShadow_434_293" result="shape"/>
</filter>
<filter id="filter25_d_434_293" x="546.798" y="182.476" width="45.2979" height="59.9221" filterUnits="userSpaceOnUse" color-interpolation-filters="sRGB">
<feFlood flood-opacity="0" result="BackgroundImageFix"/>
<feColorMatrix in="SourceAlpha" type="matrix" values="0 0 0 0 0 0 0 0 0 0 0 0 0 0 0 0 0 0 127 0" result="hardAlpha"/>
<feOffset dy="4"/>
<feGaussianBlur stdDeviation="2"/>
<feComposite in2="hardAlpha" operator="out"/>
<feColorMatrix type="matrix" values="0 0 0 0 0 0 0 0 0 0 0 0 0 0 0 0 0 0 0.25 0"/>
<feBlend mode="normal" in2="BackgroundImageFix" result="effect1_dropShadow_434_293"/>
<feBlend mode="normal" in="SourceGraphic" in2="effect1_dropShadow_434_293" result="shape"/>
</filter>
<filter id="filter26_d_434_293" x="578.897" y="196" width="39.2373" height="30.1329" filterUnits="userSpaceOnUse" color-interpolation-filters="sRGB">
<feFlood flood-opacity="0" result="BackgroundImageFix"/>
<feColorMatrix in="SourceAlpha" type="matrix" values="0 0 0 0 0 0 0 0 0 0 0 0 0 0 0 0 0 0 127 0" result="hardAlpha"/>
<feOffset dy="4"/>
<feGaussianBlur stdDeviation="2"/>
<feComposite in2="hardAlpha" operator="out"/>
<feColorMatrix type="matrix" values="0 0 0 0 0 0 0 0 0 0 0 0 0 0 0 0 0 0 0.25 0"/>
<feBlend mode="normal" in2="BackgroundImageFix" result="effect1_dropShadow_434_293"/>
<feBlend mode="normal" in="SourceGraphic" in2="effect1_dropShadow_434_293" result="shape"/>
</filter>
<filter id="filter27_d_434_293" x="594.824" y="182.002" width="40.3643" height="103.713" filterUnits="userSpaceOnUse" color-interpolation-filters="sRGB">
<feFlood flood-opacity="0" result="BackgroundImageFix"/>
<feColorMatrix in="SourceAlpha" type="matrix" values="0 0 0 0 0 0 0 0 0 0 0 0 0 0 0 0 0 0 127 0" result="hardAlpha"/>
<feOffset dy="4"/>
<feGaussianBlur stdDeviation="2"/>
<feComposite in2="hardAlpha" operator="out"/>
<feColorMatrix type="matrix" values="0 0 0 0 0 0 0 0 0 0 0 0 0 0 0 0 0 0 0.25 0"/>
<feBlend mode="normal" in2="BackgroundImageFix" result="effect1_dropShadow_434_293"/>
<feBlend mode="normal" in="SourceGraphic" in2="effect1_dropShadow_434_293" result="shape"/>
</filter>
<filter id="filter28_d_434_293" x="628.647" y="193.101" width="45.1982" height="36.3835" filterUnits="userSpaceOnUse" color-interpolation-filters="sRGB">
<feFlood flood-opacity="0" result="BackgroundImageFix"/>
<feColorMatrix in="SourceAlpha" type="matrix" values="0 0 0 0 0 0 0 0 0 0 0 0 0 0 0 0 0 0 127 0" result="hardAlpha"/>
<feOffset dy="4"/>
<feGaussianBlur stdDeviation="2"/>
<feComposite in2="hardAlpha" operator="out"/>
<feColorMatrix type="matrix" values="0 0 0 0 0 0 0 0 0 0 0 0 0 0 0 0 0 0 0.25 0"/>
<feBlend mode="normal" in2="BackgroundImageFix" result="effect1_dropShadow_434_293"/>
<feBlend mode="normal" in="SourceGraphic" in2="effect1_dropShadow_434_293" result="shape"/>
</filter>
</defs>
</svg>
