<svg width="270" height="269" viewBox="0 0 270 269" fill="none" xmlns="http://www.w3.org/2000/svg">
<path d="M258.904 27.9745V240.955C258.904 250.468 251.129 258.395 241.8 258.395H176.494V161.682H230.916C234.025 161.682 236.099 159.039 236.099 156.397V118.874C236.099 115.703 234.025 113.589 230.916 113.589H176.494V98.7918C176.494 87.6936 185.305 79.2378 195.671 79.2378H232.471C235.58 79.2378 237.654 77.1238 237.654 73.9529V36.4303C237.654 33.2594 235.58 31.1454 232.471 31.1454H185.305C152.652 31.6739 129.328 60.2122 129.328 98.7918V113.589H102.376C99.2663 113.589 97.1931 115.703 97.1931 118.874V156.397C97.1931 159.039 99.2663 161.682 102.376 161.682H128.81V258.395H27.7403C18.4108 258.395 10.6362 250.468 10.6362 240.955V27.9745C10.6362 18.4617 18.4108 10.5344 27.7403 10.5344H241.8C251.129 10.5344 258.904 18.4617 258.904 27.9745Z" fill="#55CBCD"/>
<path d="M134.546 269H27.7748C12.744 269 0.304688 256.316 0.304688 240.99V28.0098C0.304688 12.6837 12.744 0 27.7748 0H241.835C256.865 0 269.305 12.6837 269.305 28.0098V240.99C269.305 256.316 256.865 269 241.835 269H171.345C168.754 269 166.162 266.358 166.162 263.715V156.432C166.162 153.261 168.754 151.147 171.345 151.147H225.767V124.194H171.345C168.754 124.194 166.162 121.552 166.162 118.91V98.8271C166.162 81.9155 179.638 68.7033 195.705 68.7033H227.322V41.7505H185.339C158.906 42.279 139.729 66.0609 139.729 98.8271V118.91C139.729 121.552 137.655 124.194 134.546 124.194H107.594V151.147H134.027C137.137 151.147 139.21 153.261 139.21 156.432V263.715C139.729 266.886 137.137 269 134.546 269ZM97.2276 156.432V118.91C97.2276 115.739 99.3008 113.625 102.411 113.625H128.844V98.8271C128.844 59.7191 152.168 31.1807 184.821 31.1807H232.505C235.615 31.1807 237.688 33.2947 237.688 36.4656V73.9882C237.688 77.1591 235.615 79.2731 232.505 79.2731H195.705C184.821 79.2731 176.528 88.2574 176.528 98.8271V113.625H230.95C234.06 113.625 236.133 115.739 236.133 118.91V156.432C236.133 159.075 234.06 161.717 230.95 161.717H176.528V258.43H241.835C251.164 258.43 258.939 250.503 258.939 240.99V28.0098C258.939 18.4971 251.164 10.5697 241.835 10.5697H27.7748C18.4453 10.5697 10.6708 18.4971 10.6708 28.0098V240.99C10.6708 250.503 18.4453 258.43 27.7748 258.43H128.844V161.717H102.411C99.8191 161.717 97.2276 159.603 97.2276 156.432Z" fill="#42210B"/>
<path d="M62.5822 9.94916L22.6338 11.0064C15.4209 13.1208 9.87256 19.9928 9.87256 27.3933V240.423C9.87256 246.767 13.7564 252.581 19.3048 255.753V51.7094C19.3048 32.1508 35.3951 15.7639 56.479 14.7067L165.227 9.94916H62.5822Z" fill="#1D9AAE"/>
</svg>
