<svg width="435" height="210" viewBox="0 0 435 210" fill="none" xmlns="http://www.w3.org/2000/svg">
<mask id="mask0_247_9" style="mask-type:luminance" maskUnits="userSpaceOnUse" x="157" y="31" width="110" height="79">
<path d="M157.867 32.1094H266.051V108.696H157.867V32.1094Z" fill="white" stroke="white"/>
</mask>
<g mask="url(#mask0_247_9)">
<mask id="mask1_247_9" style="mask-type:luminance" maskUnits="userSpaceOnUse" x="137" y="-14" width="193" height="137">
<path d="M165.346 122.194L138.466 67.711L301.75 -12.8674L328.63 41.6117L165.346 122.194Z" fill="white" stroke="white"/>
</mask>
<g mask="url(#mask1_247_9)">
<mask id="mask2_247_9" style="mask-type:luminance" maskUnits="userSpaceOnUse" x="137" y="-14" width="193" height="137">
<path d="M165.346 122.194L138.466 67.711L301.75 -12.8674L328.63 41.6117L165.346 122.194Z" fill="white" stroke="white"/>
</mask>
<g mask="url(#mask2_247_9)">
<path d="M264.822 52.6123C253.557 62.7844 238.807 70.7059 223.522 70.8304C224.536 69.7412 225.53 68.5924 226.479 67.3912C227.268 67.3125 228.052 67.2109 228.829 67.0871L228.83 67.087C241.409 65.0582 252.882 58.2763 262.076 49.6591C263.095 48.7697 264.244 49.0226 264.928 49.746C265.274 50.112 265.486 50.5871 265.497 51.0807C265.507 51.5621 265.327 52.0997 264.822 52.6123ZM233.076 42.9887C234.846 51.4718 231.189 59.7027 225.958 66.4362C225.365 66.489 224.77 66.5285 224.174 66.5543C225.768 64.5171 227.212 62.3586 228.47 60.0734L228.471 60.0709C231.215 55.0185 232.654 49.0677 231.363 43.3672L231.362 43.3652C230.737 40.6552 229.486 38.0677 227.289 36.2732L227.285 36.2701C225.275 34.6606 222.389 33.8553 219.858 34.9016C217.385 35.8597 215.397 38.1047 214.428 40.5309L214.421 40.5485L214.415 40.5666C214.349 40.7781 214.254 41.1151 214.171 41.4186L213.493 41.0986C213.039 40.8839 212.582 40.6792 212.121 40.4878C212.201 40.2193 212.282 39.9573 212.351 39.7666C212.767 38.7534 213.324 37.7947 213.982 36.9201L213.984 36.9174C216.728 33.2239 221.328 31.2984 225.672 33.1181L225.679 33.1209L225.686 33.1234C229.702 34.672 232.249 38.8383 233.075 42.9841L233.076 42.9887ZM213.668 43.3169C213.513 43.9083 212.917 44.2651 212.328 44.1283C211.74 43.8777 211.122 43.6211 210.486 43.3859L211.21 43.0527L213.489 42.005L214.087 41.7299C214.072 41.7854 214.058 41.8367 214.046 41.8821L214.046 41.8835L213.668 43.3165L213.668 43.3169ZM210.52 42.464L210.283 43.3122C208.991 42.848 207.623 42.4824 206.253 42.4392C198.615 42.1461 194.512 50.4893 198.002 56.7531L198.001 56.7531L198.006 56.7608C198.511 57.631 199.156 58.3271 199.835 59.01L199.835 59.0103C205.685 64.8816 213.888 67.4958 222.039 67.588C221.14 68.6448 220.198 69.6672 219.22 70.6561C218.075 70.553 216.928 70.4036 215.781 70.2057C208.464 68.8556 201.414 65.4112 196.647 59.6677C193.924 56.3361 193.402 51.5129 194.932 47.5217L194.932 47.5218L194.936 47.5122C196.614 42.8509 201.443 39.705 206.385 40.0701L206.39 40.0704C207.972 40.1715 209.451 40.5429 210.905 41.0832L210.52 42.464ZM222.51 70.4473C222.391 70.5723 222.272 70.6967 222.153 70.8206C221.609 70.8083 221.066 70.7861 220.522 70.7535C221.504 69.7315 222.449 68.6744 223.349 67.5812C223.936 67.5685 224.521 67.5429 225.104 67.5048C224.268 68.5249 223.398 69.5073 222.51 70.4473ZM202.875 83.9802C208.887 80.6473 214.679 76.587 219.599 71.692C220.132 71.7343 220.665 71.7669 221.197 71.79C214.525 78.4111 206.442 83.4868 197.878 87.345L197.877 87.3453C192.393 89.8255 186.543 91.651 180.506 91.6112C180.13 91.604 179.753 91.5902 179.375 91.5689C179.449 91.4352 179.522 91.301 179.594 91.1663C179.9 91.1761 180.202 91.181 180.501 91.1819L180.508 91.1819C188.507 91.102 196.044 87.6957 202.871 83.9821L202.875 83.9802ZM167.412 79.1835C167.711 77.7988 168.297 76.4927 169.151 75.3891C168.321 76.5032 167.762 77.8074 167.486 79.1683C166.905 82.035 167.568 85.2105 169.653 87.4861C171.802 89.869 174.932 90.7777 177.983 91.0664C177.919 91.1883 177.853 91.3099 177.787 91.4312C174.623 91.0535 171.557 90.022 169.484 87.6374L169.481 87.634C167.432 85.3189 166.78 82.1024 167.412 79.1835ZM211.84 41.454C211.918 41.487 211.997 41.5205 212.075 41.5543L211.773 41.6932L211.84 41.454Z" fill="#55CBCD" stroke="#C6DBDA"/>
</g>
</g>
</g>
<mask id="mask3_247_9" style="mask-type:luminance" maskUnits="userSpaceOnUse" x="255" y="0" width="55" height="59">
<path d="M255.558 0.5H309.15V57.9291H255.558V0.5Z" fill="white" stroke="white"/>
</mask>
<g mask="url(#mask3_247_9)">
<mask id="mask4_247_9" style="mask-type:luminance" maskUnits="userSpaceOnUse" x="137" y="-14" width="193" height="137">
<path d="M165.345 122.194L138.465 67.711L301.75 -12.8674L328.63 41.6117L165.345 122.194Z" fill="white" stroke="white"/>
</mask>
<g mask="url(#mask4_247_9)">
<mask id="mask5_247_9" style="mask-type:luminance" maskUnits="userSpaceOnUse" x="137" y="-14" width="193" height="137">
<path d="M165.345 122.194L138.465 67.711L301.75 -12.8674L328.63 41.6117L165.345 122.194Z" fill="white" stroke="white"/>
</mask>
<g mask="url(#mask5_247_9)">
<path d="M301.655 30.3893L301.484 30.5787L300.864 31.2657L300.629 30.371L297.46 18.3192L297.388 18.0446L297.587 17.8419L304.372 10.925C304.372 10.9247 304.373 10.9244 304.373 10.9241C305.36 9.9102 306.66 7.87609 307.511 5.88234C307.935 4.88759 308.234 3.93394 308.334 3.14691C308.438 2.33226 308.311 1.83645 308.073 1.59251C307.843 1.35946 307.387 1.24124 306.619 1.36692C305.875 1.48873 304.973 1.82041 304.027 2.28331C302.141 3.20631 300.208 4.58827 299.21 5.60655C299.207 5.6107 299.201 5.61711 299.194 5.62584C299.174 5.64926 299.14 5.68955 299.09 5.74891L298.724 6.18104C298.407 6.55613 297.947 7.10037 297.368 7.78531C296.21 9.15517 294.577 11.0877 292.661 13.3551L292.478 13.5716L292.199 13.5258L279.886 11.5129L278.97 11.3631L279.599 10.6806L279.771 10.4937C279.772 10.4931 279.772 10.4926 279.773 10.492C280.071 10.1599 280.046 9.64575 279.717 9.34644L279.714 9.34402L279.331 8.99066C279 8.69363 278.482 8.72089 278.186 9.04702L278.185 9.04787L277.054 10.287C277.054 10.2874 277.053 10.2879 277.053 10.2883C276.973 10.3779 276.92 10.4765 276.888 10.5822L276.763 11.0039L276.328 10.9329L270.38 9.96009L269.466 9.81065L270.092 9.12852L270.3 8.90208C270.3 8.90182 270.3 8.90156 270.301 8.90131C270.601 8.57054 270.574 8.05401 270.245 7.75755L270.241 7.75385L270.241 7.75382L269.858 7.40048C269.528 7.10424 269.009 7.12955 268.708 7.45782C268.708 7.45796 268.708 7.45811 268.708 7.45826L267.548 8.73422C267.547 8.73457 267.547 8.73492 267.547 8.73527C267.467 8.82473 267.411 8.92583 267.375 9.0387L267.244 9.44978L266.818 9.38013L260.069 8.27639C260.069 8.27638 260.069 8.27637 260.069 8.27636C259.816 8.23522 259.48 8.27271 259.141 8.39071C258.802 8.50873 258.515 8.68867 258.342 8.87878L258.342 8.87899L256.258 11.1686C256.099 11.3433 256.097 11.4722 256.111 11.5323C256.126 11.5922 256.187 11.7042 256.407 11.7844L284.474 22.014L285.147 22.2591L284.685 22.8063C279.872 28.507 274.858 34.4492 271.351 38.6052C269.714 40.5458 268.405 42.0969 267.599 43.0521L267.428 43.2548L267.164 43.2268L257.53 42.2054L257.53 42.2053C257.257 42.176 256.904 42.2272 256.559 42.3512C256.212 42.4759 255.929 42.6542 255.768 42.83C255.63 42.9836 255.64 43.0848 255.654 43.1278C255.671 43.1829 255.746 43.302 255.993 43.3863L255.994 43.3866L265.65 46.7003C265.651 46.7006 265.652 46.7009 265.653 46.7011C265.793 46.7486 265.933 46.838 266.04 46.9144C266.158 46.999 266.282 47.1008 266.397 47.2052C266.512 47.3097 266.625 47.4228 266.72 47.5318C266.808 47.6314 266.909 47.7601 266.971 47.8922L266.973 47.8962L271.189 57.2016L271.189 57.2016C271.297 57.4405 271.423 57.5029 271.479 57.5149C271.522 57.5241 271.623 57.5256 271.762 57.3718L271.763 57.3704C271.923 57.1947 272.074 56.8977 272.165 56.5417C272.255 56.1888 272.273 55.832 272.219 55.5576C272.219 55.5573 272.219 55.5569 272.219 55.5566L270.273 46.0098L270.22 45.7495L270.406 45.5599L288.933 26.6685L289.434 26.1578L289.742 26.8036L302.581 53.7617C302.581 53.7617 302.581 53.7618 302.582 53.7619C302.683 53.9739 302.8 54.0247 302.861 54.0337C302.922 54.0427 303.049 54.0284 303.208 53.8539L305.292 51.5603L305.293 51.559C305.465 51.3709 305.617 51.0695 305.702 50.7217C305.788 50.3742 305.793 50.0351 305.728 49.7861L301.655 30.3893ZM301.655 30.3893C301.655 30.3891 301.655 30.3889 301.655 30.3887C301.957 30.0579 302.474 30.0334 302.804 30.3332L302.805 30.3341L303.192 30.6837C303.192 30.684 303.192 30.6842 303.193 30.6845C303.521 30.9859 303.545 31.5045 303.245 31.8344L302.118 33.0743C302.117 33.0745 302.117 33.0747 302.117 33.075C302.039 33.1591 301.944 33.2234 301.834 33.2689L301.431 33.4357L301.542 33.8583L303.076 39.684L303.311 40.5785L303.931 39.8915L304.135 39.6648C304.135 39.6646 304.135 39.6644 304.135 39.6642C304.435 39.3353 304.953 39.3108 305.284 39.6124L305.285 39.6133L305.674 39.9642C305.674 39.9643 305.674 39.9644 305.674 39.9646C306 40.2613 306.027 40.7791 305.726 41.1099L304.564 42.3871C304.564 42.3875 304.564 42.3879 304.563 42.3882C304.482 42.4766 304.384 42.5435 304.281 42.587L303.882 42.7556L303.992 43.1746L305.728 49.7858L301.655 30.3893ZM266.517 48.1026L270.733 57.408C271.04 58.0852 271.669 58.2199 272.133 57.7073C272.597 57.1984 272.855 56.1882 272.709 55.4586L266.517 48.1026Z" fill="#55CBCD" stroke="#C6DBDA"/>
</g>
</g>
</g>
<path d="M22.4347 76.2727L23.5683 83.5913L20.2274 84.5641L24.7019 106.816L33.6697 84.8223L31.0621 84.1675L32.5137 77.4887L48.8181 77.5673L46.2141 86.1169L43.6102 85.638C43.2773 86.6071 42.7722 88.0064 42.0988 89.8361C41.4216 91.6508 40.6584 93.6974 39.8129 95.9798C38.9748 98.2584 38.0807 100.676 37.1266 103.235C36.1726 105.779 35.2597 108.234 34.3843 110.591C33.5238 112.952 32.6932 115.137 31.9001 117.154C31.1182 119.155 30.4822 120.787 29.9921 122.044L35.458 121.965L35.039 127.81L15.8352 129.441L15.577 122.122L18.8356 121.965L10.7059 87.1907L8.18055 87.9054L5.00049 79.8534L22.4347 76.2727ZM40.0111 101.428C40.1159 100.724 40.3067 100.021 40.5873 99.3173C40.8529 98.4979 41.2009 97.6299 41.6386 96.7132C42.3419 96.6608 43.0191 96.6346 43.6663 96.6346C43.9993 96.6346 44.3285 96.6346 44.6615 96.6346C45.4173 96.7394 46.1842 96.9077 46.9661 97.1322C47.763 97.3417 48.3205 97.7458 48.6385 98.3445C47.8304 100.451 47.2056 102.849 46.7678 105.543C46.3301 108.234 46.072 110.531 45.9934 112.439C45.9148 114.336 45.8737 115.829 45.8737 116.914C45.8737 118.055 45.9148 119.361 45.9934 120.832C46.072 122.291 46.2516 123.368 46.5321 124.072L41.4815 125.542C41.0961 124.947 40.7519 123.78 40.4451 122.044C40.1571 120.308 39.9962 118.777 39.97 117.453C39.9438 116.113 39.9288 115.223 39.9288 114.789C39.9288 112.944 40.0224 110.995 40.2094 108.941C40.4077 106.875 40.8305 105.023 41.4815 103.396C41.2009 103.276 40.924 103.19 40.6472 103.138C40.3815 103.081 40.1683 103.055 40.0111 103.055C39.955 102.846 39.9288 102.599 39.9288 102.322C39.9288 102.056 39.955 101.757 40.0111 101.428ZM43.6663 88.403C44.0517 87.9653 44.568 87.7482 45.219 87.7482C45.3237 87.7482 45.4622 87.7482 45.6342 87.7482C46.6032 87.853 47.2916 88.1374 47.7032 88.6013C48.1147 89.0653 48.3205 89.6752 48.3205 90.431C48.3205 90.9211 48.1147 91.5235 47.7032 92.2419C47.2916 92.9416 46.5509 93.2933 45.4771 93.2933C45.4098 93.2933 45.3237 93.2933 45.219 93.2933C44.4632 93.2409 43.8946 92.9154 43.5092 92.3205C43.1388 91.7218 42.9518 91.0745 42.9518 90.3711C42.9518 89.6565 43.1912 88.9979 43.6663 88.403ZM50.7485 96.9526C51.4107 96.5149 52.1328 96.122 52.9147 95.7778C53.7004 95.4223 54.4748 95.1903 55.2418 95.0818C55.7319 95.8937 56.2183 96.9115 56.6934 98.1462C57.1835 99.366 57.6362 100.683 58.044 102.101C58.4555 103.508 58.8484 104.971 59.2187 106.497C59.6041 108.005 59.9071 109.498 60.1316 110.969C60.8873 109.06 61.6954 107.134 62.5597 105.184C63.4351 103.224 64.247 101.428 65.0027 99.7963C65.8782 97.9516 66.7723 96.1369 67.6889 94.3485C68.6691 94.891 69.597 95.4335 70.4724 95.9798C71.2282 96.47 71.954 96.9863 72.6573 97.5288C73.3756 98.0714 73.8919 98.5578 74.2099 98.9806C72.9641 100.732 71.6584 102.935 70.2929 105.599C68.9423 108.252 67.6815 110.909 66.5142 113.573C65.3469 116.226 64.3667 118.665 63.5736 120.891C62.7916 123.118 62.3464 124.671 62.2417 125.542L56.3754 125.782L52.7987 103.871L51.3247 104.608L48.6422 98.6625C49.3456 98.0639 50.0489 97.4952 50.7485 96.9526ZM76.3163 106.475C76.7016 104.529 77.3376 102.778 78.2243 101.226C79.126 99.6765 80.2259 98.4306 81.5241 97.4877C82.8373 96.5336 84.3076 96.0584 85.9388 96.0584C87.2894 96.0584 88.4566 96.238 89.4368 96.5934C90.4171 96.9377 91.2476 97.4091 91.921 98.0078C92.5982 98.6027 93.1557 99.3098 93.5934 100.133C94.0311 100.941 94.3529 101.757 94.5661 102.58C95.0038 104.092 95.2208 105.745 95.2208 107.549C95.2208 108.091 95.1946 108.664 95.1423 109.259L83.0767 117.472C83.4583 118.239 83.911 118.83 84.4273 119.241C84.9436 119.638 85.501 119.836 86.0959 119.836C86.2044 119.836 86.283 119.836 86.3353 119.836C87.2108 119.732 88.0002 119.406 88.7036 118.864C89.4032 118.321 90.028 117.749 90.5704 117.154C91.1653 116.398 91.7115 115.556 92.2016 114.628L95.3817 117.55C94.9963 118.968 94.3753 120.222 93.5111 121.307C92.7441 122.224 91.7228 123.065 90.4507 123.832C89.1787 124.588 87.5101 124.966 85.4412 124.966C85.3364 124.966 85.2017 124.966 85.0446 124.966C83.9035 124.914 82.8186 124.551 81.7822 123.874C80.7497 123.196 79.8218 122.291 78.9987 121.15C78.1906 120.008 77.5172 118.703 76.971 117.232C76.4285 115.762 76.0768 114.216 75.9197 112.6C75.8636 111.99 75.8374 111.414 75.8374 110.871C75.8374 109.36 75.9983 107.893 76.3163 106.475ZM81.8646 112.102L90.013 106.733C89.9606 105.805 89.796 105.02 89.5154 104.369C89.3059 103.774 88.9916 103.227 88.5838 102.737C88.1723 102.247 87.5887 102.004 86.8329 102.004C86.7806 102.004 86.702 102.004 86.5935 102.004C85.718 102.004 84.9698 102.314 84.3487 102.935C83.724 103.56 83.2226 104.35 82.8373 105.304C82.4669 106.258 82.2087 107.265 82.0628 108.323C81.9282 109.371 81.8646 110.333 81.8646 111.208C81.8646 111.474 81.8646 111.773 81.8646 112.102ZM98.7152 97.1921L106.867 96.6346L107.107 99.4782C107.492 98.8796 107.907 98.2697 108.36 97.6486C108.824 97.0237 109.314 96.47 109.83 95.9798C110.347 95.4859 110.904 95.108 111.499 94.8461C112.098 94.5655 112.692 94.427 113.287 94.427C115.252 94.4794 116.827 95.0519 118.02 96.1369C119.213 97.2258 120.108 98.6214 120.706 100.331C121.301 102.041 121.653 103.699 121.758 105.304C121.866 106.905 121.918 108.252 121.918 109.337C121.918 110.254 121.877 111.406 121.799 112.798C121.72 114.179 121.526 115.683 121.223 117.311C120.931 118.942 120.676 120.162 120.467 120.97L123.228 122.044L121.997 126.758L113.448 124.809C114.324 120.633 114.892 116.914 115.158 113.655C115.278 112.237 115.349 111.148 115.375 110.393C115.405 109.637 115.416 109.173 115.416 109.001C115.416 107.859 115.315 106.782 115.117 105.76C114.933 104.728 114.623 103.871 114.185 103.194C113.748 102.505 113.149 102.135 112.393 102.082C112.341 102.082 112.288 102.082 112.236 102.082C111.637 102.082 111.084 102.453 110.564 103.194C110.047 103.923 109.557 104.937 109.093 106.239C108.629 107.538 108.218 109.027 107.863 110.711C107.518 112.394 107.193 114.123 106.886 115.9C106.594 117.662 106.325 119.414 106.074 121.15C105.835 122.886 105.61 124.431 105.397 125.782C105.116 125.995 104.6 126.1 103.844 126.1C103.407 126.1 102.932 126.074 102.415 126.021C101.899 125.969 101.428 125.887 101.001 125.782L99.5308 125.464C99.6392 124.869 99.8375 123.675 100.129 121.887C100.432 120.083 100.732 118.04 101.024 115.762C101.327 113.483 101.585 111.122 101.798 108.683C102.022 106.243 102.135 104.095 102.135 102.24L98.6366 102.419L98.7152 97.1921ZM126.561 111.687C126.561 109.405 126.808 107.279 127.298 105.304C127.788 103.313 128.518 101.566 129.487 100.054C130.467 98.5278 131.646 97.3118 133.022 96.3951C134.414 95.4672 135.978 94.977 137.718 94.9247C137.875 94.9247 138.066 94.9247 138.294 94.9247C139.379 94.9247 140.382 95.0893 141.294 95.4223C142.222 95.7403 143.012 96.1706 143.659 96.7132C143.82 94.9247 143.977 93.3532 144.138 92.0025C144.31 90.6368 144.474 89.6565 144.635 89.0578C144.422 89.1663 144.235 89.2187 144.078 89.2187C143.906 89.2711 143.767 89.2973 143.659 89.2973C143.554 89.2973 143.476 89.2711 143.423 89.2187C143.423 89.0578 143.408 88.8483 143.382 88.5826C143.356 88.302 143.341 88.0775 143.341 87.9054C143.341 87.6397 143.367 87.288 143.423 86.8503C143.476 86.4162 143.569 85.9223 143.7 85.3798C143.831 84.8373 144.011 84.3808 144.235 84.0104C144.396 83.9019 144.695 83.8495 145.133 83.8495C145.342 83.8495 145.746 83.8757 146.345 83.9281C146.94 83.9804 147.729 84.1488 148.71 84.4257C149.69 84.6913 150.532 84.9907 151.235 85.3199C151.938 85.638 152.29 85.9298 152.29 86.1955C152.29 86.2479 152.29 86.274 152.29 86.274C151.916 87.202 151.501 88.5228 151.037 90.2327C150.573 91.9426 150.161 93.8845 149.802 96.0584C149.458 98.2323 149.188 100.444 148.99 102.7C148.803 104.952 148.71 107.077 148.71 109.079C148.71 109.625 148.724 110.658 148.751 112.181C148.777 113.708 148.994 115.687 149.405 118.126C149.817 120.566 150.453 122.792 151.313 124.809C150.943 125.075 150.513 125.37 150.023 125.703C149.585 125.969 149.02 126.246 148.332 126.538C147.654 126.844 146.861 127.162 145.945 127.492C145.125 126.407 144.501 124.697 144.078 122.362C143.098 123.395 141.964 124.278 140.677 125.007C139.405 125.737 137.961 126.1 136.345 126.1C136.225 126.1 136.113 126.1 136.008 126.1C135.196 126.047 134.265 125.711 133.202 125.086C132.143 124.465 131.122 123.556 130.142 122.362C129.173 121.168 128.331 119.679 127.616 117.887C126.913 116.098 126.561 114.033 126.561 111.687ZM132.746 110.393C132.798 113.165 133.277 115.365 134.178 116.993C135.08 118.624 136.15 119.44 137.396 119.44C137.452 119.44 137.504 119.44 137.557 119.44C138.313 119.44 139.016 119.155 139.663 118.583C140.325 118.014 140.898 117.266 141.373 116.338C141.863 115.41 142.241 114.389 142.507 113.277C142.787 112.162 142.926 111.062 142.926 109.977C142.926 108.903 142.832 107.874 142.645 106.894C142.462 105.914 142.177 105.057 141.792 104.327C141.407 103.587 140.958 103.018 140.441 102.617C139.921 102.21 139.338 102.004 138.69 102.004C138.039 102.004 137.366 102.247 136.663 102.737C135.959 103.227 135.323 103.871 134.755 104.668C134.182 105.45 133.707 106.329 133.322 107.309C132.936 108.278 132.746 109.307 132.746 110.393ZM154.658 105.023C155.152 103.115 155.893 101.405 156.888 99.8935C157.894 98.3707 159.088 97.1322 160.465 96.1781C161.856 95.224 163.368 94.7451 164.999 94.7451C166.245 94.7451 167.464 95.0893 168.654 95.7778C169.848 96.455 170.888 97.4428 171.778 98.7411C172.68 100.039 173.334 101.551 173.746 103.276C174.158 104.986 174.363 106.733 174.363 108.525C174.363 109.173 174.333 109.85 174.281 110.553C174.124 112.727 173.697 114.755 173.009 116.637C172.336 118.504 171.505 120.102 170.525 121.427C169.556 122.755 168.531 123.746 167.442 124.409C166.357 125.06 165.324 125.385 164.34 125.385C164.236 125.385 164.105 125.385 163.944 125.385C162.141 125.213 160.644 124.697 159.451 123.832C158.257 122.961 157.296 121.861 156.57 120.532C155.84 119.208 155.283 117.689 154.898 115.979C154.512 114.258 154.243 112.473 154.082 110.632C154.03 110.194 154.003 109.764 154.003 109.337C154.003 107.919 154.224 106.483 154.658 105.023ZM159.787 112.6C159.844 113.674 160.001 114.714 160.266 115.721C160.543 116.731 160.955 117.618 161.497 118.385C162.043 119.14 162.743 119.545 163.607 119.597C163.66 119.597 163.746 119.597 163.865 119.597C164.621 119.597 165.309 119.301 165.931 118.703C166.555 118.108 167.072 117.393 167.483 116.555C167.895 115.709 168.19 114.819 168.377 113.891C168.564 112.963 168.654 112.203 168.654 111.605C168.654 111.01 168.628 110.168 168.576 109.079C168.523 107.994 168.359 106.913 168.078 105.839C167.816 104.754 167.382 103.792 166.787 102.958C166.192 102.109 165.324 101.626 164.183 101.506C164.131 101.506 164.075 101.506 164.022 101.506C163.532 101.506 163.042 101.809 162.552 102.419C162.062 103.018 161.624 103.766 161.239 104.668C160.869 105.555 160.558 106.49 160.307 107.47C160.068 108.439 159.896 109.248 159.787 109.895C159.787 110.28 159.787 110.692 159.787 111.13C159.787 111.567 159.787 112.058 159.787 112.6ZM190.559 97.1921L198.711 96.6346L198.951 99.4782C199.336 98.8796 199.751 98.2697 200.204 97.6486C200.668 97.0237 201.158 96.47 201.674 95.9798C202.191 95.4859 202.748 95.108 203.343 94.8461C203.942 94.5655 204.537 94.427 205.131 94.427C207.096 94.4794 208.671 95.0519 209.864 96.1369C211.058 97.2258 211.952 98.6214 212.55 100.331C213.145 102.041 213.497 103.699 213.602 105.304C213.706 106.905 213.762 108.252 213.762 109.337C213.762 110.254 213.721 111.406 213.643 112.798C213.564 114.179 213.37 115.683 213.067 117.311C212.775 118.942 212.52 120.162 212.311 120.97L215.072 122.044L213.841 126.758L205.292 124.809C206.168 120.633 206.736 116.914 207.002 113.655C207.122 112.237 207.193 111.148 207.219 110.393C207.245 109.637 207.26 109.173 207.26 109.001C207.26 107.859 207.159 106.782 206.961 105.76C206.778 104.728 206.463 103.871 206.029 103.194C205.592 102.505 204.993 102.135 204.237 102.082C204.185 102.082 204.132 102.082 204.08 102.082C203.481 102.082 202.928 102.453 202.408 103.194C201.891 103.923 201.401 104.937 200.937 106.239C200.474 107.538 200.062 109.027 199.707 110.711C199.362 112.394 199.037 114.123 198.73 115.9C198.438 117.662 198.169 119.414 197.914 121.15C197.679 122.886 197.451 124.431 197.241 125.782C196.96 125.995 196.444 126.1 195.688 126.1C195.251 126.1 194.776 126.074 194.259 126.021C193.743 125.969 193.272 125.887 192.845 125.782L191.375 125.464C191.483 124.869 191.682 123.675 191.973 121.887C192.276 120.083 192.576 118.04 192.868 115.762C193.171 113.483 193.429 111.122 193.642 108.683C193.866 106.243 193.979 104.095 193.979 102.24L190.481 102.419L190.559 97.1921ZM219.617 113.573C220.654 111.945 221.96 110.557 223.535 109.42C225.113 108.278 226.718 107.343 228.346 106.613C229.977 105.873 231.223 105.255 232.083 104.765C233.12 104.17 233.834 103.673 234.231 103.276C234.642 102.864 234.859 102.565 234.889 102.382C234.927 102.18 234.949 102.082 234.949 102.082C234.949 101.817 234.822 101.592 234.571 101.405C234.332 101.207 234.074 101.027 233.793 100.87C233.741 100.87 233.688 100.855 233.636 100.829C233.584 100.803 233.501 100.792 233.397 100.792C233.344 100.792 233.284 100.792 233.217 100.792C233.007 100.792 232.562 100.896 231.885 101.11C231.208 101.319 230.448 101.63 229.599 102.041C228.765 102.453 227.949 102.876 227.152 103.313C226.37 103.74 225.817 104.118 225.484 104.447C225.218 103.905 224.866 103.347 224.429 102.778C223.995 102.21 223.561 101.652 223.138 101.11C222.648 100.511 222.132 99.916 221.589 99.3173C222.94 98.5615 224.238 97.8544 225.484 97.1921C226.516 96.6458 227.553 96.1519 228.585 95.6992C229.618 95.2352 230.433 94.977 231.032 94.9247C231.35 94.9247 231.672 94.8985 232.005 94.8461C232.39 94.8985 232.88 94.9359 233.475 94.9658C234.074 94.992 234.841 95.209 235.783 95.6206C236.737 96.0172 237.703 96.6271 238.687 97.4503C239.667 98.2584 240.587 99.4258 241.448 100.949C242.151 102.142 242.54 103.646 242.622 105.461C242.712 107.279 242.761 108.922 242.761 110.393C242.761 111.096 242.746 112.196 242.72 113.693C242.694 115.178 242.667 116.424 242.641 117.43C242.615 118.441 242.6 118.994 242.6 119.103C242.6 120.731 242.761 121.793 243.079 122.283C242.641 122.669 242.151 123.017 241.609 123.339C241.182 123.615 240.666 123.892 240.056 124.173C239.461 124.439 238.836 124.622 238.189 124.727C237.699 124.293 237.347 123.746 237.134 123.099C236.921 122.448 236.764 121.685 236.659 120.813C235.993 121.355 235.286 121.924 234.53 122.523C233.774 123.118 232.974 123.66 232.125 124.15C231.29 124.641 230.448 125.06 229.599 125.404C228.765 125.763 227.964 125.969 227.194 126.021C227.036 126.021 226.876 126.021 226.718 126.021C226.015 126.021 225.211 125.916 224.313 125.703C223.411 125.49 222.521 125.112 221.645 124.569C220.785 124.027 220.055 123.339 219.46 122.5C218.866 121.655 218.514 120.712 218.405 119.679C218.353 119.189 218.327 118.725 218.327 118.287C218.327 116.499 218.757 114.927 219.617 113.573ZM225.166 118.287C225.218 118.882 225.45 119.335 225.862 119.638C226.273 119.93 226.804 120.076 227.452 120.076C227.665 120.076 227.878 120.076 228.088 120.076C228.686 120.023 229.36 119.724 230.115 119.182C230.886 118.639 231.672 118.003 232.484 117.273C233.303 116.544 234.107 115.773 234.889 114.965C235.682 114.145 236.352 113.408 236.895 112.757C237.003 111.938 237.082 111.137 237.134 110.355C237.186 109.558 237.239 108.784 237.295 108.028C236.592 108.623 235.709 109.266 234.65 109.955C233.587 110.632 232.529 111.294 231.47 111.945C230.422 112.593 229.435 113.191 228.507 113.734C227.579 114.276 226.928 114.707 226.558 115.025C226.067 115.41 225.708 115.889 225.484 116.458C225.271 117.026 225.166 117.532 225.166 117.969C225.166 118.074 225.166 118.179 225.166 118.287ZM257.573 125.625C257.677 125.516 257.838 125.112 258.048 124.409C258.272 123.694 258.493 122.961 258.706 122.205C258.931 121.221 259.174 120.162 259.439 119.021C259.93 119.077 260.42 119.155 260.91 119.26C261.347 119.313 261.853 119.372 262.421 119.44C262.994 119.492 263.547 119.571 264.094 119.679C264.412 117.835 264.677 115.436 264.887 112.48C265.111 109.513 265.28 106.43 265.384 103.235C265.489 100.028 265.571 96.9077 265.624 93.8695C265.691 90.8201 265.721 88.2908 265.721 86.274L262.204 86.7717L260.416 79.1163C262.642 78.4167 265.384 77.9302 268.647 77.6646C271.905 77.3877 275.22 77.2493 278.587 77.2493C280.533 77.2493 282.429 77.2867 284.27 77.369C286.126 77.4476 287.809 77.5486 289.321 77.6646C290.843 77.7731 292.164 77.919 293.279 78.1024C294.39 78.2894 295.191 78.4616 295.685 78.6187C295.299 80.4222 294.948 82.1919 294.63 83.9281C294.349 85.3873 294.147 86.7605 294.012 88.0438C293.881 89.316 293.814 90.3861 293.814 91.2467C293.814 91.7892 293.84 92.3055 293.893 92.7957C293.455 92.7433 292.868 92.7021 292.123 92.676C291.393 92.6498 290.679 92.6385 289.976 92.6385H287.454L285.901 85.7989L273.615 85.956L274.191 100.612C275.598 100.346 277.053 100.107 278.565 99.8935C280.091 99.669 281.341 99.5568 282.325 99.5568C282.549 99.5568 282.766 99.5568 282.979 99.5568C282.927 99.9946 282.901 100.432 282.901 100.87C282.845 101.293 282.807 101.749 282.781 102.24C282.755 102.73 282.68 103.25 282.56 103.792C282.456 104.986 282.325 106.37 282.164 107.949L272.96 107.627C272.96 108.492 272.934 109.491 272.878 110.632L272.642 114.052C272.534 115.193 272.41 116.304 272.264 117.393C272.13 118.478 271.984 119.399 271.827 120.154C272.792 120.154 273.914 120.128 275.186 120.076C276.47 120.023 277.775 119.945 279.103 119.836C280.443 119.732 281.76 119.612 283.058 119.481C284.356 119.335 285.497 119.182 286.477 119.021C286.758 117.988 287.054 116.809 287.372 115.485C287.705 114.157 287.922 113.195 288.03 112.6C288.52 112.6 289.115 112.574 289.818 112.521C290.522 112.454 291.195 112.394 291.846 112.342C292.613 112.29 293.403 112.207 294.211 112.102L292.92 127.252C291.064 127.69 288.969 128.004 286.638 128.188C284.304 128.375 281.921 128.468 279.481 128.468C276.922 128.468 274.389 128.386 271.887 128.229C269.395 128.068 267.128 127.851 265.085 127.57C263.057 127.308 261.362 126.994 259.997 126.639C258.646 126.279 257.838 125.943 257.573 125.625ZM298.12 102.161C298.225 101.566 298.438 100.904 298.756 100.174C299.089 99.4445 299.445 98.7486 299.83 98.0863C300.215 97.2781 300.679 96.47 301.222 95.6618C302.572 96.47 303.766 97.1696 304.802 97.7683C305.715 98.3108 306.523 98.7898 307.226 99.1976C307.941 99.5979 308.3 99.8299 308.3 99.8935C307.649 100.967 307.148 102.498 306.789 104.488C306.445 106.464 306.272 108.432 306.272 110.393C306.272 110.553 306.284 111.189 306.31 112.301C306.336 113.416 306.564 114.748 306.987 116.297C307.425 117.85 308.079 118.65 308.955 118.703C309.553 118.703 310.107 118.392 310.627 117.771C311.144 117.135 311.611 116.293 312.038 115.245C312.475 114.183 312.898 112.989 313.31 111.665C313.721 110.325 314.084 108.956 314.402 107.549C315.225 104.29 315.932 100.537 316.531 96.2978C317.444 96.47 318.286 96.6608 319.056 96.874C319.756 97.0312 320.459 97.237 321.163 97.4877C321.866 97.7271 322.408 98.0115 322.794 98.3445C322.528 99.3098 322.307 100.896 322.135 103.096C321.978 105.296 321.885 107.119 321.858 108.563C321.832 109.996 321.817 110.905 321.817 111.287C321.817 113.408 321.9 115.623 322.057 117.928C322.218 120.237 322.487 122.119 322.872 123.574C322.274 124.012 321.679 124.345 321.084 124.569C320.485 124.783 319.917 124.94 319.374 125.048C318.776 125.153 318.181 125.206 317.582 125.206L316.351 120.154C315.757 121.191 314.874 122.25 313.706 123.339C312.539 124.424 311.091 125.018 309.351 125.127C309.09 125.127 308.816 125.127 308.54 125.127C306.8 125.127 305.311 124.775 304.065 124.072C302.819 123.368 301.824 122.381 301.083 121.109C300.354 119.825 299.864 118.426 299.613 116.914C299.374 115.391 299.254 113.951 299.254 112.6C299.254 112.323 299.265 111.698 299.295 110.729C299.321 109.749 299.467 108.499 299.729 106.973C300.01 105.45 300.286 104.17 300.567 103.138C299.692 102.711 298.876 102.385 298.12 102.161ZM328.237 95.4822C328.832 95.0556 329.494 94.6253 330.224 94.1876C330.968 93.7498 331.69 93.428 332.39 93.2147C333.266 94.0229 333.902 94.891 334.302 95.8189C334.71 96.7319 335.028 97.787 335.256 98.9806C336.064 98.1724 337.089 97.4839 338.335 96.9115C339.596 96.3427 340.901 95.8975 342.252 95.5794C343.606 95.2502 344.822 95.0444 345.911 94.9658C346.996 94.8835 347.868 94.8461 348.515 94.8461C348.9 94.8461 349.226 94.8461 349.488 94.8461C349.873 96.0359 350.079 97.0462 350.105 97.8656C350.131 98.6738 350.146 99.2649 350.146 99.6354C350.146 100.406 350.12 101.113 350.068 101.764C349.959 102.906 349.802 104.017 349.589 105.106L344.459 106.157L343.962 102.419C343.472 102.685 342.877 102.969 342.173 103.276C341.47 103.568 340.722 103.92 339.925 104.327C339.143 104.728 338.384 105.244 337.639 105.88C336.913 106.501 336.303 107.272 335.81 108.185C335.705 109.165 335.551 110.471 335.353 112.102C335.17 113.734 335.009 115.403 334.878 117.112C334.743 118.822 334.665 120.289 334.639 121.509C334.612 122.729 334.597 123.66 334.597 124.311C334.597 124.959 334.597 125.531 334.597 126.021C333.127 126.074 332.132 126.115 331.616 126.141C331.099 126.178 330.789 126.201 330.68 126.201C329.872 126.201 329.146 126.089 328.495 125.86C328.653 124.723 328.772 123.178 328.855 121.228C328.933 119.268 328.986 117.221 329.012 115.084C329.038 112.937 329.064 110.804 329.09 108.683C329.117 106.561 329.131 104.739 329.131 103.216L327.025 103.553L326.131 97.1098C326.831 96.5149 327.534 95.9723 328.237 95.4822ZM353.33 105.023C353.82 103.115 354.561 101.405 355.556 99.8935C356.562 98.3707 357.756 97.1322 359.133 96.1781C360.524 95.224 362.036 94.7451 363.667 94.7451C364.913 94.7451 366.132 95.0893 367.326 95.7778C368.519 96.455 369.559 97.4428 370.446 98.7411C371.348 100.039 372.003 101.551 372.414 103.276C372.826 104.986 373.031 106.733 373.031 108.525C373.031 109.173 373.005 109.85 372.953 110.553C372.792 112.727 372.369 114.755 371.681 116.637C371.004 118.504 370.173 120.102 369.193 121.427C368.228 122.755 367.199 123.746 366.114 124.409C365.025 125.06 363.992 125.385 363.012 125.385C362.904 125.385 362.773 125.385 362.612 125.385C360.812 125.213 359.312 124.697 358.119 123.832C356.929 122.961 355.968 121.861 355.238 120.532C354.508 119.208 353.951 117.689 353.569 115.979C353.184 114.258 352.911 112.473 352.754 110.632C352.698 110.194 352.671 109.764 352.671 109.337C352.671 107.919 352.892 106.483 353.33 105.023ZM358.459 112.6C358.512 113.674 358.669 114.714 358.934 115.721C359.215 116.731 359.626 117.618 360.169 118.385C360.711 119.14 361.415 119.545 362.275 119.597C362.328 119.597 362.414 119.597 362.533 119.597C363.289 119.597 363.978 119.301 364.602 118.703C365.223 118.108 365.74 117.393 366.151 116.555C366.563 115.709 366.862 114.819 367.045 113.891C367.232 112.963 367.326 112.203 367.326 111.605C367.326 111.01 367.3 110.168 367.247 109.079C367.191 107.994 367.027 106.913 366.75 105.839C366.484 104.754 366.054 103.792 365.455 102.958C364.86 102.109 363.992 101.626 362.851 101.506C362.799 101.506 362.747 101.506 362.694 101.506C362.204 101.506 361.71 101.809 361.22 102.419C360.73 103.018 360.292 103.766 359.911 104.668C359.537 105.555 359.226 106.49 358.975 107.47C358.736 108.439 358.564 109.248 358.459 109.895C358.459 110.28 358.459 110.692 358.459 111.13C358.459 111.567 358.459 112.058 358.459 112.6ZM375.628 131.967C376.118 128.229 376.526 124.442 376.844 120.611C377.173 116.783 377.405 113.169 377.54 109.775C377.685 106.381 377.757 103.688 377.757 101.686L375.789 101.764L375.628 96.2155C376.993 96.006 378.273 95.7852 379.466 95.5607C380.488 95.3998 381.502 95.2539 382.508 95.123C383.514 94.992 384.236 94.9247 384.674 94.9247C385.164 95.572 385.49 96.2754 385.651 97.0312C386.193 96.4363 387.035 95.8638 388.172 95.3213C389.313 94.7787 390.971 94.4794 393.144 94.427C394.776 94.427 396.212 95.0968 397.458 96.4363C398.704 97.7608 399.706 99.3922 400.462 101.327C401.229 103.25 401.708 104.96 401.891 106.456C402.078 107.942 402.168 109.06 402.168 109.816C402.168 110.905 402.063 111.885 401.85 112.757C401.521 114.269 401.042 115.803 400.421 117.352C399.796 118.901 399.037 120.315 398.135 121.587C397.245 122.86 396.193 123.881 394.974 124.648C393.754 125.404 392.329 125.782 390.698 125.782C389.665 125.782 388.644 125.482 387.637 124.888C386.642 124.293 385.71 123.615 384.835 122.86C384.397 125.509 383.918 128.057 383.402 130.496C382.886 132.947 382.414 135.121 381.992 137.014C381.502 139.244 381.011 141.336 380.521 143.3C379.537 143.019 378.591 142.776 377.678 142.563C376.907 142.338 376.159 142.118 375.43 141.908C374.7 141.695 374.172 141.53 373.839 141.411C374.543 138.814 375.138 135.663 375.628 131.967ZM388.015 117.472C388.718 118.239 389.448 118.624 390.204 118.624C391.128 118.624 391.906 118.22 392.527 117.412C393.152 116.589 393.608 115.541 393.9 114.269C394.203 112.985 394.356 111.612 394.356 110.153C394.356 108.683 394.229 107.324 393.979 106.078C393.739 104.832 393.361 103.792 392.845 102.958C392.344 102.109 391.734 101.686 391.016 101.686C390.316 101.686 389.68 101.955 389.108 102.498C388.539 103.044 388.06 103.706 387.678 104.488C387.304 105.27 387.009 106.071 386.784 106.894C386.571 107.702 386.436 108.38 386.384 108.922C386.384 109.85 386.346 110.815 386.264 111.826C386.186 112.817 386.088 113.861 385.969 114.946C386.563 115.874 387.248 116.716 388.015 117.472ZM406.725 113.573C407.761 111.945 409.067 110.557 410.642 109.42C412.221 108.278 413.822 107.343 415.453 106.613C417.085 105.873 418.33 105.255 419.191 104.765C420.227 104.17 420.942 103.673 421.338 103.276C421.75 102.864 421.967 102.565 421.997 102.382C422.034 102.18 422.053 102.082 422.053 102.082C422.053 101.817 421.93 101.592 421.675 101.405C421.439 101.207 421.181 101.027 420.901 100.87C420.848 100.87 420.796 100.855 420.744 100.829C420.691 100.803 420.609 100.792 420.504 100.792C420.452 100.792 420.392 100.792 420.325 100.792C420.111 100.792 419.67 100.896 418.993 101.11C418.316 101.319 417.556 101.63 416.707 102.041C415.872 102.453 415.057 102.876 414.26 103.313C413.478 103.74 412.924 104.118 412.591 104.447C412.326 103.905 411.974 103.347 411.536 102.778C411.099 102.21 410.668 101.652 410.246 101.11C409.756 100.511 409.239 99.916 408.693 99.3173C410.047 98.5615 411.346 97.8544 412.591 97.1921C413.624 96.6458 414.66 96.1519 415.693 95.6992C416.725 95.2352 417.541 94.977 418.14 94.9247C418.458 94.9247 418.779 94.8985 419.112 94.8461C419.498 94.8985 419.988 94.9359 420.583 94.9658C421.181 94.992 421.948 95.209 422.891 95.6206C423.845 96.0172 424.81 96.6271 425.791 97.4503C426.774 98.2584 427.695 99.4258 428.555 100.949C429.259 102.142 429.648 103.646 429.73 105.461C429.82 107.279 429.868 108.922 429.868 110.393C429.868 111.096 429.854 112.196 429.827 113.693C429.801 115.178 429.775 116.424 429.749 117.43C429.723 118.441 429.708 118.994 429.708 119.103C429.708 120.731 429.868 121.793 430.186 122.283C429.749 122.669 429.259 123.017 428.716 123.339C428.29 123.615 427.773 123.892 427.164 124.173C426.569 124.439 425.944 124.622 425.297 124.727C424.807 124.293 424.455 123.746 424.242 123.099C424.028 122.448 423.871 121.685 423.763 120.813C423.101 121.355 422.393 121.924 421.638 122.523C420.882 123.118 420.081 123.66 419.232 124.15C418.398 124.641 417.556 125.06 416.707 125.404C415.872 125.763 415.068 125.969 414.301 126.021C414.144 126.021 413.983 126.021 413.822 126.021C413.123 126.021 412.318 125.916 411.417 125.703C410.519 125.49 409.628 125.112 408.753 124.569C407.892 124.027 407.163 123.339 406.568 122.5C405.969 121.655 405.621 120.712 405.513 119.679C405.461 119.189 405.434 118.725 405.434 118.287C405.434 116.499 405.865 114.927 406.725 113.573ZM412.273 118.287C412.326 118.882 412.558 119.335 412.969 119.638C413.381 119.93 413.912 120.076 414.559 120.076C414.773 120.076 414.982 120.076 415.195 120.076C415.794 120.023 416.467 119.724 417.223 119.182C417.994 118.639 418.779 118.003 419.591 117.273C420.411 116.544 421.211 115.773 421.997 114.965C422.79 114.145 423.46 113.408 424.002 112.757C424.111 111.938 424.189 111.137 424.242 110.355C424.294 109.558 424.346 108.784 424.399 108.028C423.699 108.623 422.816 109.266 421.757 109.955C420.695 110.632 419.636 111.294 418.577 111.945C417.53 112.593 416.542 113.191 415.614 113.734C414.686 114.276 414.035 114.707 413.665 115.025C413.175 115.41 412.816 115.889 412.591 116.458C412.378 117.026 412.273 117.532 412.273 117.969C412.273 118.074 412.273 118.179 412.273 118.287Z" stroke="#42210B" stroke-width="7"/>
<path d="M22.4193 76.2764L23.5716 83.595L20.2194 84.5828L24.7089 106.808L33.658 84.8222L31.0541 84.1787L32.5207 77.4887L48.8026 77.5784L46.1987 86.1243L43.5948 85.6304C43.2655 86.6107 42.7605 88.0101 42.0833 89.836C41.4024 91.6544 40.6467 93.7048 39.8086 95.9872C38.9706 98.2621 38.0727 100.679 37.1149 103.231C36.1646 105.775 35.2593 108.23 34.3913 110.594C33.5233 112.959 32.6928 115.144 31.9071 117.15C31.1177 119.155 30.4779 120.787 29.9916 122.044L35.4538 121.954L35.0497 127.821L15.8347 129.452L15.5803 122.119L18.8426 121.954L10.7017 87.1869L8.17258 87.9203L5 79.8534L22.4193 76.2764Z" fill="#55CBCD"/>
<path d="M40.0161 101.435C40.1246 100.728 40.3154 100.025 40.5847 99.3249C40.8541 98.5093 41.2058 97.6337 41.6472 96.7058C42.3431 96.6572 43.024 96.631 43.6825 96.631C44.0005 96.631 44.326 96.631 44.6552 96.631C45.4109 96.7432 46.1854 96.9079 46.9748 97.1249C47.7605 97.3344 48.3142 97.7385 48.6359 98.3371C47.8278 100.455 47.203 102.857 46.7653 105.551C46.335 108.237 46.0769 110.531 45.9871 112.436C45.9048 114.333 45.8674 115.825 45.8674 116.911C45.8674 118.048 45.9048 119.35 45.9871 120.817C46.0769 122.283 46.2565 123.372 46.5258 124.079L41.4826 125.546C41.101 124.948 40.7643 123.78 40.465 122.044C40.1657 120.3 40.0011 118.763 39.9712 117.434C39.9412 116.11 39.9263 115.227 39.9263 114.785C39.9263 112.941 40.0198 110.991 40.2106 108.933C40.3977 106.868 40.8242 105.023 41.4826 103.396C41.202 103.287 40.9289 103.209 40.6596 103.156C40.3902 103.096 40.1732 103.067 40.0161 103.067C39.9562 102.85 39.9263 102.603 39.9263 102.333C39.9263 102.064 39.9562 101.764 40.0161 101.435ZM43.6825 88.3994C44.0604 87.9729 44.5729 87.7559 45.2239 87.7559C45.3324 87.7559 45.4671 87.7559 45.6279 87.7559C46.6044 87.8681 47.2965 88.1525 47.7081 88.6089C48.1159 89.0692 48.3216 89.6791 48.3216 90.4349C48.3216 90.925 48.1159 91.5237 47.7081 92.2308C47.2965 92.9417 46.5483 93.2935 45.4633 93.2935C45.4109 93.2935 45.3324 93.2935 45.2239 93.2935C44.4644 93.2336 43.8957 92.9118 43.5179 92.3206C43.1363 91.722 42.9492 91.0709 42.9492 90.36C42.9492 89.6529 43.1924 88.9981 43.6825 88.3994Z" fill="#55CBCD"/>
<path d="M50.7522 96.9604C51.4106 96.5226 52.1327 96.1297 52.9221 95.778C53.7077 95.4188 54.4822 95.1906 55.2417 95.0896C55.728 95.8977 56.2181 96.9155 56.7082 98.1427C57.1946 99.3625 57.6398 100.68 58.0401 102.094C58.4479 103.501 58.8407 104.967 59.2224 106.494C59.6002 108.013 59.8995 109.502 60.1203 110.969C60.876 109.064 61.6916 107.134 62.5596 105.177C63.4275 103.224 64.2431 101.432 65.0138 99.804C65.8818 97.9594 66.7722 96.1447 67.6925 94.3562C68.669 94.895 69.5931 95.4338 70.4611 95.9726C71.2168 96.4627 71.9501 96.9828 72.6609 97.5291C73.368 98.0679 73.8806 98.558 74.2023 98.9958C72.9527 100.732 71.6508 102.932 70.2965 105.596C68.9384 108.253 67.6776 110.909 66.5103 113.573C65.343 116.23 64.3628 118.669 63.5772 120.892C62.799 123.118 62.3538 124.671 62.2453 125.546L56.379 125.786L52.7874 103.875L51.3358 104.608L48.6421 98.6665C49.3492 98.0679 50.0525 97.4992 50.7522 96.9604Z" fill="#55CBCD"/>
<path d="M76.3182 106.479C76.7073 104.526 77.3433 102.775 78.2338 101.226C79.1317 99.6804 80.2278 98.4344 81.5261 97.4841C82.8318 96.5374 84.3021 96.0623 85.9407 96.0623C87.2951 96.0623 88.4586 96.2419 89.4276 96.601C90.4041 96.9528 91.2309 97.4242 91.9118 98.0229C92.5889 98.614 93.1426 99.3175 93.5729 100.133C94.0106 100.953 94.3398 101.764 94.5606 102.573C94.9983 104.099 95.219 105.757 95.219 107.542C95.219 108.08 95.1891 108.649 95.1293 109.248L83.0824 117.479C83.4603 118.239 83.9092 118.823 84.4293 119.23C84.9456 119.642 85.4993 119.844 86.0904 119.844C86.1989 119.844 86.2849 119.844 86.3448 119.844C87.2128 119.735 87.9947 119.41 88.6943 118.871C89.4014 118.325 90.0299 117.749 90.5799 117.15C91.1673 116.394 91.706 115.549 92.1961 114.621L95.3837 117.554C95.0021 118.972 94.381 120.226 93.513 121.311C92.7423 122.231 91.721 123.069 90.4452 123.825C89.1769 124.585 87.5121 124.962 85.4469 124.962C85.3347 124.962 85.2 124.962 85.0428 124.962C83.8943 124.91 82.8056 124.551 81.7805 123.87C80.7516 123.193 79.8275 122.283 79.0119 121.146C78.1926 120.001 77.5154 118.699 76.9767 117.24C76.438 115.773 76.0825 114.224 75.9142 112.585C75.8618 111.998 75.8394 111.429 75.8394 110.879C75.8394 109.364 75.9965 107.897 76.3182 106.479ZM81.8553 112.106L90.0112 106.733C89.9514 105.805 89.7867 105.02 89.5174 104.369C89.2966 103.77 88.9824 103.227 88.5746 102.737C88.1743 102.251 87.5906 102.004 86.8237 102.004C86.7713 102.004 86.6927 102.004 86.5842 102.004C85.7163 102.004 84.968 102.318 84.3395 102.947C83.7184 103.568 83.2208 104.354 82.843 105.312C82.4614 106.262 82.2032 107.265 82.0648 108.32C81.9226 109.379 81.8553 110.34 81.8553 111.208C81.8553 111.478 81.8553 111.777 81.8553 112.106Z" fill="#55CBCD"/>
<path d="M98.7125 97.1997L106.853 96.631L107.108 99.4746C107.486 98.8872 107.905 98.2773 108.365 97.6487C108.821 97.0201 109.311 96.4626 109.832 95.9725C110.348 95.486 110.902 95.1044 111.493 94.835C112.091 94.5656 112.69 94.4309 113.288 94.4309C115.241 94.4908 116.813 95.067 118.002 96.1521C119.2 97.2296 120.098 98.629 120.696 100.343C121.295 102.049 121.646 103.706 121.759 105.312C121.867 106.909 121.923 108.252 121.923 109.338C121.923 110.258 121.882 111.41 121.804 112.795C121.721 114.183 121.534 115.691 121.235 117.315C120.936 118.942 120.674 120.166 120.457 120.981L123.225 122.044L121.998 126.758L113.453 124.813C114.321 120.633 114.89 116.911 115.159 113.648C115.268 112.241 115.339 111.16 115.369 110.4C115.399 109.633 115.413 109.169 115.413 109.008C115.413 107.871 115.316 106.789 115.129 105.761C114.938 104.724 114.624 103.867 114.186 103.186C113.756 102.509 113.157 102.146 112.391 102.094C112.338 102.094 112.286 102.094 112.226 102.094C111.635 102.094 111.081 102.46 110.565 103.186C110.045 103.916 109.555 104.934 109.098 106.239C108.638 107.549 108.23 109.046 107.871 110.729C107.519 112.406 107.198 114.127 106.898 115.893C106.599 117.659 106.322 119.41 106.075 121.146C105.836 122.882 105.604 124.431 105.387 125.786C105.118 126.003 104.601 126.115 103.846 126.115C103.415 126.115 102.94 126.085 102.424 126.025C101.904 125.973 101.429 125.894 101.002 125.786L99.5356 125.456C99.6441 124.858 99.8424 123.668 100.134 121.879C100.433 120.083 100.733 118.048 101.032 115.773C101.331 113.491 101.59 111.126 101.81 108.679C102.027 106.236 102.14 104.092 102.14 102.243L98.6377 102.408L98.7125 97.1997Z" fill="#55CBCD"/>
<path d="M126.559 111.702C126.559 109.42 126.802 107.287 127.292 105.312C127.779 103.328 128.512 101.577 129.492 100.058C130.469 98.5317 131.651 97.3119 133.039 96.3915C134.423 95.4636 135.987 94.9772 137.723 94.9248C137.88 94.9248 138.071 94.9248 138.292 94.9248C139.377 94.9248 140.379 95.0894 141.3 95.4187C142.227 95.7405 143.013 96.167 143.664 96.7058C143.821 94.9211 143.982 93.3496 144.143 91.9914C144.311 90.6369 144.476 89.6566 144.637 89.0579C144.416 89.1702 144.225 89.2226 144.068 89.2226C143.907 89.275 143.773 89.2974 143.664 89.2974C143.552 89.2974 143.473 89.275 143.425 89.2226C143.425 89.0654 143.41 88.8484 143.38 88.579C143.35 88.3021 143.335 88.0814 143.335 87.9205C143.335 87.6511 143.357 87.3031 143.41 86.8728C143.47 86.4351 143.563 85.9449 143.694 85.4061C143.832 84.8598 144.012 84.3959 144.233 84.0142C144.39 83.9057 144.689 83.8496 145.131 83.8496C145.348 83.8496 145.752 83.8795 146.343 83.9394C146.941 83.9918 147.727 84.1489 148.707 84.4183C149.684 84.6877 150.526 84.9871 151.236 85.3163C151.943 85.6381 152.299 85.9374 152.299 86.2143C152.299 86.2667 152.299 86.2891 152.299 86.2891C151.917 87.2096 151.495 88.5266 151.027 90.2403C150.567 91.9465 150.159 93.8884 149.8 96.0622C149.448 98.2399 149.179 100.455 148.992 102.707C148.801 104.952 148.707 107.078 148.707 109.083C148.707 109.633 148.722 110.67 148.752 112.196C148.782 113.715 148.995 115.695 149.396 118.138C149.803 120.574 150.443 122.8 151.311 124.813C150.93 125.082 150.496 125.374 150.009 125.696C149.579 125.973 149.025 126.257 148.348 126.549C147.667 126.848 146.867 127.163 145.939 127.492C145.131 126.403 144.506 124.693 144.068 122.358C143.088 123.398 141.962 124.282 140.686 125.007C139.407 125.744 137.955 126.115 136.331 126.115C136.219 126.115 136.11 126.115 136.002 126.115C135.194 126.055 134.259 125.711 133.204 125.082C132.145 124.465 131.127 123.563 130.151 122.373C129.17 121.176 128.329 119.687 127.622 117.898C126.911 116.102 126.559 114.037 126.559 111.702ZM132.755 110.4C132.803 113.165 133.278 115.362 134.176 116.985C135.074 118.613 136.144 119.425 137.394 119.425C137.442 119.425 137.499 119.425 137.558 119.425C138.314 119.425 139.017 119.141 139.668 118.572C140.327 118.003 140.896 117.262 141.374 116.342C141.861 115.414 142.242 114.396 142.512 113.289C142.789 112.174 142.931 111.07 142.931 109.981C142.931 108.896 142.834 107.867 142.646 106.898C142.456 105.921 142.171 105.068 141.793 104.339C141.412 103.602 140.963 103.029 140.447 102.618C139.927 102.21 139.343 102.004 138.696 102.004C138.045 102.004 137.368 102.251 136.66 102.737C135.95 103.227 135.314 103.867 134.745 104.653C134.176 105.442 133.701 106.325 133.323 107.302C132.942 108.282 132.755 109.315 132.755 110.4Z" fill="#55CBCD"/>
<path d="M154.648 105.012C155.134 103.119 155.883 101.413 156.893 99.8938C157.899 98.3672 159.092 97.1324 160.469 96.1821C161.854 95.2354 163.361 94.7603 164.989 94.7603C166.235 94.7603 167.458 95.1007 168.655 95.778C169.852 96.4589 170.892 97.4505 171.783 98.7563C172.681 100.055 173.332 101.563 173.743 103.276C174.151 104.982 174.357 106.73 174.357 108.514C174.357 109.173 174.331 109.854 174.282 110.55C174.11 112.727 173.687 114.752 173.01 116.626C172.329 118.493 171.502 120.095 170.526 121.43C169.546 122.759 168.513 123.75 167.428 124.409C166.351 125.056 165.322 125.382 164.345 125.382C164.233 125.382 164.098 125.382 163.941 125.382C162.145 125.21 160.649 124.693 159.452 123.825C158.262 122.957 157.3 121.861 156.563 120.533C155.834 119.208 155.28 117.689 154.902 115.983C154.521 114.269 154.248 112.488 154.079 110.64C154.027 110.202 154.004 109.768 154.004 109.338C154.004 107.923 154.218 106.479 154.648 105.012ZM159.781 112.585C159.841 113.674 160.005 114.722 160.275 115.728C160.544 116.739 160.948 117.622 161.487 118.377C162.033 119.137 162.744 119.541 163.612 119.59C163.661 119.59 163.739 119.59 163.851 119.59C164.607 119.59 165.295 119.298 165.917 118.707C166.545 118.108 167.061 117.39 167.473 116.551C167.881 115.706 168.18 114.823 168.371 113.902C168.558 112.974 168.655 112.211 168.655 111.612C168.655 111.014 168.625 110.176 168.565 109.098C168.513 108.013 168.356 106.924 168.086 105.835C167.817 104.75 167.383 103.785 166.785 102.947C166.186 102.101 165.318 101.622 164.181 101.51C164.128 101.51 164.076 101.51 164.016 101.51C163.526 101.51 163.036 101.809 162.549 102.408C162.059 103.007 161.625 103.755 161.247 104.653C160.866 105.551 160.552 106.49 160.305 107.467C160.065 108.447 159.889 109.259 159.781 109.906C159.781 110.288 159.781 110.692 159.781 111.119C159.781 111.56 159.781 112.047 159.781 112.585Z" fill="#55CBCD"/>
<path d="M190.556 97.1997L198.697 96.631L198.952 99.4746C199.33 98.8872 199.749 98.2773 200.209 97.6487C200.665 97.0201 201.155 96.4626 201.675 95.9725C202.192 95.486 202.745 95.1044 203.336 94.835C203.935 94.5656 204.534 94.4309 205.132 94.4309C207.085 94.4908 208.656 95.067 209.846 96.1521C211.043 97.2296 211.941 98.629 212.54 100.343C213.138 102.049 213.49 103.706 213.602 105.312C213.711 106.909 213.767 108.252 213.767 109.338C213.767 110.258 213.726 111.41 213.647 112.795C213.565 114.183 213.378 115.691 213.079 117.315C212.779 118.942 212.517 120.166 212.3 120.981L215.069 122.044L213.842 126.758L205.297 124.813C206.165 120.633 206.733 116.911 207.003 113.648C207.111 112.241 207.182 111.16 207.212 110.4C207.242 109.633 207.257 109.169 207.257 109.008C207.257 107.871 207.16 106.789 206.973 105.761C206.782 104.724 206.468 103.867 206.03 103.186C205.6 102.509 205.001 102.146 204.234 102.094C204.182 102.094 204.13 102.094 204.07 102.094C203.479 102.094 202.925 102.46 202.409 103.186C201.889 103.916 201.398 104.934 200.942 106.239C200.482 107.549 200.074 109.046 199.715 110.729C199.363 112.406 199.041 114.127 198.742 115.893C198.443 117.659 198.166 119.41 197.919 121.146C197.68 122.882 197.448 124.431 197.231 125.786C196.961 126.003 196.445 126.115 195.689 126.115C195.259 126.115 194.784 126.085 194.268 126.025C193.748 125.973 193.272 125.894 192.846 125.786L191.379 125.456C191.488 124.858 191.686 123.668 191.978 121.879C192.277 120.083 192.577 118.048 192.876 115.773C193.175 113.491 193.433 111.126 193.654 108.679C193.871 106.236 193.983 104.092 193.983 102.243L190.481 102.408L190.556 97.1997Z" fill="#55CBCD"/>
<path d="M219.63 113.573C220.655 111.938 221.957 110.55 223.535 109.413C225.111 108.275 226.712 107.343 228.339 106.614C229.963 105.877 231.213 105.263 232.08 104.773C233.117 104.174 233.835 103.677 234.235 103.276C234.643 102.868 234.864 102.569 234.894 102.378C234.924 102.191 234.939 102.094 234.939 102.094C234.939 101.817 234.812 101.581 234.565 101.391C234.325 101.203 234.071 101.028 233.801 100.867C233.742 100.867 233.682 100.852 233.622 100.822C233.569 100.792 233.491 100.777 233.382 100.777C233.33 100.777 233.281 100.777 233.233 100.777C233.012 100.777 232.563 100.889 231.886 101.106C231.205 101.327 230.442 101.641 229.596 102.049C228.758 102.461 227.943 102.883 227.157 103.321C226.368 103.751 225.814 104.126 225.496 104.444C225.215 103.905 224.856 103.351 224.418 102.782C223.988 102.214 223.558 101.656 223.131 101.106C222.641 100.507 222.121 99.9163 221.575 99.3251C222.929 98.5581 224.239 97.8509 225.496 97.1999C226.521 96.6611 227.55 96.1635 228.579 95.7033C229.615 95.2356 230.434 94.9774 231.033 94.925C231.351 94.925 231.676 94.8951 232.006 94.8352C232.384 94.8951 232.874 94.94 233.472 94.9699C234.071 94.9924 234.842 95.2056 235.792 95.6135C236.738 96.025 237.7 96.6387 238.68 97.4543C239.657 98.2625 240.581 99.4262 241.449 100.942C242.156 102.139 242.549 103.65 242.631 105.476C242.709 107.295 242.751 108.934 242.751 110.4C242.751 111.1 242.736 112.196 242.706 113.693C242.683 115.182 242.661 116.428 242.631 117.435C242.601 118.445 242.586 119.002 242.586 119.111C242.586 120.738 242.751 121.797 243.08 122.284C242.638 122.665 242.152 123.017 241.613 123.346C241.172 123.616 240.655 123.885 240.057 124.155C239.466 124.424 238.845 124.615 238.186 124.723C237.696 124.297 237.341 123.758 237.124 123.107C236.914 122.448 236.753 121.685 236.645 120.817C235.994 121.356 235.287 121.925 234.52 122.523C233.76 123.122 232.963 123.668 232.125 124.155C231.287 124.645 230.442 125.06 229.596 125.412C228.758 125.771 227.958 125.973 227.202 126.025C227.041 126.025 226.876 126.025 226.708 126.025C226.008 126.025 225.212 125.913 224.314 125.696C223.416 125.487 222.533 125.112 221.665 124.574C220.797 124.027 220.064 123.331 219.465 122.493C218.866 121.648 218.511 120.708 218.402 119.68C218.35 119.193 218.328 118.729 218.328 118.288C218.328 116.503 218.762 114.931 219.63 113.573ZM225.167 118.288C225.215 118.886 225.443 119.335 225.855 119.635C226.263 119.934 226.79 120.084 227.441 120.084C227.658 120.084 227.879 120.084 228.1 120.084C228.698 120.035 229.376 119.739 230.135 119.201C230.891 118.654 231.676 118.015 232.485 117.285C233.3 116.548 234.104 115.773 234.894 114.965C235.68 114.149 236.346 113.409 236.884 112.75C236.993 111.942 237.071 111.145 237.124 110.355C237.184 109.57 237.243 108.795 237.303 108.036C236.592 108.634 235.709 109.274 234.654 109.951C233.596 110.632 232.533 111.295 231.467 111.942C230.408 112.593 229.417 113.192 228.489 113.738C227.569 114.277 226.921 114.711 226.543 115.04C226.053 115.422 225.698 115.893 225.481 116.462C225.271 117.03 225.167 117.536 225.167 117.973C225.167 118.074 225.167 118.179 225.167 118.288Z" fill="#55CBCD"/>
<path d="M257.564 125.621C257.673 125.509 257.838 125.105 258.058 124.409C258.275 123.701 258.496 122.964 258.717 122.194C258.926 121.228 259.169 120.169 259.45 119.021C259.936 119.081 260.423 119.167 260.902 119.275C261.339 119.327 261.844 119.38 262.413 119.44C262.982 119.492 263.539 119.571 264.089 119.679C264.407 117.835 264.677 115.436 264.897 112.48C265.114 109.517 265.279 106.434 265.391 103.231C265.5 100.028 265.578 96.9077 265.631 93.862C265.69 90.8201 265.72 88.2945 265.72 86.289L262.219 86.7829L260.423 79.1201C262.645 78.4129 265.384 77.9228 268.639 77.6534C271.901 77.384 275.212 77.2493 278.575 77.2493C280.528 77.2493 282.429 77.2904 284.277 77.369C286.121 77.4513 287.801 77.5449 289.32 77.6534C290.847 77.7656 292.164 77.9153 293.271 78.1024C294.386 78.2932 295.19 78.4728 295.68 78.6411C295.299 80.4296 294.947 82.1882 294.618 83.9243C294.348 85.391 294.143 86.7642 294.004 88.0401C293.873 89.3197 293.81 90.3898 293.81 91.2579C293.81 91.7967 293.832 92.313 293.885 92.7994C293.454 92.7508 292.871 92.7096 292.134 92.6797C291.404 92.6498 290.686 92.6348 289.979 92.6348H287.45L285.908 85.7951L273.607 85.9598L274.176 100.627C275.59 100.35 277.056 100.103 278.575 99.8935C280.102 99.6765 281.348 99.5643 282.317 99.5643C282.534 99.5643 282.754 99.5643 282.975 99.5643C282.923 99.9946 282.9 100.429 282.9 100.866C282.84 101.297 282.795 101.757 282.766 102.243C282.743 102.733 282.679 103.253 282.571 103.8C282.459 104.99 282.324 106.37 282.167 107.945L272.963 107.631C272.963 108.499 272.934 109.502 272.874 110.639L272.634 114.052C272.522 115.2 272.399 116.319 272.26 117.404C272.129 118.482 271.983 119.402 271.826 120.158C272.803 120.158 273.925 120.136 275.193 120.083C276.469 120.035 277.771 119.956 279.099 119.844C280.435 119.735 281.752 119.616 283.05 119.485C284.356 119.346 285.497 119.193 286.477 119.021C286.746 117.995 287.038 116.817 287.36 115.489C287.689 114.153 287.906 113.184 288.018 112.585C288.505 112.585 289.103 112.563 289.814 112.51C290.521 112.462 291.198 112.405 291.849 112.346C292.605 112.297 293.394 112.218 294.214 112.106L292.912 127.252C291.064 127.679 288.976 127.989 286.641 128.18C284.307 128.367 281.916 128.465 279.473 128.465C276.918 128.465 274.393 128.382 271.901 128.225C269.406 128.064 267.142 127.843 265.107 127.567C263.072 127.297 261.373 126.987 260.019 126.639C258.661 126.287 257.841 125.95 257.564 125.621Z" fill="#55CBCD"/>
<path d="M298.121 102.168C298.23 101.57 298.443 100.907 298.765 100.178C299.094 99.4407 299.445 98.7485 299.827 98.0975C300.205 97.2818 300.669 96.4661 301.219 95.658C302.573 96.4661 303.767 97.1696 304.795 97.7682C305.712 98.3182 306.524 98.7972 307.235 99.205C307.942 99.6054 308.297 99.8336 308.297 99.8935C307.646 100.971 307.145 102.505 306.786 104.488C306.434 106.475 306.262 108.447 306.262 110.4C306.262 110.561 306.27 111.201 306.292 112.316C306.322 113.423 306.55 114.751 306.98 116.297C307.418 117.846 308.073 118.643 308.941 118.691C309.539 118.691 310.097 118.385 310.617 117.763C311.133 117.135 311.608 116.293 312.039 115.234C312.476 114.179 312.895 112.985 313.296 111.657C313.703 110.333 314.074 108.959 314.403 107.541C315.219 104.29 315.922 100.545 316.513 96.3015C317.441 96.4736 318.283 96.6607 319.042 96.8702C319.749 97.0424 320.453 97.2519 321.152 97.4988C321.859 97.7383 322.402 98.0189 322.783 98.337C322.514 99.3173 322.297 100.907 322.14 103.111C321.979 105.308 321.886 107.122 321.856 108.559C321.826 109.996 321.811 110.905 321.811 111.283C321.811 113.408 321.889 115.623 322.05 117.928C322.219 120.233 322.492 122.119 322.873 123.585C322.275 124.016 321.676 124.341 321.077 124.558C320.479 124.779 319.91 124.94 319.371 125.052C318.773 125.161 318.174 125.217 317.576 125.217L316.363 120.158C315.765 121.198 314.882 122.261 313.715 123.346C312.547 124.424 311.096 125.015 309.36 125.127C309.079 125.127 308.806 125.127 308.537 125.127C306.801 125.127 305.308 124.779 304.062 124.079C302.813 123.372 301.821 122.381 301.084 121.101C300.355 119.825 299.865 118.429 299.618 116.91C299.378 115.384 299.258 113.943 299.258 112.585C299.258 112.316 299.266 111.695 299.288 110.714C299.318 109.738 299.468 108.492 299.737 106.973C300.014 105.457 300.291 104.181 300.56 103.141C299.692 102.715 298.877 102.389 298.121 102.168Z" fill="#55CBCD"/>
<path d="M328.24 95.4935C328.839 95.0557 329.501 94.6217 330.231 94.1914C330.968 93.7536 331.69 93.4244 332.401 93.2036C333.269 94.023 333.901 94.8948 334.301 95.8227C334.709 96.7432 335.023 97.7983 335.244 98.9956C336.06 98.18 337.092 97.484 338.342 96.9153C339.588 96.3466 340.89 95.9051 342.248 95.5833C343.602 95.254 344.825 95.052 345.914 94.9697C346.999 94.8799 347.867 94.835 348.518 94.835C348.896 94.835 349.221 94.835 349.491 94.835C349.869 96.0323 350.074 97.0425 350.104 97.8582C350.134 98.6664 350.149 99.2613 350.149 99.6392C350.149 100.399 350.119 101.106 350.059 101.764C349.958 102.902 349.798 104.017 349.581 105.102L344.448 106.165L343.954 102.408C343.464 102.677 342.865 102.962 342.158 103.261C341.458 103.56 340.714 103.916 339.928 104.324C339.139 104.735 338.375 105.252 337.638 105.88C336.909 106.501 336.299 107.272 335.813 108.2C335.7 109.18 335.551 110.482 335.364 112.106C335.173 113.734 335.008 115.406 334.87 117.12C334.739 118.826 334.66 120.293 334.63 121.52C334.608 122.74 334.601 123.672 334.601 124.319C334.601 124.966 334.601 125.535 334.601 126.025C333.134 126.085 332.139 126.122 331.623 126.145C331.102 126.175 330.792 126.19 330.695 126.19C329.875 126.19 329.142 126.077 328.495 125.86C328.652 124.723 328.772 123.178 328.854 121.221C328.933 119.268 328.989 117.217 329.019 115.07C329.049 112.926 329.071 110.797 329.093 108.679C329.123 106.565 329.138 104.75 329.138 103.231L327.028 103.545L326.13 97.1248C326.837 96.5262 327.541 95.9836 328.24 95.4935Z" fill="#55CBCD"/>
<path d="M353.317 105.012C353.804 103.119 354.552 101.413 355.562 99.8938C356.568 98.3672 357.762 97.1324 359.139 96.1821C360.523 95.2354 362.031 94.7603 363.658 94.7603C364.904 94.7603 366.127 95.1007 367.325 95.778C368.522 96.4589 369.562 97.4505 370.452 98.7563C371.35 100.055 372.001 101.563 372.413 103.276C372.82 104.982 373.026 106.73 373.026 108.514C373.026 109.173 373 109.854 372.951 110.55C372.779 112.727 372.357 114.752 371.679 116.626C370.998 118.493 370.172 120.095 369.195 121.43C368.215 122.759 367.182 123.75 366.097 124.409C365.02 125.056 363.991 125.382 363.015 125.382C362.902 125.382 362.768 125.382 362.611 125.382C360.815 125.21 359.318 124.693 358.121 123.825C356.931 122.957 355.97 121.861 355.233 120.533C354.503 119.208 353.95 117.689 353.572 115.983C353.19 114.269 352.917 112.488 352.749 110.64C352.696 110.202 352.674 109.768 352.674 109.338C352.674 107.923 352.887 106.479 353.317 105.012ZM358.45 112.585C358.51 113.674 358.675 114.722 358.944 115.728C359.214 116.739 359.618 117.622 360.156 118.377C360.703 119.137 361.413 119.541 362.281 119.59C362.33 119.59 362.409 119.59 362.521 119.59C363.277 119.59 363.965 119.298 364.586 118.707C365.215 118.108 365.731 117.39 366.142 116.551C366.55 115.706 366.849 114.823 367.04 113.902C367.227 112.974 367.325 112.211 367.325 111.612C367.325 111.014 367.295 110.176 367.235 109.098C367.182 108.013 367.025 106.924 366.756 105.835C366.487 104.75 366.053 103.785 365.454 102.947C364.855 102.101 363.987 101.622 362.85 101.51C362.798 101.51 362.745 101.51 362.685 101.51C362.195 101.51 361.705 101.809 361.219 102.408C360.729 103.007 360.295 103.755 359.917 104.653C359.535 105.551 359.221 106.49 358.974 107.467C358.735 108.447 358.559 109.259 358.45 109.906C358.45 110.288 358.45 110.692 358.45 111.119C358.45 111.56 358.45 112.047 358.45 112.585Z" fill="#55CBCD"/>
<path d="M375.628 131.967C376.114 128.225 376.525 124.446 376.855 120.622C377.184 116.791 377.412 113.18 377.543 109.786C377.681 106.397 377.753 103.691 377.753 101.675L375.792 101.764L375.628 96.2269C376.982 96.0099 378.261 95.7891 379.459 95.5684C380.484 95.4112 381.501 95.2653 382.511 95.1343C383.518 94.9959 384.236 94.9248 384.666 94.9248C385.153 95.5758 385.482 96.2793 385.654 97.0351C386.193 96.4364 387.031 95.8677 388.168 95.3289C389.306 94.7901 390.959 94.4908 393.137 94.4309C394.76 94.4309 396.197 95.1007 397.447 96.4364C398.704 97.7647 399.71 99.3923 400.469 101.315C401.225 103.242 401.7 104.952 401.891 106.449C402.078 107.938 402.175 109.061 402.175 109.816C402.175 110.905 402.063 111.882 401.846 112.75C401.524 114.276 401.053 115.814 400.425 117.36C399.803 118.909 399.048 120.319 398.15 121.595C397.252 122.875 396.189 123.892 394.962 124.648C393.743 125.404 392.321 125.786 390.697 125.786C389.657 125.786 388.636 125.486 387.629 124.888C386.631 124.289 385.699 123.612 384.831 122.852C384.401 125.516 383.926 128.064 383.409 130.5C382.889 132.943 382.414 135.117 381.988 137.025C381.498 139.248 381.007 141.34 380.521 143.296C379.541 143.016 378.591 142.773 377.663 142.563C376.903 142.342 376.155 142.122 375.418 141.905C374.688 141.684 374.168 141.523 373.847 141.426C374.546 138.81 375.137 135.656 375.628 131.967ZM388.004 117.479C388.711 118.239 389.444 118.617 390.203 118.617C391.131 118.617 391.902 118.213 392.523 117.404C393.152 116.589 393.615 115.541 393.915 114.261C394.214 112.986 394.364 111.612 394.364 110.146C394.364 108.679 394.237 107.325 393.99 106.075C393.75 104.829 393.369 103.785 392.852 102.947C392.332 102.101 391.722 101.675 391.027 101.675C390.316 101.675 389.68 101.952 389.111 102.498C388.542 103.037 388.063 103.703 387.674 104.488C387.293 105.278 386.993 106.082 386.776 106.898C386.567 107.706 386.436 108.387 386.387 108.933C386.387 109.854 386.342 110.815 386.253 111.822C386.17 112.821 386.077 113.865 385.968 114.95C386.567 115.878 387.244 116.723 388.004 117.479Z" fill="#55CBCD"/>
<path d="M406.737 113.573C407.762 111.938 409.064 110.55 410.643 109.413C412.218 108.275 413.819 107.343 415.447 106.614C417.07 105.877 418.32 105.263 419.188 104.773C420.224 104.174 420.943 103.677 421.343 103.276C421.751 102.868 421.971 102.569 422.001 102.378C422.031 102.191 422.046 102.094 422.046 102.094C422.046 101.817 421.919 101.581 421.672 101.391C421.433 101.203 421.178 101.028 420.909 100.867C420.849 100.867 420.789 100.852 420.729 100.822C420.677 100.792 420.598 100.777 420.49 100.777C420.437 100.777 420.389 100.777 420.34 100.777C420.119 100.777 419.671 100.889 418.993 101.106C418.312 101.327 417.549 101.641 416.704 102.049C415.866 102.461 415.05 102.883 414.264 103.321C413.475 103.751 412.921 104.126 412.603 104.444C412.323 103.905 411.964 103.351 411.526 102.782C411.096 102.214 410.665 101.656 410.239 101.106C409.749 100.507 409.229 99.9163 408.682 99.3251C410.037 98.5581 411.346 97.8509 412.603 97.1999C413.628 96.6611 414.657 96.1635 415.686 95.7033C416.722 95.2356 417.542 94.9774 418.14 94.925C418.458 94.925 418.784 94.8951 419.113 94.8352C419.491 94.8951 419.981 94.94 420.58 94.9699C421.178 94.9924 421.949 95.2056 422.899 95.6135C423.846 96.025 424.807 96.6387 425.787 97.4543C426.764 98.2625 427.688 99.4262 428.556 100.942C429.263 102.139 429.656 103.65 429.738 105.476C429.817 107.295 429.858 108.934 429.858 110.4C429.858 111.1 429.843 112.196 429.813 113.693C429.791 115.182 429.768 116.428 429.738 117.435C429.708 118.445 429.693 119.002 429.693 119.111C429.693 120.738 429.858 121.797 430.187 122.284C429.746 122.665 429.259 123.017 428.721 123.346C428.279 123.616 427.763 123.885 427.164 124.155C426.573 124.424 425.952 124.615 425.294 124.723C424.804 124.297 424.448 123.758 424.231 123.107C424.022 122.448 423.861 121.685 423.752 120.817C423.101 121.356 422.394 121.925 421.627 122.523C420.868 123.122 420.071 123.668 419.233 124.155C418.395 124.645 417.549 125.06 416.704 125.412C415.866 125.771 415.065 125.973 414.309 126.025C414.148 126.025 413.984 126.025 413.815 126.025C413.116 126.025 412.319 125.913 411.421 125.696C410.523 125.487 409.64 125.112 408.772 124.574C407.904 124.027 407.171 123.331 406.572 122.493C405.974 121.648 405.618 120.708 405.51 119.68C405.458 119.193 405.435 118.729 405.435 118.288C405.435 116.503 405.869 114.931 406.737 113.573ZM412.274 118.288C412.323 118.886 412.551 119.335 412.962 119.635C413.37 119.934 413.898 120.084 414.549 120.084C414.766 120.084 414.986 120.084 415.207 120.084C415.806 120.035 416.483 119.739 417.242 119.201C417.998 118.654 418.784 118.015 419.592 117.285C420.408 116.548 421.212 115.773 422.001 114.965C422.787 114.149 423.453 113.409 423.992 112.75C424.1 111.942 424.179 111.145 424.231 110.355C424.291 109.57 424.351 108.795 424.411 108.036C423.7 108.634 422.817 109.274 421.762 109.951C420.703 110.632 419.641 111.295 418.574 111.942C417.516 112.593 416.524 113.192 415.596 113.738C414.676 114.277 414.029 114.711 413.651 115.04C413.161 115.422 412.805 115.893 412.588 116.462C412.379 117.03 412.274 117.536 412.274 117.973C412.274 118.074 412.274 118.179 412.274 118.288Z" fill="#55CBCD"/>
<path d="M184.493 165.375C184.107 165.072 182.73 164.945 175.506 164.728C176.412 161.031 177.268 157.421 178.043 154.154C179.161 149.507 180.149 145.466 180.71 143.016C181.526 139.319 181.997 136.61 182.214 134.717C182.386 132.782 182.3 131.409 181.313 131.065C179.333 130.376 176.756 134.934 167.511 153.208C165.663 156.863 163.729 160.646 161.794 164.343C155.603 164.171 149.882 164.043 149.067 163.871C148.595 163.785 148.165 164.043 148.079 164.515C147.993 164.945 148.292 165.375 148.722 165.461C149.628 165.675 153.927 165.806 160.975 165.978C157.492 172.597 154.099 178.617 151.39 182.273C149.968 184.207 148.636 184.851 147.432 184.121C144.252 182.273 141.801 171.351 145.112 163.912C147.948 157.507 153.41 157.72 157.492 159.011C157.922 159.142 158.397 158.884 158.525 158.453C158.656 158.023 158.439 157.548 157.967 157.421C151.304 155.314 146.186 157.376 143.608 163.269C140.338 170.576 142.018 182.916 146.616 185.584C147.776 186.227 150.099 186.83 152.722 183.26C155.603 179.392 159.172 172.986 162.782 166.019C163.426 166.064 164.073 166.064 164.716 166.064C167.552 166.15 170.605 166.236 173.445 166.322C166.782 194.698 166.782 198.44 168.327 199.084C168.499 199.125 168.63 199.17 168.757 199.17C169.617 199.17 170.347 198.096 170.949 197.063C171.166 196.674 171.035 196.161 170.65 195.903C170.261 195.686 169.745 195.817 169.531 196.203C169.359 196.461 169.232 196.674 169.101 196.846C169.101 195.301 169.572 191.346 171.724 181.24C172.756 176.555 173.916 171.396 175.121 166.363C179.506 166.494 182.989 166.621 183.677 166.794C183.763 166.835 183.89 166.88 184.021 166.88C184.276 166.88 184.534 166.749 184.665 166.535C184.923 166.15 184.837 165.634 184.493 165.375ZM164.758 164.429C164.372 164.429 164.028 164.384 163.643 164.384C165.446 160.904 167.253 157.376 168.974 153.937C173.314 145.38 178.645 134.848 180.624 132.913C180.665 133.815 180.538 136.224 179.075 142.671C178.559 145.122 177.571 149.122 176.453 153.765C175.506 157.72 174.604 161.334 173.83 164.642C171.424 164.601 168.413 164.515 164.758 164.429Z" fill="#42210B"/>
<path d="M205.34 138.245C205.037 137.987 204.651 137.901 204.262 137.987C202.414 138.589 199.107 147.573 195.923 162.363C195.837 162.622 195.71 162.839 195.579 163.097C195.366 161.421 194.247 160.945 193.862 160.818C192.01 160.257 189.088 161.933 187.068 166.236C185.519 169.458 185.219 173.674 187.154 174.789C188.1 175.351 189.731 175.265 192.096 171.822C193.128 170.363 194.034 168.945 194.891 167.568C194.419 170.019 193.948 172.597 193.518 175.306C192.698 180.121 192.096 184.162 191.755 187.088C191.067 192.805 191.411 193.58 192.268 193.838C192.354 193.879 192.485 193.879 192.571 193.879C193.345 193.879 193.862 192.891 194.12 192.248C194.333 191.859 194.161 191.346 193.731 191.174C193.518 191.043 193.259 191.043 193.042 191.129C193.128 189.281 193.559 185.068 195.149 175.609C195.923 170.879 196.742 166.666 197.513 162.966C200.738 156.863 202.373 151.704 203.705 147.618C203.877 147.101 204.049 146.63 204.18 146.2C206.458 139.364 205.598 138.544 205.34 138.245ZM190.723 170.879C189.088 173.244 188.186 173.457 187.969 173.371C187.326 172.986 187.109 170.019 188.572 166.921C190.034 163.826 192.01 162.363 193.087 162.363C193.214 162.363 193.301 162.363 193.387 162.408C194.075 162.581 193.948 163.826 193.903 164.171C193.862 164.556 194.075 164.945 194.46 165.072C193.387 166.921 192.141 168.859 190.723 170.879ZM202.631 145.683C202.459 146.114 202.287 146.585 202.156 147.101C201.385 149.425 200.525 152.044 199.361 155.011C201.168 147.876 202.803 143.405 203.836 141.167C203.664 142.2 203.275 143.663 202.631 145.683Z" fill="#42210B"/>
<path d="M219.312 164.429C218.882 164.216 218.365 164.384 218.193 164.814C213.247 175.22 208.563 180.551 207.531 180.379C207.445 180.338 205.941 178.875 210.797 163.957C210.928 163.568 211.227 162.666 210.539 162.191C209.895 161.679 209.166 162.15 207.961 162.966C206.67 163.785 204.908 164.945 203.531 164.773C207.916 157.204 207.489 155.527 206.498 154.884C204.953 153.982 202.716 156.605 201.683 158.109C199.577 161.376 199.622 164.343 201.855 165.847C204.134 167.437 207.1 165.503 208.863 164.343C208.907 164.298 208.907 164.298 208.949 164.257C207.272 169.544 206.199 173.715 205.81 176.597C205.338 179.777 205.682 181.457 206.887 181.928C207.1 181.969 207.272 182.014 207.489 182.014C210.928 182.014 216.902 171.437 219.697 165.548C219.869 165.117 219.697 164.601 219.312 164.429ZM201.941 161.462C202.544 159.142 204.564 156.99 205.465 156.474C205.379 157.163 204.908 159.097 202.158 163.871C201.855 163.396 201.642 162.666 201.941 161.462Z" fill="#42210B"/>
<path d="M230.141 164.384C229.756 164.129 229.285 164.257 229.026 164.642C226.146 169.285 221.331 173.674 219.868 173.072C219.696 172.986 218.319 172.166 220.212 164.9C220.298 164.429 220.04 163.999 219.61 163.871C219.138 163.785 218.708 164.043 218.577 164.47C217.032 170.535 217.245 173.76 219.18 174.576C219.483 174.703 219.782 174.748 220.081 174.748C223.306 174.748 228.252 168.986 230.444 165.503C230.658 165.117 230.53 164.601 230.141 164.384ZM219.999 160.904C222.191 161.031 222.146 158.281 220.384 158.884C219.483 159.142 218.319 160.818 219.999 160.904Z" fill="#42210B"/>
<path d="M246.435 164.601C246.05 164.429 245.533 164.601 245.361 164.986C242.095 171.654 239.645 173.76 238.481 173.543C238.01 173.457 236.461 172.556 236.075 165.031C236.075 164.687 235.817 164.384 235.518 164.298C235.174 164.215 234.785 164.298 234.613 164.601C234.354 164.9 234.096 165.244 233.838 165.634C232.764 167.093 231.346 169.072 229.625 170.92C229.367 171.223 229.154 171.396 229.023 171.482C228.724 169.974 230.314 164.215 232.85 162.408C233.58 161.892 234.571 161.507 235.903 163.052C236.203 163.396 236.719 163.441 237.063 163.138C237.407 162.88 237.452 162.322 237.194 161.978C235.559 160.085 234.01 160.13 232.981 160.474C229.67 161.634 227.433 167.998 227.347 170.92C227.306 172.125 227.65 172.9 228.338 173.158C229.412 173.588 230.486 172.425 230.83 172.039C232.293 170.449 233.625 168.728 234.571 167.396C235.043 172.297 236.203 174.748 238.141 175.178C238.313 175.178 238.481 175.22 238.653 175.22C241.579 175.22 244.718 170.105 246.824 165.72C247.037 165.289 246.865 164.814 246.435 164.601Z" fill="#42210B"/>
<path d="M261.738 164.556C261.352 164.343 260.836 164.47 260.623 164.9C259.59 166.666 256.882 171.437 255.333 171.265C255.033 171.224 254.173 170.793 253.312 167.781C252.71 165.675 251.895 163.699 250.305 163.613C249.145 163.527 247.854 164.429 245.875 168.126C246.391 166.277 246.949 164.429 247.379 162.925C247.551 162.364 247.682 161.892 247.809 161.421C247.94 160.99 247.682 160.515 247.252 160.388C246.821 160.257 246.35 160.515 246.219 160.99C246.092 161.421 245.961 161.933 245.789 162.45C244.67 166.277 242.994 172.08 242.564 175.609C242.523 175.994 242.781 176.383 243.166 176.469C243.252 176.511 243.297 176.511 243.383 176.511C243.727 176.511 244.027 176.297 244.158 175.994C248.198 165.933 249.829 165.245 250.218 165.245C250.305 165.245 250.907 165.417 251.722 168.257C252.583 171.224 253.702 172.728 255.161 172.9C257.353 173.158 259.332 170.449 262.041 165.72C262.299 165.289 262.127 164.814 261.738 164.556Z" fill="#42210B"/>
<path d="M277.773 164.601C277.388 164.429 276.872 164.601 276.7 164.986C273.433 171.654 270.983 173.76 269.819 173.543C269.348 173.457 267.799 172.556 267.414 165.031C267.414 164.687 267.156 164.384 266.856 164.298C266.512 164.215 266.123 164.298 265.951 164.601C265.693 164.9 265.435 165.244 265.177 165.634C264.103 167.093 262.685 169.072 260.964 170.92C260.706 171.223 260.492 171.396 260.362 171.482C260.062 169.974 261.652 164.215 264.189 162.408C264.918 161.892 265.91 161.507 267.242 163.052C267.541 163.396 268.057 163.441 268.401 163.138C268.746 162.88 268.791 162.322 268.532 161.978C266.897 160.085 265.349 160.13 264.32 160.474C261.009 161.634 258.771 167.998 258.685 170.92C258.644 172.125 258.988 172.9 259.677 173.158C260.751 173.588 261.824 172.425 262.169 172.039C263.631 170.449 264.963 168.728 265.91 167.396C266.381 172.297 267.541 174.748 269.479 175.178C269.651 175.178 269.819 175.22 269.991 175.22C272.917 175.22 276.056 170.105 278.162 165.72C278.376 165.289 278.204 164.814 277.773 164.601Z" fill="#42210B"/>
<path d="M327.299 163.482C327.127 163.052 326.611 162.88 326.181 163.052C324.763 163.699 322.095 164.171 318.784 164.601C318.698 164.384 318.53 164.216 318.272 164.13C317.883 163.958 317.452 164.171 317.28 164.556C317.194 164.642 317.153 164.728 317.108 164.814C315.088 165.073 312.854 165.29 310.576 165.548C307.478 165.847 304.253 166.191 301.204 166.58C300.729 166.622 300.43 167.052 300.471 167.482C300.516 167.912 300.901 168.212 301.29 168.212C301.331 168.212 301.372 168.212 301.417 168.212C304.425 167.826 307.65 167.482 310.748 167.179C312.682 166.966 314.53 166.794 316.248 166.58C312.51 174.146 308.597 180.08 304.856 183.863C301.417 187.388 298.364 188.85 296.172 188.076C294.41 187.388 293.25 185.154 292.906 181.711C292.476 177.715 293.119 172.339 294.795 166.15C297.246 157.118 304.212 142.844 310.703 135.966C312.723 133.815 314.789 132.913 316.034 133.602C318.014 134.717 319.087 139.876 316.079 151.142C315.948 151.573 316.206 152.044 316.637 152.13C317.067 152.261 317.538 152.003 317.669 151.573C321.493 137.212 318.784 133.258 316.85 132.184C314.83 131.065 312.08 132.053 309.498 134.803C302.835 141.901 295.701 156.519 293.205 165.72C289.722 178.617 290.628 187.777 295.615 189.625C300.86 191.559 308.556 184.379 315.821 171.007C314.875 175.736 313.842 181.199 313.026 186.014C312.379 189.752 311.949 192.936 311.691 195.17C311.305 198.784 311.392 199.686 312.252 199.944C312.338 199.986 312.424 199.986 312.551 199.986C313.326 199.986 313.797 198.867 314.399 197.149C314.572 196.719 314.313 196.248 313.883 196.117C313.67 196.031 313.457 196.031 313.24 196.162C313.842 190.269 316.293 176.166 318.53 166.322C322.226 165.847 325.193 165.331 326.869 164.556C327.299 164.384 327.471 163.871 327.299 163.482Z" fill="#42210B"/>
<path d="M344.407 164.814C344.017 164.515 343.505 164.601 343.247 164.945C341.44 167.265 338.473 169.203 336.194 168.773C336.239 168.47 336.281 168.17 336.281 167.867C336.58 163.011 335.076 162.019 334.174 161.847C333.142 161.634 332.068 162.408 331.552 163.699C331.335 163.613 331.08 163.613 330.863 163.785C329.142 164.859 327.724 167.609 328.499 170.576C329.015 172.338 330.22 173.457 331.81 173.457C333.314 173.457 334.904 172.338 335.723 170.363C338.731 171.006 342.341 168.773 344.534 165.978C344.837 165.589 344.751 165.072 344.407 164.814ZM331.851 171.822C331.81 171.822 331.81 171.822 331.81 171.822C330.736 171.781 330.261 170.748 330.134 170.146C329.703 168.687 330.048 166.666 331.252 165.547C331.335 167.007 332.154 168.601 334.215 169.716C333.617 171.092 332.584 171.822 331.851 171.822ZM334.646 167.781C334.604 167.867 334.604 167.953 334.604 168.039C332.97 166.965 332.711 165.589 333.014 164.515C333.228 163.826 333.658 163.482 333.871 163.482C334.088 163.527 334.818 164.343 334.646 167.781Z" fill="#42210B"/>
<path d="M359.88 164.556C359.495 164.343 358.978 164.47 358.765 164.9C357.732 166.666 355.024 171.437 353.475 171.265C353.176 171.224 352.315 170.793 351.455 167.781C350.852 165.675 350.037 163.699 348.447 163.613C347.287 163.527 345.996 164.429 344.017 168.126C344.533 166.277 345.091 164.429 345.521 162.925C345.693 162.364 345.824 161.892 345.951 161.421C346.082 160.99 345.824 160.515 345.394 160.388C344.964 160.257 344.492 160.515 344.361 160.99C344.234 161.421 344.103 161.933 343.931 162.45C342.812 166.277 341.136 172.08 340.706 175.609C340.665 175.994 340.923 176.383 341.308 176.469C341.394 176.511 341.439 176.511 341.525 176.511C341.869 176.511 342.169 176.297 342.3 175.994C346.34 165.933 347.971 165.245 348.361 165.245C348.447 165.245 349.049 165.417 349.865 168.257C350.725 171.224 351.844 172.728 353.303 172.9C355.495 173.158 357.474 170.449 360.183 165.72C360.441 165.289 360.269 164.814 359.88 164.556Z" fill="#42210B"/>
<path d="M384 164.515C383.697 164.171 383.18 164.13 382.836 164.429C379.656 167.179 376.775 169.761 374.067 172.211C374.284 169.503 374.026 167.31 373.12 166.064C372.391 165.072 371.358 164.687 370.071 164.859C368.436 165.117 367.145 165.675 366.199 166.191C366.199 166.15 366.244 166.105 366.244 166.064C366.457 165.548 366.76 164.945 367.059 164.216C368.953 159.872 369.383 157.163 368.436 155.958C368.006 155.442 367.362 155.228 366.588 155.355C363.879 155.872 360.396 160.601 359.192 164.384C359.064 164.814 359.278 165.289 359.753 165.417C360.183 165.548 360.61 165.331 360.782 164.859C361.986 160.945 365.039 157.679 366.629 157.077C366.932 156.946 367.104 156.946 367.104 156.991C367.104 156.991 367.92 157.978 365.555 163.568C365.211 164.257 364.953 164.859 364.74 165.376C363.707 167.74 363.535 168.171 364.093 168.642C364.654 169.117 365.211 168.728 365.814 168.343C366.674 167.826 368.178 166.794 370.326 166.494C370.973 166.408 371.403 166.58 371.788 167.052C372.608 168.171 372.694 170.707 372.219 173.933C366.846 179.006 362.289 183.691 357.819 188.895C351.754 195.817 349.09 201.104 350.295 203.768C350.721 204.801 351.668 205.362 352.917 205.362C352.959 205.362 353.004 205.362 353.004 205.362C357.085 205.362 364.007 200.072 368.264 191.346C370.842 186.1 372.948 179.863 373.767 174.748C376.82 171.908 380.173 168.945 383.914 165.72C384.258 165.417 384.299 164.859 384 164.515ZM366.801 190.658C362.547 199.256 356.053 203.768 352.959 203.727C352.057 203.727 351.84 203.256 351.799 203.125C351.152 201.621 352.659 197.321 359.064 189.969C363.06 185.367 367.059 181.154 371.702 176.724C370.756 180.982 369.039 186.014 366.801 190.658Z" fill="#42210B"/>
<path d="M399.817 164.601C399.431 164.429 398.915 164.601 398.743 164.986C395.477 171.654 393.026 173.76 391.863 173.543C391.391 173.457 389.843 172.556 389.457 165.031C389.457 164.687 389.199 164.384 388.9 164.298C388.556 164.215 388.166 164.298 387.994 164.601C387.736 164.9 387.478 165.244 387.22 165.634C386.146 167.093 384.728 169.072 383.007 170.92C382.749 171.223 382.536 171.396 382.405 171.482C382.106 169.974 383.696 164.215 386.232 162.408C386.962 161.892 387.953 161.507 389.285 163.052C389.584 163.396 390.101 163.441 390.445 163.138C390.789 162.88 390.834 162.322 390.576 161.978C388.941 160.085 387.392 160.13 386.363 160.474C383.052 161.634 380.815 167.998 380.729 170.92C380.688 172.125 381.032 172.9 381.72 173.158C382.794 173.588 383.868 172.425 384.212 172.039C385.675 170.449 387.007 168.728 387.953 167.396C388.425 172.297 389.584 174.748 391.522 175.178C391.694 175.178 391.863 175.22 392.035 175.22C394.961 175.22 398.1 170.105 400.206 165.72C400.419 165.289 400.247 164.814 399.817 164.601Z" fill="#42210B"/>
<path d="M417.529 164.642C417.271 164.256 416.755 164.17 416.411 164.384C413.403 166.322 409.534 168.859 405.535 172.125C405.965 169.158 406.396 166.019 406.826 162.666C406.867 162.236 406.609 161.892 406.265 161.765C405.879 161.634 405.449 161.806 405.277 162.15C404.547 163.355 402.527 166.449 400.847 168.687C400.163 169.543 399.774 169.888 399.56 170.019C399.13 168.642 400.462 162.494 403.171 160.085C404.244 159.097 405.236 159.097 406.309 160.043C406.654 160.343 407.17 160.343 407.469 159.998C407.769 159.654 407.727 159.142 407.428 158.839C405.707 157.29 404.158 157.548 403.171 158.064C399.687 159.785 397.581 166.92 397.88 169.802C397.966 171.092 398.569 171.568 399.044 171.695C400.204 171.994 401.322 170.793 402.138 169.674C402.998 168.556 403.9 167.265 404.719 166.105C404.375 168.814 403.986 171.351 403.601 173.76C398.999 177.756 394.401 182.789 390.918 189.149C388.295 193.879 387.435 197.879 387.177 200.374C386.833 203.641 387.308 206.35 388.509 207.813C389.156 208.628 389.971 209.059 390.873 209.059C391.131 209.059 391.434 209.014 391.734 208.928C395.86 207.768 401.277 197.965 405.105 174.617C409.576 170.793 413.96 167.953 417.271 165.805C417.657 165.547 417.788 165.031 417.529 164.642ZM391.303 207.337C390.701 207.51 390.23 207.337 389.799 206.78C388.164 204.759 387.91 198.01 392.336 189.969C395.348 184.506 399.216 180.035 403.126 176.383C399.216 198.911 394.057 206.563 391.303 207.337Z" fill="#42210B"/>
<path d="M433.519 164.601C433.134 164.429 432.618 164.601 432.446 164.986C429.18 171.654 426.729 173.76 425.565 173.543C425.094 173.457 423.545 172.556 423.16 165.031C423.16 164.687 422.902 164.384 422.602 164.298C422.258 164.215 421.869 164.298 421.697 164.601C421.439 164.9 421.181 165.244 420.923 165.634C419.849 167.093 418.431 169.072 416.71 170.92C416.452 171.223 416.239 171.396 416.108 171.482C415.808 169.974 417.398 164.215 419.935 162.408C420.664 161.892 421.656 161.507 422.988 163.052C423.287 163.396 423.803 163.441 424.148 163.138C424.492 162.88 424.537 162.322 424.279 161.978C422.644 160.085 421.095 160.13 420.066 160.474C416.755 161.634 414.518 167.998 414.432 170.92C414.39 172.125 414.735 172.9 415.423 173.158C416.497 173.588 417.57 172.425 417.915 172.039C419.377 170.449 420.709 168.728 421.656 167.396C422.127 172.297 423.287 174.748 425.225 175.178C425.397 175.178 425.565 175.22 425.738 175.22C428.663 175.22 431.802 170.105 433.908 165.72C434.122 165.289 433.95 164.814 433.519 164.601Z" fill="#42210B"/>
</svg>
