<svg width="800" height="74" viewBox="0 0 800 74" fill="none" xmlns="http://www.w3.org/2000/svg">
<mask id="mask0_259_2" style="mask-type:luminance" maskUnits="userSpaceOnUse" x="502" y="0" width="298" height="74">
<path d="M502.526 0H800V73.0329H502.526V0Z" fill="white"/>
</mask>
<g mask="url(#mask0_259_2)">
<mask id="mask1_259_2" style="mask-type:luminance" maskUnits="userSpaceOnUse" x="505" y="-92" width="291" height="256">
<path d="M580.712 -91.0771L795.067 38.7037L719.75 163.754L505.395 33.9727L580.712 -91.0771Z" fill="white"/>
</mask>
<g mask="url(#mask1_259_2)">
<mask id="mask2_259_2" style="mask-type:luminance" maskUnits="userSpaceOnUse" x="505" y="-92" width="291" height="256">
<path d="M580.712 -91.0771L795.067 38.7037L719.75 163.754L505.395 33.9727L580.712 -91.0771Z" fill="white"/>
</mask>
<g mask="url(#mask2_259_2)">
<path d="M517.964 41.604C516.897 40.9621 515.853 40.2489 514.857 39.5357C514.478 39.2266 514.407 38.8938 514.715 38.5134C515 38.1093 515.332 38.0617 515.735 38.347C517.229 39.4406 518.77 40.4391 520.406 41.3187C520.857 41.5327 520.952 41.8655 520.715 42.3172C520.478 42.7451 520.146 42.8402 519.719 42.6025C519.126 42.2697 518.533 41.9368 517.964 41.604ZM523.94 44.5995C523.513 44.3855 523.394 44.0527 523.608 43.6248C523.821 43.1731 524.153 43.078 524.604 43.2919C526.311 44.0051 528.042 44.5995 529.821 45.075C530.319 45.1938 530.509 45.5029 530.39 45.9784C530.248 46.4776 529.94 46.644 529.465 46.5014C527.616 45.9784 525.813 45.384 524.058 44.647C524.011 44.647 523.987 44.6233 523.94 44.5995ZM511.276 36.5402C511.229 36.5164 511.205 36.4926 511.158 36.4451C509.759 35.1375 508.478 33.7349 507.292 32.2134C506.96 31.833 506.984 31.4764 507.387 31.1673C507.79 30.8583 508.146 30.9058 508.454 31.3337C509.593 32.7839 510.826 34.139 512.154 35.399C512.486 35.6843 512.533 36.0172 512.249 36.3738C511.988 36.7304 511.68 36.7779 511.276 36.5402ZM533.876 47.4286C533.521 47.2146 533.426 46.9293 533.568 46.5489C533.687 46.1685 533.971 46.0259 534.374 46.0735C536.177 46.3825 538.003 46.5965 539.829 46.6678C540.35 46.6678 540.611 46.9293 540.587 47.4286C540.564 47.9516 540.303 48.1893 539.805 48.1418C537.908 48.0467 536.011 47.8565 534.137 47.5474C534.042 47.5237 533.947 47.4761 533.876 47.4286ZM544.168 47.9991C543.836 47.8089 543.741 47.5474 543.813 47.1908C543.907 46.8342 544.121 46.6678 544.477 46.644C545.307 46.5965 546.16 46.5252 546.967 46.4301C547.963 46.3112 548.959 46.1685 549.931 46.0021C550.381 45.9546 550.642 46.1448 550.737 46.5965C550.832 47.0244 550.642 47.3097 550.215 47.4286C549.219 47.6187 548.176 47.7614 547.18 47.8803C546.326 47.9753 545.449 48.0467 544.595 48.0942C544.429 48.0942 544.287 48.0704 544.168 47.9991ZM554.271 46.2874C554.01 46.121 553.891 45.8833 553.915 45.5742C553.962 45.2414 554.128 45.0512 554.437 44.9561C556.215 44.4806 557.946 43.8863 559.654 43.2206C560.104 43.0542 560.413 43.1731 560.602 43.6248C560.792 44.1002 560.65 44.4093 560.199 44.5757C558.468 45.2651 556.666 45.8595 554.864 46.3825C554.65 46.4301 554.46 46.4063 554.271 46.2874ZM563.828 42.6263C563.59 42.4836 563.448 42.2696 563.472 41.9844C563.472 41.6753 563.614 41.4851 563.875 41.3425C565.488 40.5579 567.1 39.6545 568.665 38.7036C569.068 38.4421 569.424 38.5134 569.685 38.9413C569.946 39.3455 569.875 39.6783 569.448 39.9398C567.859 40.9383 566.199 41.8417 564.539 42.6738C564.302 42.7927 564.065 42.7689 563.828 42.6263ZM572.555 37.3247C572.317 37.2058 572.199 36.9919 572.199 36.7541C572.175 36.4926 572.27 36.2787 572.483 36.136C573.954 35.0662 575.377 33.9013 576.776 32.7126C577.131 32.356 577.487 32.3798 577.819 32.7602C578.175 33.1405 578.151 33.4971 577.748 33.83C576.325 35.0424 574.855 36.2311 573.361 37.3009C573.1 37.4911 572.839 37.5149 572.555 37.3485V37.3247ZM586.38 41.5327C585.953 41.2712 585.858 40.9383 586.119 40.5342C586.38 40.1062 586.712 40.0349 587.139 40.2727C588.704 41.2236 590.364 42.0081 592.072 42.6738C592.546 42.864 592.688 43.1731 592.498 43.6248C592.332 44.0765 592.024 44.2191 591.55 44.0289C589.771 43.3395 588.04 42.5074 586.38 41.5327ZM582.467 38.8462C582.443 38.8462 582.42 38.8225 582.396 38.7987C580.878 37.61 579.479 36.3024 578.199 34.876C577.89 34.5194 577.914 34.1628 578.246 33.8537C578.602 33.5447 578.957 33.5685 579.289 33.9013C580.523 35.2802 581.851 36.5164 583.297 37.6575C583.7 37.9428 583.771 38.2994 583.511 38.6798C583.226 39.084 582.894 39.1553 582.467 38.87V38.8462ZM595.961 45.3602C595.581 45.1463 595.486 44.861 595.652 44.4568C595.795 44.0765 596.079 43.9338 596.482 44.0289C598.261 44.4331 600.063 44.6946 601.889 44.7659C602.387 44.7897 602.624 45.0274 602.601 45.5267C602.601 46.0021 602.34 46.2399 601.866 46.2161C599.945 46.1448 598.048 45.8833 596.174 45.4553C596.103 45.4316 596.008 45.4078 595.961 45.3602ZM575.471 31.2862C575.377 31.2386 575.282 31.1673 575.234 31.0722C574.167 29.4556 573.266 27.7914 572.507 26.0084C572.317 25.5567 572.46 25.2477 572.91 25.0575C573.361 24.891 573.693 25.0337 573.859 25.4854C574.57 27.1496 575.448 28.7662 576.467 30.2877C576.681 30.6205 576.657 30.9058 576.373 31.1911C576.112 31.4764 575.803 31.5001 575.471 31.31V31.2862ZM580.285 30.7156C580.238 30.6681 580.191 30.6443 580.143 30.5967C579.787 30.2639 579.787 29.9073 580.119 29.5745C581.305 28.3858 582.443 27.1496 583.534 25.8658L583.819 25.5329C584.151 25.1763 584.483 25.1526 584.862 25.4616C585.242 25.7707 585.265 26.1035 584.957 26.4839L584.673 26.8405C583.534 28.1243 582.396 29.4081 581.187 30.5967C580.926 30.8583 580.617 30.9058 580.285 30.7156ZM606.205 45.9308C605.921 45.7406 605.802 45.4791 605.873 45.1463C605.921 44.8134 606.134 44.6233 606.49 44.5757L606.727 44.5282C608.458 44.2904 610.166 43.9338 611.826 43.4583C612.3 43.3157 612.608 43.4821 612.751 43.9576C612.893 44.4331 612.727 44.7421 612.253 44.861C610.521 45.3602 608.743 45.7406 606.94 45.9784L606.68 46.0259C606.514 46.0497 606.348 46.0021 606.205 45.9308ZM571.369 21.8956C571.203 21.7767 571.084 21.6341 571.037 21.4201C570.586 19.542 570.397 17.6401 570.444 15.7144C570.468 15.2151 570.728 14.9774 571.203 15.0012C571.701 15.0487 571.938 15.2865 571.914 15.7857C571.867 17.5925 572.057 19.3518 572.46 21.111C572.531 21.4439 572.436 21.6816 572.175 21.8718C571.914 22.062 571.653 22.062 571.369 21.8956ZM616.118 43.3157C615.976 43.2444 615.857 43.1255 615.81 42.9591C615.62 42.5074 615.762 42.1746 616.213 42.0081C617.968 41.3663 619.723 40.653 621.359 39.9636C621.809 39.7734 622.141 39.9161 622.331 40.3678C622.521 40.8195 622.402 41.1285 621.952 41.3187C620.268 42.0081 618.513 42.7451 616.758 43.387C616.521 43.4821 616.308 43.4583 616.094 43.3157H616.118ZM586.831 22.9178L586.807 22.8941C586.404 22.6325 586.309 22.2997 586.57 21.8956C586.712 21.6816 586.831 21.4676 586.973 21.2537C587.779 19.9461 588.396 18.5435 588.846 17.0695C588.989 16.6178 589.297 16.4514 589.747 16.594C590.222 16.7367 590.388 17.0457 590.269 17.5212C589.771 19.114 589.107 20.6118 588.23 22.0144C588.111 22.2522 587.969 22.4661 587.827 22.7039C587.566 23.108 587.234 23.1793 586.807 22.9178H586.831ZM571.653 11.7917C571.321 11.5778 571.203 11.2925 571.345 10.9121C571.606 10.1751 571.938 9.46189 572.341 8.77245L572.412 8.62981C573.005 7.67886 573.717 6.823 574.57 6.06225C574.95 5.72941 575.282 5.75319 575.637 6.13357C575.969 6.51395 575.946 6.84678 575.566 7.17961C574.807 7.8215 574.191 8.55849 573.669 9.41434L573.622 9.50944C573.266 10.1276 572.958 10.7694 572.721 11.4351C572.555 11.8868 572.246 12.0294 571.772 11.863C571.725 11.8393 571.677 11.8155 571.653 11.7917ZM625.604 39.4881C625.343 39.3455 625.224 39.1077 625.248 38.7987C625.272 38.5134 625.414 38.2994 625.699 38.1806C627.477 37.4911 629.232 36.8255 630.916 36.2073C631.366 36.0409 631.675 36.1836 631.841 36.6353C632.03 37.087 631.888 37.396 631.438 37.5625C629.754 38.1806 628.023 38.8462 626.268 39.5357C626.031 39.6308 625.817 39.6308 625.604 39.4881ZM589.676 13.3132C589.463 13.1706 589.344 12.9804 589.321 12.7427C589.202 10.9834 588.633 9.36679 587.637 7.86905C587.352 7.46489 587.4 7.13206 587.827 6.84678C588.23 6.56149 588.585 6.63282 588.846 7.06074C589.985 8.74868 590.625 10.603 590.791 12.6238C590.838 13.0993 590.601 13.3608 590.127 13.4083C589.961 13.4083 589.819 13.3846 589.676 13.3132ZM578.768 4.99243C578.602 4.89734 578.483 4.75469 578.436 4.5645C578.293 4.08902 578.459 3.80374 578.91 3.6611C580.926 3.01921 582.918 3.09053 584.886 3.82751C585.337 4.0177 585.479 4.32677 585.313 4.77846C585.147 5.23017 584.815 5.37281 584.364 5.18262C582.704 4.5645 581.021 4.54073 579.361 5.06375C579.147 5.13507 578.934 5.1113 578.744 4.99243H578.768ZM684.178 67.5411L684.06 67.446C683.135 66.8755 682.376 66.1385 681.76 65.2351C681.499 64.8309 681.546 64.4743 681.973 64.2128C682.376 63.9513 682.708 64.0226 682.993 64.4268C683.467 65.14 684.084 65.7581 684.842 66.2098L684.937 66.2811C685.601 66.6853 686.336 66.9468 687.095 67.1132C687.57 67.2083 687.759 67.4936 687.664 67.9691C687.57 68.4208 687.309 68.6347 686.834 68.5396C685.886 68.3732 685.008 68.0404 684.178 67.5411ZM635.208 35.9696C634.947 35.8032 634.829 35.5655 634.852 35.2564C634.9 34.9473 635.066 34.7334 635.35 34.6383C637.153 34.0439 638.931 33.4734 640.686 32.9741C641.16 32.8315 641.469 32.9979 641.611 33.4734C641.753 33.9488 641.587 34.2341 641.113 34.3768C639.382 34.876 637.603 35.4466 635.848 36.0172C635.611 36.1123 635.422 36.0885 635.208 35.9696ZM691.222 68.183C691.056 68.0879 690.961 67.9453 690.89 67.7789C690.747 67.3034 690.913 66.9943 691.388 66.8755C691.886 66.7091 692.36 66.5426 692.834 66.3287C693.973 65.8294 694.992 65.1638 695.917 64.3317C696.297 64.0226 696.629 64.0464 696.961 64.4268C697.293 64.7834 697.269 65.14 696.913 65.4491C695.87 66.3525 694.731 67.1132 693.475 67.6838C692.929 67.9215 692.384 68.1117 691.815 68.2781C691.601 68.3257 691.411 68.3019 691.222 68.183ZM680.503 61.0509C680.289 60.9083 680.171 60.7419 680.147 60.4803C680.028 59.2679 680.123 58.0792 680.408 56.9143C680.598 56.1535 680.835 55.4403 681.143 54.7271C681.333 54.2754 681.665 54.1565 682.115 54.3467C682.566 54.5607 682.708 54.8697 682.518 55.3214C682.234 55.9633 682.02 56.6052 681.854 57.2709C681.594 58.2932 681.522 59.3392 681.617 60.3852C681.665 60.8845 681.428 61.146 680.953 61.1698C680.787 61.1698 680.621 61.1222 680.503 61.0509ZM645.05 33.0692C644.789 32.9028 644.67 32.6651 644.694 32.3322C644.741 32.0232 644.931 31.8092 645.239 31.7379C647.089 31.2624 648.915 30.8583 650.717 30.5017C651.192 30.3828 651.476 30.573 651.595 31.0722C651.69 31.5477 651.5 31.833 651.026 31.9281C649.247 32.2847 647.445 32.7126 645.619 33.1643C645.429 33.2119 645.239 33.1881 645.05 33.0692ZM699 61.9305C698.597 61.669 698.502 61.3362 698.739 60.932C699.64 59.3867 700.281 57.7464 700.66 56.0109C700.755 55.5354 701.039 55.3452 701.537 55.4641C702.012 55.5592 702.201 55.8682 702.107 56.3437C701.703 58.2218 700.992 60.0286 700.02 61.6928C699.759 62.1207 699.427 62.1921 699 61.9305ZM683.87 51.6603L683.799 51.6127C683.396 51.3037 683.348 50.9708 683.657 50.5905C684.51 49.4969 685.435 48.4746 686.408 47.4761C686.74 47.1195 687.095 46.7867 687.451 46.4301C687.807 46.0972 688.162 46.0972 688.494 46.4538C688.85 46.7867 688.85 47.1433 688.494 47.4761C688.162 47.8089 687.807 48.1655 687.475 48.4984C686.526 49.4493 685.649 50.4478 684.842 51.4939C684.558 51.8505 684.25 51.898 683.846 51.6603H683.87ZM655.128 31.0009C654.844 30.8107 654.725 30.5492 654.773 30.2164C654.844 29.8835 655.033 29.6933 655.389 29.6458C657.239 29.3605 659.112 29.099 660.938 28.9326C661.436 28.885 661.721 29.099 661.768 29.5982C661.816 30.0737 661.602 30.359 661.104 30.3828C659.302 30.573 657.452 30.8107 655.603 31.096C655.437 31.1198 655.271 31.096 655.105 31.0009H655.128ZM701.371 52.1358C701.158 52.0169 701.039 51.8029 701.016 51.5414C700.968 50.5191 700.802 49.4731 700.565 48.4746C700.375 47.7614 700.138 47.0482 699.877 46.3587C699.688 45.8833 699.83 45.5742 700.281 45.4078C700.755 45.2414 701.063 45.384 701.253 45.8357C701.537 46.5965 701.775 47.3572 701.988 48.1418C702.249 49.2591 702.415 50.3765 702.462 51.5176C702.486 51.9931 702.273 52.2546 701.775 52.2784C701.632 52.2784 701.49 52.2309 701.371 52.1595V52.1358ZM665.349 29.9311C665.041 29.7409 664.922 29.4794 665.017 29.1228C665.112 28.7662 665.325 28.5998 665.681 28.576C667.649 28.4809 669.547 28.4571 671.349 28.5284C671.847 28.5284 672.108 28.7662 672.108 29.2892C672.084 29.7884 671.823 30.0262 671.302 29.9786C669.57 29.9311 667.697 29.9549 665.776 30.05C665.634 30.05 665.468 30.0262 665.349 29.9311ZM691.056 44.4568C690.984 44.4093 690.913 44.3617 690.866 44.2904C690.558 43.91 690.581 43.5772 690.937 43.2682C692.36 42.0795 693.854 40.9145 695.372 39.821C695.49 39.7496 695.585 39.7021 695.727 39.6783C695.253 39.1791 694.755 38.6798 694.233 38.1806C693.83 37.8477 693.807 37.4911 694.162 37.1108C694.494 36.7304 694.85 36.7304 695.229 37.1108C696.652 38.4421 697.909 39.8923 698.976 41.4851C699.261 41.9131 699.19 42.2459 698.787 42.5074C698.383 42.7689 698.051 42.6976 697.767 42.2934C697.387 41.7229 696.961 41.1523 696.51 40.6055C696.463 40.7719 696.368 40.9146 696.249 41.0096C694.755 42.0795 693.285 43.1968 691.909 44.3617C691.649 44.5995 691.364 44.647 691.032 44.4568H691.056ZM675.641 30.2401C675.309 30.0262 675.214 29.7409 675.333 29.3843C675.475 29.0039 675.736 28.8375 676.116 28.9088C678.013 29.1228 679.886 29.4794 681.712 29.9549C682.186 30.0737 682.376 30.3828 682.258 30.8345C682.139 31.31 681.854 31.5001 681.38 31.3575C679.578 30.9058 677.776 30.573 675.95 30.359C675.855 30.3352 675.736 30.3115 675.641 30.2401ZM685.649 32.7602C685.198 32.5462 685.103 32.2134 685.317 31.7854C685.53 31.3337 685.862 31.2386 686.289 31.4526C686.502 31.5477 686.692 31.619 686.906 31.7141C688.471 32.4035 689.965 33.1881 691.388 34.139C691.815 34.4005 691.886 34.7334 691.625 35.1375C691.364 35.5417 691.008 35.613 690.605 35.3515C689.253 34.4719 687.83 33.6873 686.336 33.0454L685.767 32.8077C685.72 32.8077 685.672 32.7839 685.625 32.7602H685.649ZM699.308 38.4659C699.213 38.4183 699.142 38.3232 699.071 38.2281C698.81 37.824 698.881 37.4674 699.308 37.2296C700.873 36.2549 702.51 35.3277 704.17 34.4719C704.62 34.2341 704.952 34.353 705.166 34.7809C705.403 35.2088 705.308 35.5417 704.881 35.7794C703.245 36.6115 701.632 37.5149 700.091 38.4659C699.83 38.6323 699.569 38.6323 699.308 38.4659ZM708.367 33.7349C708.106 33.5685 707.988 33.3545 708.011 33.0692C708.035 32.7602 708.177 32.57 708.438 32.4511C710.146 31.6903 711.901 31.0009 713.656 30.359C714.106 30.1926 714.438 30.359 714.604 30.8107C714.77 31.2624 714.628 31.5715 714.177 31.7379C712.446 32.3798 710.715 33.0692 709.055 33.7824C708.818 33.9013 708.581 33.8775 708.343 33.7349H708.367ZM717.972 30.2164C717.711 30.0499 717.592 29.8122 717.616 29.5032C717.663 29.1941 717.829 28.9801 718.138 28.885C719.916 28.362 721.742 27.8865 723.568 27.4824C724.042 27.4111 724.327 27.6013 724.422 28.053C724.54 28.5047 724.374 28.7899 723.924 28.9088C722.122 29.313 720.319 29.7884 718.588 30.3115C718.375 30.3828 718.161 30.3352 717.972 30.2164ZM727.979 27.9103C727.694 27.7439 727.576 27.4824 727.623 27.1496C727.694 26.8167 727.884 26.6265 728.216 26.579C730.066 26.2699 731.939 26.0084 733.813 25.842C734.287 25.7944 734.572 26.0084 734.619 26.4839C734.667 26.9831 734.453 27.2446 733.955 27.2922C732.129 27.4586 730.279 27.7201 728.477 28.0292C728.287 28.053 728.121 28.0054 727.979 27.9103ZM738.2 26.8405C737.892 26.6503 737.797 26.3888 737.868 26.0322C737.963 25.6756 738.176 25.5092 738.532 25.4854L739.101 25.4616C740.761 25.3903 742.492 25.3665 744.176 25.3903C744.674 25.3903 744.911 25.6518 744.911 26.1273C744.911 26.6265 744.674 26.8643 744.176 26.8643C742.516 26.8405 740.832 26.8643 739.172 26.9118L738.627 26.9356C738.485 26.9594 738.342 26.9118 738.2 26.8405ZM748.516 26.9356C748.184 26.7454 748.065 26.4601 748.184 26.1035C748.302 25.7231 748.539 25.5567 748.943 25.5805C750.792 25.6994 752.666 25.8658 754.563 26.1035C755.014 26.1748 755.227 26.4363 755.18 26.9118C755.132 27.3873 754.871 27.6013 754.397 27.5537C752.547 27.3397 750.697 27.1496 748.871 27.0545C748.729 27.0307 748.611 27.0069 748.492 26.9356H748.516ZM758.784 28.1005C758.428 27.9103 758.31 27.6013 758.452 27.2209C758.594 26.8405 758.855 26.6979 759.258 26.7692C761.084 27.0545 762.958 27.4111 764.808 27.8152C765.282 27.9341 765.472 28.2194 765.377 28.6948C765.282 29.1703 764.997 29.3605 764.523 29.2416C762.673 28.8613 760.847 28.5047 759.045 28.1956C758.926 28.1956 758.832 28.148 758.76 28.1005H758.784ZM768.886 30.2639C768.507 30.05 768.412 29.7409 768.578 29.3367C768.744 28.9564 769.029 28.8137 769.432 28.9326C771.234 29.3843 773.06 29.9311 774.863 30.4779C775.384 30.5968 775.55 30.9058 775.408 31.4051C775.266 31.9043 774.934 32.0707 774.459 31.8805C772.657 31.3337 770.855 30.8107 769.076 30.3352C769.005 30.3352 768.934 30.2877 768.863 30.2401L768.886 30.2639ZM778.752 33.2832C778.301 33.0692 778.183 32.7364 778.396 32.3085C778.586 31.8568 778.918 31.7379 779.368 31.9518C781.123 32.57 782.902 33.2356 784.657 33.9488C785.107 34.139 785.249 34.4481 785.06 34.8998C784.894 35.3515 784.585 35.4704 784.135 35.3039C782.404 34.5907 780.625 33.9488 778.894 33.3307C778.847 33.3307 778.799 33.307 778.752 33.2832ZM788.38 37.1108C787.929 36.873 787.834 36.5402 788.048 36.1123C788.261 35.6843 788.593 35.5655 789.044 35.8032C790.751 36.564 792.482 37.3723 794.166 38.2043C794.617 38.4183 794.735 38.7511 794.522 39.1791C794.308 39.607 793.976 39.7259 793.526 39.5119C791.866 38.6798 790.158 37.8953 788.451 37.1583L788.38 37.1108Z" fill="#55CBCD"/>
</g>
</g>
</g>
<path d="M374.204 49.2508L374.204 49.2506L374.204 49.2503L374.204 49.25L374.21 49.2434L374.219 49.2322L376.543 46.1416L376.843 45.7415L376.443 45.4411L370.646 41.0936L371.346 40.5231L379.725 42.9924L380.033 43.0833L380.244 42.8403L380.244 42.8403L380.244 42.84L380.245 42.8387L380.25 42.8335L380.268 42.8123L380.341 42.729C380.405 42.656 380.5 42.549 380.62 42.4136C380.861 42.1428 381.207 41.7587 381.624 41.3065C382.457 40.4032 383.573 39.2321 384.709 38.1508C385.858 37.1409 387.131 36.1287 388.121 35.3668C388.617 34.9854 389.04 34.6677 389.339 34.4454C389.488 34.3343 389.607 34.2471 389.688 34.1878L389.78 34.1203L389.804 34.1032L389.809 34.0989L389.811 34.0979L389.811 34.0977L389.811 34.0976L389.811 34.0977L389.82 34.0909L395.891 29.4787L396.418 29.0789L395.89 28.6812L391.123 25.0914L390.828 24.8691L390.529 25.086L387.245 27.4674C387.23 27.4713 387.212 27.4756 387.19 27.4797C387.114 27.4937 386.998 27.5032 386.857 27.4774C386.595 27.4293 386.156 27.2415 385.697 26.5089L385.685 26.491L385.673 26.4741C385.172 25.8078 385.192 25.3601 385.259 25.1174C385.297 24.9826 385.359 24.8792 385.41 24.8105C385.436 24.7765 385.457 24.7523 385.471 24.7386C385.472 24.7372 385.473 24.7358 385.475 24.7347L387.373 23.3246L387.981 22.8734L387.328 22.4915L375.007 15.2905L379.639 13.0954L406.625 21.9954L406.877 22.0785L407.087 21.9165L406.782 21.5206C407.087 21.9165 407.087 21.9165 407.087 21.9164L407.088 21.9162L407.089 21.9153L407.094 21.9117L407.112 21.8974L407.185 21.8416L407.46 21.629L408.452 20.8646C409.277 20.2287 410.388 19.3729 411.531 18.4933C413.818 16.7322 416.227 14.8813 416.733 14.5039L416.734 14.5028C417.74 13.7469 419.508 12.741 421.301 11.8661L421.309 11.8622L421.317 11.8581C422.264 11.3541 422.957 11.0587 423.63 10.9128C424.296 10.7686 424.975 10.764 425.9 10.8899L425.902 10.8901C426.783 11.0064 427.226 11.1511 427.469 11.2826C427.679 11.3969 427.754 11.5064 427.871 11.6879L427.871 11.688L427.879 11.6995C427.888 11.713 427.897 11.7259 427.905 11.7384C428.017 11.9009 428.077 11.9875 428.116 12.2054C428.164 12.4791 428.173 12.9579 428.056 13.8959C427.934 14.7939 427.695 15.4327 427.329 16.0244C426.954 16.6307 426.439 17.2007 425.726 17.9637C424.204 19.4885 422.684 20.7543 421.684 21.5002L421.683 21.5013C421.179 21.88 418.658 23.5303 416.233 25.1041C415.027 25.8868 413.853 26.645 412.981 27.2077C412.545 27.489 412.185 27.7213 411.933 27.8834L411.642 28.071L411.565 28.1202L411.546 28.1328L411.541 28.136L411.539 28.1368L411.539 28.137C411.539 28.137 411.539 28.1371 411.809 28.5576L411.539 28.1371L411.312 28.2831L411.31 28.553L411.051 56.7728L407.335 60.2627L404.044 45.9903L403.874 45.252L403.262 45.6988L401.343 47.0998C401.343 47.0998 401.343 47.0999 401.343 47.0999C401.343 47.1 401.343 47.1001 401.343 47.1004C401.341 47.1015 401.337 47.1038 401.332 47.1071C401.318 47.1154 401.293 47.1293 401.259 47.1439C401.189 47.1735 401.089 47.2035 400.968 47.2044C400.757 47.2059 400.351 47.1194 399.857 46.4479L399.854 46.444C399.337 45.7572 399.334 45.3244 399.378 45.1142C399.401 44.9993 399.446 44.9172 399.481 44.8667C399.496 44.846 399.508 44.8309 399.517 44.8217L402.831 42.4183L403.131 42.2007L403.01 41.8504L401.065 36.216L400.85 35.5939L400.309 35.9675L394.001 40.3181L393.986 40.3282L393.972 40.3393L393.972 40.3393L393.972 40.3394L393.972 40.3395L393.971 40.3405L393.965 40.3447L393.943 40.3621C393.924 40.3777 393.894 40.4009 393.855 40.4312C393.778 40.4918 393.663 40.5803 393.516 40.6913C393.223 40.9133 392.802 41.2246 392.294 41.58C391.274 42.2924 389.915 43.1751 388.533 43.8733L388.533 43.8733L388.529 43.8758C387.192 44.5695 385.721 45.2359 384.582 45.7301C384.013 45.9768 383.528 46.18 383.186 46.3213C383.015 46.392 382.879 46.4472 382.787 46.4847L382.681 46.5272L382.654 46.538L382.648 46.5407L382.646 46.5413L382.646 46.5414L382.646 46.5415L382.345 46.6613L382.331 46.9849L381.963 55.6802L381.046 56.2368L378.8 49.3939L378.645 48.921L378.171 49.074L374.567 50.2388L374.567 50.2388L374.566 50.2389L374.566 50.239L374.566 50.239L374.557 50.2415C374.546 50.2445 374.527 50.2491 374.502 50.2537C374.45 50.2631 374.383 50.2705 374.312 50.2662C374.193 50.2589 374.093 50.2243 374.016 50.1213C373.955 49.8917 373.993 49.6845 374.057 49.5194C374.092 49.4301 374.132 49.358 374.163 49.3096C374.178 49.2857 374.191 49.2685 374.198 49.2588L374.204 49.2508Z" fill="#55CBCD" stroke="#42210B"/>
<path d="M10.9016 41.6221C9.8344 40.9802 8.79097 40.2669 7.79496 39.5537C7.41553 39.2447 7.34438 38.9118 7.62896 38.5315C7.93725 38.1273 8.26924 38.0798 8.67239 38.3651C10.1664 39.4586 11.7078 40.4571 13.3204 41.3368C13.771 41.5507 13.8896 41.8836 13.6524 42.3353C13.4153 42.7632 13.0833 42.8583 12.6564 42.6206C12.0636 42.2877 11.4707 41.9549 10.9016 41.6221ZM16.8776 44.6175C16.4507 44.4036 16.3322 44.0707 16.5456 43.6428C16.759 43.1911 17.091 43.096 17.5416 43.31C19.249 44.0232 20.9802 44.6175 22.7588 45.093C23.2568 45.2119 23.4465 45.5209 23.3279 45.9964C23.1856 46.4957 22.8774 46.6621 22.4031 46.5194C20.5533 45.9964 18.751 45.4021 16.9962 44.6651C16.9487 44.6651 16.925 44.6413 16.8776 44.6175ZM4.21408 36.5582C4.16665 36.5345 4.14293 36.5107 4.0955 36.4632C2.69635 35.1556 1.41577 33.7529 0.230052 32.2314C-0.101954 31.851 -0.0782461 31.4944 0.324898 31.1854C0.728048 30.8763 1.08376 30.9239 1.39205 31.3518C2.53035 32.802 3.7635 34.1571 5.09151 35.4171C5.42351 35.7024 5.47094 36.0352 5.18637 36.3918C4.92551 36.7484 4.59351 36.796 4.21408 36.5582ZM26.814 47.4466C26.4582 47.2327 26.3634 46.9474 26.5057 46.567C26.6242 46.1866 26.9088 46.044 27.312 46.0915C29.1143 46.4006 30.9403 46.6145 32.7663 46.6859C33.288 46.6859 33.5251 46.9474 33.5251 47.4466C33.5014 47.9696 33.2406 48.2074 32.7426 48.1598C30.8454 48.0647 28.9482 47.8745 27.0748 47.5655C26.98 47.5417 26.8851 47.4942 26.814 47.4466ZM37.0823 48.0172C36.774 47.827 36.6792 47.5655 36.7503 47.2089C36.8452 46.8523 37.0586 46.6859 37.4143 46.6621C38.2443 46.6145 39.098 46.5432 39.9043 46.4481C40.9003 46.3293 41.8963 46.1866 42.8686 46.0202C43.3192 45.9726 43.5801 46.1628 43.6749 46.6145C43.7461 47.0425 43.5801 47.3278 43.1532 47.4466C42.1335 47.6368 41.1138 47.7795 40.094 47.8983C39.264 47.9934 38.3866 48.0647 37.5329 48.1123C37.3669 48.1123 37.2246 48.0885 37.0823 48.0172ZM47.2084 46.3055C46.9475 46.1391 46.829 45.9013 46.8527 45.5923C46.9001 45.2594 47.0661 45.0692 47.3744 44.9742C49.153 44.4987 50.8841 43.9043 52.5916 43.2387C53.0421 43.0723 53.3504 43.1911 53.5401 43.6428C53.7299 44.1183 53.5876 44.4274 53.137 44.5938C51.3821 45.2832 49.6035 45.8776 47.8012 46.4006C47.5878 46.4481 47.3981 46.4244 47.2084 46.3055ZM56.7653 42.6443C56.5044 42.5017 56.3859 42.2877 56.4096 42.0024C56.4096 41.6934 56.5519 41.5032 56.8127 41.3605C58.4253 40.576 60.0379 39.6726 61.6031 38.7217C62.0062 38.4601 62.3382 38.5315 62.6228 38.9594C62.8836 39.3635 62.7888 39.6964 62.3856 39.9579C60.7968 40.9564 59.1367 41.8598 57.4767 42.6919C57.2396 42.8107 57.0024 42.787 56.7653 42.6443ZM65.4922 37.3428C65.2551 37.2239 65.1365 37.01 65.1365 36.7722C65.1128 36.5107 65.2076 36.2967 65.4211 36.1541C66.8677 35.0843 68.3142 33.9194 69.6897 32.7307C70.0691 32.3741 70.4248 32.3978 70.7568 32.7782C71.1126 33.1586 71.0888 33.5152 70.6857 33.848C69.2628 35.0605 67.7925 36.2492 66.2985 37.319C66.0377 37.5092 65.7768 37.533 65.4922 37.3666V37.3428ZM79.3178 41.5507C78.8909 41.2892 78.796 40.9564 79.0569 40.5522C79.3178 40.1243 79.6498 40.053 80.0529 40.2907C81.6418 41.2417 83.3018 42.0262 85.0092 42.6919C85.4598 42.8821 85.6258 43.1911 85.4361 43.6428C85.2701 44.0945 84.9618 44.2372 84.4875 44.047C82.7089 43.3575 80.9778 42.5255 79.3178 41.5507ZM75.4049 38.8643C75.3812 38.8643 75.3574 38.8405 75.3337 38.8168C73.816 37.6281 72.4168 36.3205 71.1363 34.8941C70.828 34.5375 70.8517 34.1809 71.1837 33.8718C71.5394 33.5628 71.8951 33.5865 72.2271 33.9194C73.4603 35.2982 74.7883 36.5345 76.2349 37.6756C76.638 37.9609 76.7092 38.3175 76.4246 38.6979C76.1637 39.102 75.808 39.1734 75.4049 38.8881V38.8643ZM88.8747 45.3783C88.519 45.1643 88.4241 44.8791 88.5664 44.4749C88.7324 44.0945 89.017 43.9519 89.4201 44.047C91.1987 44.4511 93.001 44.7126 94.827 44.784C95.325 44.8077 95.5622 45.0455 95.5384 45.5447C95.5384 46.0202 95.2776 46.2579 94.7796 46.2342C92.8824 46.1628 90.9853 45.9013 89.1118 45.4734C89.017 45.4496 88.9458 45.4259 88.8747 45.3783ZM68.4091 31.3043C68.3142 31.2567 68.2194 31.1854 68.172 31.0903C67.1048 29.4737 66.2037 27.8095 65.4448 26.0265C65.2551 25.5748 65.3974 25.2657 65.8479 25.0755C66.2985 24.9091 66.6068 25.0518 66.7965 25.5035C67.508 27.1676 68.3854 28.7842 69.3814 30.3058C69.6185 30.6386 69.5711 30.9239 69.3103 31.2092C69.0494 31.4944 68.7411 31.5182 68.4091 31.328V31.3043ZM73.2231 30.7337C73.1757 30.6861 73.1283 30.6624 73.0809 30.6148C72.7251 30.282 72.7251 29.9254 73.0571 29.5925C74.2429 28.4039 75.3812 27.1676 76.472 25.8838L76.7566 25.551C77.0649 25.1944 77.4206 25.1706 77.8 25.4797C78.1557 25.7887 78.2032 26.1216 77.8949 26.502L77.6103 26.8586C76.472 28.1423 75.31 29.4261 74.1243 30.6148C73.8397 30.8763 73.5551 30.9239 73.2231 30.7337ZM99.143 45.9489C98.8348 45.7587 98.7399 45.4972 98.7873 45.1643C98.8585 44.8315 99.0719 44.6413 99.4276 44.5938L99.6648 44.5462C101.396 44.3085 103.08 43.9519 104.763 43.4764C105.238 43.3338 105.546 43.5002 105.688 43.9757C105.831 44.4511 105.665 44.7602 105.19 44.8791C103.459 45.3783 101.68 45.7587 99.8782 45.9964L99.6173 46.044C99.4513 46.0677 99.2853 46.0202 99.143 45.9489ZM64.3065 21.9136C64.1168 21.7948 64.0219 21.6521 63.9745 21.4381C63.5239 19.56 63.3342 17.6581 63.3816 15.7325C63.4054 15.2332 63.6425 14.9955 64.1405 15.0192C64.6385 15.0668 64.8756 15.3045 64.8519 15.8038C64.8045 17.6106 64.9942 19.3698 65.3974 21.1291C65.4685 21.4619 65.3736 21.6997 65.1128 21.8899C64.8519 22.08 64.5911 22.08 64.3065 21.9136ZM109.056 43.3338C108.89 43.2624 108.795 43.1436 108.747 42.9772C108.558 42.5255 108.7 42.1926 109.151 42.0262C110.905 41.3843 112.637 40.6711 114.297 39.9817C114.747 39.7915 115.079 39.9341 115.269 40.3858C115.459 40.8375 115.34 41.1466 114.889 41.3368C113.206 42.0262 111.451 42.7632 109.696 43.4051C109.459 43.5002 109.245 43.4764 109.032 43.3338H109.056ZM79.7683 22.9359L79.7446 22.9121C79.3415 22.6506 79.2466 22.3178 79.5075 21.9136C79.6498 21.6997 79.7683 21.4857 79.8869 21.2717C80.7169 19.9642 81.3335 18.5615 81.7841 17.0876C81.9263 16.6359 82.2109 16.4694 82.6852 16.6121C83.1595 16.7547 83.3255 17.0638 83.2069 17.5393C82.7089 19.1321 82.0449 20.6298 81.1675 22.0325C81.0252 22.2702 80.9066 22.4842 80.7643 22.7219C80.5035 23.1261 80.1715 23.1974 79.7446 22.9359H79.7683ZM64.5911 11.8098C64.2354 11.5958 64.1405 11.3105 64.2591 10.9302C64.5437 10.1932 64.8757 9.47996 65.2788 8.79052L65.3499 8.64788C65.9428 7.69693 66.6542 6.84107 67.508 6.08031C67.8637 5.74748 68.2194 5.77125 68.5751 6.15163C68.9071 6.53201 68.8834 6.86484 68.504 7.19768C67.7451 7.83956 67.1285 8.57655 66.6068 9.43241L66.5594 9.5275C66.2037 10.1456 65.8954 10.7875 65.6582 11.4532C65.4922 11.9049 65.1839 12.0475 64.7096 11.8811C64.6622 11.8573 64.6148 11.8336 64.5911 11.8098ZM118.541 39.5062C118.281 39.3636 118.162 39.1258 118.186 38.8168C118.209 38.5315 118.352 38.3175 118.636 38.1986C120.391 37.5092 122.146 36.8435 123.853 36.2254C124.304 36.059 124.612 36.2016 124.778 36.6533C124.944 37.105 124.826 37.4141 124.375 37.5805C122.691 38.1986 120.96 38.8643 119.205 39.5537C118.968 39.6488 118.755 39.6488 118.541 39.5062ZM82.6141 13.3313C82.4006 13.1887 82.2821 12.9985 82.2583 12.7607C82.1398 11.0015 81.5706 9.38486 80.5746 7.88712C80.2901 7.48296 80.3375 7.15013 80.7643 6.86485C81.1675 6.57956 81.4995 6.65088 81.7841 7.07881C82.9224 8.76675 83.5626 10.6211 83.7286 12.6419C83.7761 13.1173 83.5389 13.3788 83.0646 13.4264C82.8986 13.4264 82.7564 13.4026 82.6141 13.3313ZM71.7054 5.01049C71.5394 4.9154 71.4208 4.77276 71.3734 4.58257C71.2311 4.10709 71.3734 3.82181 71.8477 3.67916C73.8634 3.03728 75.8317 3.10859 77.8237 3.84558C78.2743 4.03577 78.4166 4.34483 78.2506 4.79653C78.0846 5.24823 77.7526 5.39087 77.302 5.20068C75.642 4.58257 73.9583 4.5588 72.2983 5.08181C72.0848 5.15314 71.8714 5.12937 71.6817 5.01049H71.7054ZM177.116 67.5592L176.998 67.4641C176.073 66.8935 175.314 66.1566 174.697 65.2532C174.436 64.849 174.484 64.4924 174.887 64.2309C175.314 63.9694 175.646 64.0407 175.93 64.4448C176.405 65.1581 177.021 65.7762 177.78 66.2279L177.875 66.2992C178.539 66.7034 179.274 66.9649 180.033 67.1313C180.507 67.2264 180.697 67.5117 180.602 67.9871C180.507 68.4388 180.246 68.6528 179.772 68.5577C178.824 68.3913 177.946 68.0585 177.116 67.5592ZM128.146 35.9877C127.885 35.8213 127.766 35.5835 127.79 35.2745C127.838 34.9654 128.004 34.7514 128.288 34.6563C130.09 34.062 131.869 33.4914 133.624 32.9922C134.098 32.8495 134.406 33.016 134.549 33.4914C134.691 33.9669 134.525 34.2522 134.051 34.3948C132.32 34.8941 130.541 35.4647 128.762 36.0352C128.549 36.1303 128.359 36.1066 128.146 35.9877ZM184.159 68.2011C183.993 68.106 183.899 67.9634 183.827 67.7969C183.685 67.3215 183.851 67.0124 184.325 66.8935C184.823 66.7271 185.298 66.5607 185.772 66.3467C186.91 65.8475 187.93 65.1818 188.855 64.3498C189.234 64.0407 189.566 64.0645 189.898 64.4448C190.23 64.8015 190.207 65.1581 189.851 65.4671C188.807 66.3705 187.669 67.1313 186.412 67.7019C185.867 67.9396 185.321 68.1298 184.752 68.2962C184.539 68.3437 184.349 68.32 184.159 68.2011ZM173.44 61.069C173.227 60.9263 173.108 60.7599 173.061 60.4984C172.966 59.2859 173.061 58.0973 173.346 56.9323C173.535 56.1716 173.772 55.4584 174.081 54.7452C174.27 54.2935 174.602 54.1746 175.053 54.3648C175.504 54.5787 175.646 54.8878 175.456 55.3395C175.172 55.9814 174.958 56.6233 174.792 57.289C174.531 58.3112 174.46 59.3573 174.555 60.4033C174.602 60.9026 174.365 61.1641 173.891 61.1878C173.725 61.1878 173.559 61.1403 173.44 61.069ZM137.987 33.0873C137.726 32.9209 137.608 32.6831 137.632 32.3503C137.679 32.0412 137.869 31.8273 138.177 31.756C140.003 31.2805 141.853 30.8763 143.655 30.5197C144.129 30.4009 144.414 30.591 144.533 31.0903C144.627 31.5658 144.438 31.851 143.963 31.9461C142.185 32.3028 140.382 32.7307 138.556 33.1824C138.367 33.2299 138.177 33.2061 137.987 33.0873ZM191.938 61.9486C191.511 61.6871 191.44 61.3543 191.677 60.9501C192.578 59.4048 193.218 57.7644 193.598 56.0289C193.693 55.5535 193.977 55.3633 194.475 55.4821C194.949 55.5772 195.139 55.8863 195.021 56.3618C194.641 58.2399 193.93 60.0467 192.957 61.7109C192.697 62.1388 192.365 62.2101 191.938 61.9486ZM176.808 51.6783L176.737 51.6308C176.334 51.3217 176.286 50.9889 176.594 50.6085C177.448 49.5149 178.373 48.4927 179.345 47.4942C179.677 47.1376 180.033 46.8047 180.389 46.4481C180.744 46.1153 181.1 46.1153 181.432 46.4719C181.788 46.8047 181.788 47.1613 181.432 47.4942C181.076 47.827 180.744 48.1836 180.412 48.5164C179.464 49.4674 178.586 50.4659 177.756 51.5119C177.496 51.8685 177.187 51.9161 176.784 51.6783H176.808ZM148.066 31.019C147.758 30.8288 147.663 30.5673 147.71 30.2344C147.781 29.9016 147.971 29.7114 148.303 29.6639C150.177 29.3786 152.05 29.1171 153.876 28.9507C154.374 28.9031 154.635 29.1171 154.706 29.6163C154.753 30.0918 154.54 30.3771 154.042 30.4008C152.24 30.591 150.39 30.8288 148.54 31.1141C148.374 31.1378 148.208 31.1141 148.042 31.019H148.066ZM194.309 52.1538C194.096 52.035 193.953 51.821 193.953 51.5595C193.906 50.5372 193.74 49.4912 193.503 48.4927C193.313 47.7795 193.076 47.0662 192.815 46.3768C192.625 45.9013 192.768 45.5923 193.218 45.4259C193.693 45.2594 194.001 45.4021 194.191 45.8538C194.475 46.6145 194.712 47.3753 194.902 48.1598C195.187 49.2772 195.353 50.3946 195.4 51.5357C195.424 52.0112 195.21 52.2727 194.712 52.2965C194.57 52.2965 194.428 52.2489 194.285 52.1776L194.309 52.1538ZM158.287 29.9491C157.979 29.759 157.86 29.4974 157.955 29.1408C158.05 28.7842 158.263 28.6178 158.619 28.594C160.587 28.499 162.484 28.4752 164.263 28.5465C164.785 28.5465 165.046 28.7842 165.046 29.3073C165.022 29.8065 164.761 30.0442 164.239 29.9967C162.508 29.9492 160.635 29.9729 158.714 30.068C158.548 30.068 158.405 30.0442 158.287 29.9491ZM183.993 44.4749C183.922 44.4274 183.851 44.3798 183.804 44.3085C183.495 43.9281 183.519 43.5953 183.875 43.2862C185.298 42.0975 186.792 40.9326 188.309 39.839C188.404 39.7677 188.523 39.7202 188.665 39.6964C188.191 39.1971 187.693 38.6979 187.171 38.1986C186.768 37.8658 186.744 37.5092 187.076 37.1288C187.432 36.7484 187.788 36.7484 188.167 37.1288C189.59 38.4601 190.847 39.9104 191.914 41.5032C192.199 41.9311 192.127 42.2639 191.724 42.5255C191.321 42.787 190.965 42.7156 190.705 42.3115C190.325 41.7409 189.898 41.1704 189.448 40.6236C189.4 40.79 189.305 40.9326 189.163 41.0277C187.693 42.0975 186.223 43.2149 184.847 44.3798C184.586 44.6176 184.302 44.6651 183.97 44.4749H183.993ZM168.579 30.2582C168.247 30.0442 168.152 29.759 168.271 29.4024C168.389 29.022 168.65 28.8556 169.053 28.9269C170.95 29.1408 172.8 29.4974 174.65 29.9729C175.124 30.0918 175.314 30.4009 175.195 30.8526C175.077 31.328 174.792 31.5182 174.294 31.3756C172.516 30.9239 170.713 30.591 168.887 30.3771C168.769 30.3533 168.674 30.3295 168.579 30.2582ZM178.586 32.7782C178.136 32.5643 178.017 32.2314 178.254 31.8035C178.468 31.3518 178.8 31.2567 179.227 31.4707C179.44 31.5658 179.63 31.6371 179.843 31.7322C181.408 32.4216 182.902 33.2062 184.325 34.1571C184.752 34.4186 184.823 34.7514 184.563 35.1556C184.302 35.5598 183.946 35.6311 183.543 35.3696C182.191 34.4899 180.768 33.7054 179.274 33.0635L178.705 32.8258C178.658 32.8258 178.61 32.802 178.563 32.7782H178.586ZM192.246 38.4839C192.151 38.4364 192.08 38.3413 192.009 38.2462C191.748 37.842 191.819 37.4854 192.246 37.2477C193.811 36.273 195.447 35.3458 197.107 34.4899C197.534 34.2522 197.866 34.3711 198.103 34.799C198.341 35.2269 198.246 35.5598 197.795 35.7975C196.183 36.6296 194.57 37.533 193.029 38.4839C192.768 38.6503 192.507 38.6503 192.246 38.4839ZM201.305 33.7529C201.044 33.5865 200.925 33.3726 200.949 33.0873C200.973 32.7782 201.115 32.588 201.376 32.4692C203.083 31.7084 204.838 31.019 206.593 30.3771C207.044 30.2107 207.376 30.3771 207.542 30.8288C207.708 31.2805 207.566 31.5895 207.115 31.756C205.384 32.3978 203.653 33.0873 201.993 33.8005C201.755 33.9194 201.518 33.8956 201.281 33.7529H201.305ZM210.909 30.2344C210.648 30.068 210.53 29.8303 210.554 29.5212C210.601 29.2122 210.767 28.9982 211.075 28.9031C212.854 28.3801 214.68 27.9046 216.506 27.5005C216.98 27.4291 217.265 27.6193 217.36 28.071C217.478 28.5227 217.312 28.808 216.862 28.9269C215.059 29.331 213.257 29.8065 211.526 30.3295C211.312 30.4009 211.099 30.3533 210.909 30.2344ZM220.917 27.9284C220.632 27.762 220.514 27.5005 220.561 27.1676C220.632 26.8348 220.822 26.6446 221.154 26.5971C223.004 26.288 224.877 26.0265 226.751 25.8601C227.225 25.8125 227.509 26.0265 227.557 26.502C227.604 27.0012 227.391 27.2627 226.893 27.3103C225.067 27.4767 223.217 27.7382 221.415 28.0472C221.225 28.071 221.059 28.0235 220.917 27.9284ZM231.138 26.8586C230.829 26.6684 230.735 26.4069 230.806 26.0503C230.901 25.6936 231.114 25.5272 231.47 25.5035L232.039 25.4797C233.699 25.4084 235.406 25.3846 237.114 25.4084C237.612 25.4084 237.849 25.6699 237.849 26.1454C237.849 26.6446 237.612 26.8823 237.114 26.8823C235.454 26.8586 233.77 26.8823 232.11 26.9299L231.565 26.9537C231.422 26.9774 231.28 26.9299 231.138 26.8586ZM241.453 26.9537C241.121 26.7635 241.003 26.4782 241.121 26.1216C241.24 25.7412 241.477 25.5748 241.857 25.5986C243.73 25.7174 245.603 25.8838 247.477 26.1216C247.951 26.1929 248.165 26.4544 248.117 26.9299C248.07 27.4054 247.809 27.6193 247.335 27.5718C245.485 27.3578 243.635 27.1676 241.785 27.0725C241.667 27.0488 241.548 27.025 241.43 26.9537H241.453ZM251.698 28.1186C251.366 27.9284 251.248 27.6193 251.39 27.2389C251.532 26.8586 251.793 26.7159 252.196 26.7872C254.022 27.0725 255.896 27.4291 257.745 27.8333C258.22 27.9522 258.409 28.2374 258.314 28.7129C258.22 29.1884 257.935 29.3786 257.437 29.2597C255.611 28.8793 253.785 28.5227 251.983 28.2137C251.864 28.2137 251.769 28.1661 251.698 28.1186ZM261.824 30.282C261.445 30.068 261.35 29.759 261.516 29.3548C261.682 28.9744 261.966 28.8318 262.37 28.9507C264.172 29.4024 265.998 29.9492 267.8 30.4959C268.322 30.6148 268.488 30.9239 268.346 31.4231C268.203 31.9224 267.871 32.0888 267.397 31.8986C265.595 31.3518 263.792 30.8288 262.014 30.3533C261.943 30.3533 261.872 30.3058 261.8 30.2582L261.824 30.282ZM271.689 33.3012C271.239 33.0873 271.12 32.7544 271.334 32.3265C271.523 31.8748 271.855 31.756 272.306 31.9699C274.061 32.588 275.839 33.2537 277.594 33.9669C278.045 34.1571 278.187 34.4662 277.997 34.9179C277.831 35.3696 277.523 35.4884 277.073 35.322C275.341 34.6088 273.563 33.9669 271.832 33.3488C271.784 33.3488 271.737 33.325 271.689 33.3012ZM281.294 37.1288C280.867 36.8911 280.748 36.5582 280.985 36.1303C281.199 35.7024 281.531 35.5835 281.981 35.8213C283.689 36.582 285.42 37.3903 287.104 38.2224C287.554 38.4364 287.673 38.7692 287.46 39.1971C287.246 39.6251 286.914 39.7439 286.464 39.53C284.803 38.6979 283.096 37.9133 281.389 37.1764L281.294 37.1288Z" fill="#55CBCD"/>
</svg>
