<svg width="2473" height="106" viewBox="0 0 2473 106" fill="none" xmlns="http://www.w3.org/2000/svg">
<path fill-rule="evenodd" clip-rule="evenodd" d="M0.8125 5.74693L15.5375 3.19271C30.2625 0.957768 60.1875 -3.83139 89.6375 7.98187C119.087 20.1144 149.012 48.5301 178.462 46.2951C207.912 43.7409 237.837 10.5361 267.287 12.771C296.737 15.3252 326.662 53.3192 356.112 70.2409C385.562 86.8433 415.487 82.0542 444.937 65.4517C474.387 48.5301 504.312 20.1144 533.762 12.771C563.212 5.74693 593.137 20.1144 622.587 24.9036C652.037 29.6927 681.962 24.9036 696.687 22.3493L711.412 20.1144V106H696.687C681.962 106 652.037 106 622.587 106C593.137 106 563.212 106 533.762 106C504.312 106 474.387 106 444.937 106C415.487 106 385.562 106 356.112 106C326.662 106 296.737 106 267.287 106C237.837 106 207.912 106 178.462 106C149.012 106 119.087 106 89.6375 106C60.1875 106 30.2625 106 15.5375 106H0.8125V5.74693Z" fill="#FCB8AC"/>
<path fill-rule="evenodd" clip-rule="evenodd" d="M1276.19 5.42771L1261.46 2.87349C1246.74 0.638554 1216.81 -4.1506 1187.36 7.66265C1157.91 19.7952 1127.99 48.2108 1098.54 45.9759C1069.09 43.4217 1039.16 10.2169 1009.71 12.4518C980.263 15.006 950.338 53 920.888 69.9217C891.438 86.5241 861.513 81.7349 832.063 65.1325C802.613 48.2108 772.688 19.7952 743.238 12.4518C713.788 5.42771 683.863 19.7952 654.413 24.5843C624.963 29.3735 595.038 24.5843 580.313 22.0301L565.588 19.7952V105.681H580.313C595.038 105.681 624.963 105.681 654.413 105.681C683.863 105.681 713.788 105.681 743.238 105.681C772.688 105.681 802.613 105.681 832.063 105.681C861.513 105.681 891.438 105.681 920.888 105.681C950.338 105.681 980.263 105.681 1009.71 105.681C1039.16 105.681 1069.09 105.681 1098.54 105.681C1127.99 105.681 1157.91 105.681 1187.36 105.681C1216.81 105.681 1246.74 105.681 1261.46 105.681H1276.19V5.42771Z" fill="#FCB8AC"/>
<path fill-rule="evenodd" clip-rule="evenodd" d="M1197 5.74693L1211.72 3.19271C1226.45 0.957768 1256.37 -3.83139 1285.82 7.98187C1315.27 20.1144 1345.2 48.5301 1374.65 46.2951C1404.1 43.7409 1434.02 10.5361 1463.47 12.771C1492.92 15.3252 1522.85 53.3192 1552.3 70.2409C1581.75 86.8433 1611.67 82.0542 1641.12 65.4517C1670.57 48.5301 1700.5 20.1144 1729.95 12.771C1759.4 5.74693 1789.32 20.1144 1818.77 24.9036C1848.22 29.6927 1878.15 24.9036 1892.87 22.3493L1907.6 20.1144V106H1892.87C1878.15 106 1848.22 106 1818.77 106C1789.32 106 1759.4 106 1729.95 106C1700.5 106 1670.57 106 1641.12 106C1611.67 106 1581.75 106 1552.3 106C1522.85 106 1492.92 106 1463.47 106C1434.02 106 1404.1 106 1374.65 106C1345.2 106 1315.27 106 1285.82 106C1256.37 106 1226.45 106 1211.72 106H1197V5.74693Z" fill="#FCB8AC"/>
<path fill-rule="evenodd" clip-rule="evenodd" d="M2472.38 5.42771L2457.65 2.87349C2442.93 0.638554 2413 -4.1506 2383.55 7.66265C2354.1 19.7952 2324.18 48.2108 2294.73 45.9759C2265.28 43.4217 2235.35 10.2169 2205.9 12.4518C2176.45 15.006 2146.53 53 2117.08 69.9217C2087.63 86.5241 2057.7 81.7349 2028.25 65.1325C1998.8 48.2108 1968.88 19.7952 1939.43 12.4518C1909.98 5.42771 1880.05 19.7952 1850.6 24.5843C1821.15 29.3735 1791.23 24.5843 1776.5 22.0301L1761.78 19.7952V105.681H1776.5C1791.23 105.681 1821.15 105.681 1850.6 105.681C1880.05 105.681 1909.98 105.681 1939.43 105.681C1968.88 105.681 1998.8 105.681 2028.25 105.681C2057.7 105.681 2087.63 105.681 2117.08 105.681C2146.53 105.681 2176.45 105.681 2205.9 105.681C2235.35 105.681 2265.28 105.681 2294.73 105.681C2324.18 105.681 2354.1 105.681 2383.55 105.681C2413 105.681 2442.93 105.681 2457.65 105.681H2472.38V5.42771Z" fill="#FCB8AC"/>
</svg>
