<svg width="4536" height="152" viewBox="0 0 4536 152" fill="none" xmlns="http://www.w3.org/2000/svg">
<path fill-rule="evenodd" clip-rule="evenodd" d="M0 8.2409L17.457 4.57825C34.914 1.37343 70.3911 -5.49404 105.305 11.4457C140.219 28.8433 175.696 69.5903 210.61 66.3855C245.524 62.7228 281.001 15.1084 315.915 18.3132C350.829 21.9758 386.306 76.4578 421.22 100.723C456.134 124.53 491.611 117.663 526.525 93.8554C561.439 69.5903 596.916 28.8433 631.83 18.3132C666.744 8.2409 702.221 28.8433 737.135 35.7108C772.049 42.5782 807.526 35.7108 824.983 32.0481L842.44 28.8433V152H824.983C807.526 152 772.049 152 737.135 152C702.221 152 666.744 152 631.83 152C596.916 152 561.439 152 526.525 152C491.611 152 456.134 152 421.22 152C386.306 152 350.829 152 315.915 152C281.001 152 245.524 152 210.61 152C175.696 152 140.219 152 105.305 152C70.3911 152 34.914 152 17.457 152H0V8.2409Z" fill="#FCB8AC"/>
<path fill-rule="evenodd" clip-rule="evenodd" d="M1512 7.78313L1494.54 4.12048C1477.09 0.915663 1441.61 -5.95181 1406.69 10.988C1371.78 28.3855 1336.3 69.1325 1301.39 65.9277C1266.48 62.2651 1231 14.6506 1196.08 17.8554C1161.17 21.5181 1125.69 76 1090.78 100.265C1055.87 124.072 1020.39 117.205 985.475 93.3976C950.561 69.1325 915.084 28.3855 880.17 17.8554C845.256 7.78313 809.779 28.3855 774.865 35.253C739.951 42.1205 704.474 35.253 687.017 31.5904L669.56 28.3855V151.542H687.017C704.474 151.542 739.951 151.542 774.865 151.542C809.779 151.542 845.256 151.542 880.17 151.542C915.084 151.542 950.561 151.542 985.475 151.542C1020.39 151.542 1055.87 151.542 1090.78 151.542C1125.69 151.542 1161.17 151.542 1196.08 151.542C1231 151.542 1266.48 151.542 1301.39 151.542C1336.3 151.542 1371.78 151.542 1406.69 151.542C1441.61 151.542 1477.09 151.542 1494.54 151.542H1512V7.78313Z" fill="#FCB8AC"/>
<path fill-rule="evenodd" clip-rule="evenodd" d="M1512 8.2409L1529.46 4.57825C1546.91 1.37343 1582.39 -5.49404 1617.31 11.4457C1652.22 28.8433 1687.7 69.5903 1722.61 66.3855C1757.52 62.7228 1793 15.1084 1827.92 18.3132C1862.83 21.9758 1898.31 76.4578 1933.22 100.723C1968.13 124.53 2003.61 117.663 2038.53 93.8554C2073.44 69.5903 2108.92 28.8433 2143.83 18.3132C2178.74 8.2409 2214.22 28.8433 2249.14 35.7108C2284.05 42.5782 2319.53 35.7108 2336.98 32.0481L2354.44 28.8433V152H2336.98C2319.53 152 2284.05 152 2249.14 152C2214.22 152 2178.74 152 2143.83 152C2108.92 152 2073.44 152 2038.53 152C2003.61 152 1968.13 152 1933.22 152C1898.31 152 1862.83 152 1827.92 152C1793 152 1757.52 152 1722.61 152C1687.7 152 1652.22 152 1617.31 152C1582.39 152 1546.91 152 1529.46 152H1512V8.2409Z" fill="#FCB8AC"/>
<path fill-rule="evenodd" clip-rule="evenodd" d="M3024 7.78313L3006.54 4.12048C2989.09 0.915663 2953.61 -5.95181 2918.69 10.988C2883.78 28.3855 2848.3 69.1325 2813.39 65.9277C2778.48 62.2651 2743 14.6506 2708.08 17.8554C2673.17 21.5181 2637.69 76 2602.78 100.265C2567.87 124.072 2532.39 117.205 2497.47 93.3976C2462.56 69.1325 2427.08 28.3855 2392.17 17.8554C2357.26 7.78313 2321.78 28.3855 2286.86 35.253C2251.95 42.1205 2216.47 35.253 2199.02 31.5904L2181.56 28.3855V151.542H2199.02C2216.47 151.542 2251.95 151.542 2286.86 151.542C2321.78 151.542 2357.26 151.542 2392.17 151.542C2427.08 151.542 2462.56 151.542 2497.47 151.542C2532.39 151.542 2567.87 151.542 2602.78 151.542C2637.69 151.542 2673.17 151.542 2708.08 151.542C2743 151.542 2778.48 151.542 2813.39 151.542C2848.3 151.542 2883.78 151.542 2918.69 151.542C2953.61 151.542 2989.09 151.542 3006.54 151.542H3024V7.78313Z" fill="#FCB8AC"/>
<path fill-rule="evenodd" clip-rule="evenodd" d="M3024 8.2409L3041.46 4.57825C3058.91 1.37343 3094.39 -5.49404 3129.31 11.4457C3164.22 28.8433 3199.7 69.5903 3234.61 66.3855C3269.52 62.7228 3305 15.1084 3339.92 18.3132C3374.83 21.9758 3410.31 76.4578 3445.22 100.723C3480.13 124.53 3515.61 117.663 3550.53 93.8554C3585.44 69.5903 3620.92 28.8433 3655.83 18.3132C3690.74 8.2409 3726.22 28.8433 3761.14 35.7108C3796.05 42.5782 3831.53 35.7108 3848.98 32.0481L3866.44 28.8433V152H3848.98C3831.53 152 3796.05 152 3761.14 152C3726.22 152 3690.74 152 3655.83 152C3620.92 152 3585.44 152 3550.53 152C3515.61 152 3480.13 152 3445.22 152C3410.31 152 3374.83 152 3339.92 152C3305 152 3269.52 152 3234.61 152C3199.7 152 3164.22 152 3129.31 152C3094.39 152 3058.91 152 3041.46 152H3024V8.2409Z" fill="#FCB8AC"/>
<path fill-rule="evenodd" clip-rule="evenodd" d="M4536 7.78313L4518.54 4.12048C4501.09 0.915663 4465.61 -5.95181 4430.69 10.988C4395.78 28.3855 4360.3 69.1325 4325.39 65.9277C4290.48 62.2651 4255 14.6506 4220.08 17.8554C4185.17 21.5181 4149.69 76 4114.78 100.265C4079.87 124.072 4044.39 117.205 4009.47 93.3976C3974.56 69.1325 3939.08 28.3855 3904.17 17.8554C3869.26 7.78313 3833.78 28.3855 3798.86 35.253C3763.95 42.1205 3728.47 35.253 3711.02 31.5904L3693.56 28.3855V151.542H3711.02C3728.47 151.542 3763.95 151.542 3798.86 151.542C3833.78 151.542 3869.26 151.542 3904.17 151.542C3939.08 151.542 3974.56 151.542 4009.47 151.542C4044.39 151.542 4079.87 151.542 4114.78 151.542C4149.69 151.542 4185.17 151.542 4220.08 151.542C4255 151.542 4290.48 151.542 4325.39 151.542C4360.3 151.542 4395.78 151.542 4430.69 151.542C4465.61 151.542 4501.09 151.542 4518.54 151.542H4536V7.78313Z" fill="#FCB8AC"/>
</svg>
