<svg width="355" height="181" viewBox="0 0 355 181" fill="none" xmlns="http://www.w3.org/2000/svg">
<mask id="mask0_251_539" style="mask-type:luminance" maskUnits="userSpaceOnUse" x="0" y="0" width="300" height="181">
<path d="M0 0H299.32V181H0V0Z" fill="white"/>
</mask>
<g mask="url(#mask0_251_539)">
<mask id="mask1_251_539" style="mask-type:luminance" maskUnits="userSpaceOnUse" x="-311" y="0" width="610" height="192">
<path fill-rule="evenodd" clip-rule="evenodd" d="M-310.012 191.633L-284.664 175.665C-259.315 159.691 -208.623 127.755 -157.926 131.746C-107.229 135.743 -56.5366 175.665 -5.83923 175.665C44.8519 175.665 95.544 135.743 146.241 127.755C196.939 119.769 247.631 143.722 272.979 155.701L298.328 167.678V0H272.979C247.631 0 196.939 0 146.241 0C95.544 0 44.8519 0 -5.83923 0C-56.5366 0 -107.229 0 -157.926 0C-208.623 0 -259.315 0 -284.664 0H-310.012V191.633Z" fill="white"/>
</mask>
<g mask="url(#mask1_251_539)">
<path d="M0 0V181H298.328V0H0Z" fill="url(#paint0_linear_251_539)"/>
</g>
</g>
<mask id="mask2_251_539" style="mask-type:luminance" maskUnits="userSpaceOnUse" x="0" y="0" width="355" height="181">
<path d="M0 0H355V181H0V0Z" fill="white"/>
</mask>
<g mask="url(#mask2_251_539)">
<mask id="mask3_251_539" style="mask-type:luminance" maskUnits="userSpaceOnUse" x="-6" y="0" width="712" height="192">
<path fill-rule="evenodd" clip-rule="evenodd" d="M705.002 191.633L675.384 175.665C645.769 159.691 586.532 127.755 527.295 131.746C468.058 135.743 408.82 175.665 349.583 175.665C290.346 175.665 231.109 135.743 171.872 127.755C112.635 119.769 53.3978 143.722 23.7767 155.701L-5.83929 167.678V0H23.7767C53.3978 0 112.635 0 171.872 0C231.109 0 290.346 0 349.583 0C408.82 0 468.058 0 527.295 0C586.532 0 645.769 0 675.384 0H705.002V191.633Z" fill="white"/>
</mask>
<g mask="url(#mask3_251_539)">
<path d="M0 0V181H355V0H0Z" fill="url(#paint1_linear_251_539)"/>
</g>
</g>
<defs>
<linearGradient id="paint0_linear_251_539" x1="-5.8424" y1="0.0014031" x2="-5.8424" y2="181.001" gradientUnits="userSpaceOnUse">
<stop stop-color="#FBADC1"/>
<stop offset="0.25" stop-color="#FBADC1"/>
<stop offset="0.3125" stop-color="#FBADC1"/>
<stop offset="0.34375" stop-color="#FBAEC0"/>
<stop offset="0.375" stop-color="#FBAEBF"/>
<stop offset="0.40625" stop-color="#FBAFBE"/>
<stop offset="0.4375" stop-color="#FBAFBD"/>
<stop offset="0.46875" stop-color="#FBB0BC"/>
<stop offset="0.5" stop-color="#FBB0BB"/>
<stop offset="0.53125" stop-color="#FBB0BA"/>
<stop offset="0.5625" stop-color="#FBB1B9"/>
<stop offset="0.59375" stop-color="#FBB1B8"/>
<stop offset="0.625" stop-color="#FBB2B7"/>
<stop offset="0.65625" stop-color="#FBB2B6"/>
<stop offset="0.6875" stop-color="#FBB3B6"/>
<stop offset="0.71875" stop-color="#FBB3B5"/>
<stop offset="0.75" stop-color="#FCB4B4"/>
<stop offset="0.78125" stop-color="#FCB4B3"/>
<stop offset="0.8125" stop-color="#FCB5B2"/>
<stop offset="0.84375" stop-color="#FCB5B1"/>
<stop offset="0.875" stop-color="#FCB6B0"/>
<stop offset="0.90625" stop-color="#FCB6AF"/>
<stop offset="0.9375" stop-color="#FCB7AE"/>
<stop offset="0.96875" stop-color="#FCB7AD"/>
<stop offset="1" stop-color="#FCB8AC"/>
</linearGradient>
<linearGradient id="paint1_linear_251_539" x1="349.581" y1="0.0014031" x2="349.581" y2="181.001" gradientUnits="userSpaceOnUse">
<stop stop-color="#FBADC1"/>
<stop offset="0.25" stop-color="#FBADC1"/>
<stop offset="0.3125" stop-color="#FBADC1"/>
<stop offset="0.34375" stop-color="#FBAEC0"/>
<stop offset="0.375" stop-color="#FBAEBF"/>
<stop offset="0.40625" stop-color="#FBAFBE"/>
<stop offset="0.4375" stop-color="#FBAFBD"/>
<stop offset="0.46875" stop-color="#FBB0BC"/>
<stop offset="0.5" stop-color="#FBB0BB"/>
<stop offset="0.53125" stop-color="#FBB0BA"/>
<stop offset="0.5625" stop-color="#FBB1B9"/>
<stop offset="0.59375" stop-color="#FBB1B8"/>
<stop offset="0.625" stop-color="#FBB2B7"/>
<stop offset="0.65625" stop-color="#FBB2B6"/>
<stop offset="0.6875" stop-color="#FBB3B6"/>
<stop offset="0.71875" stop-color="#FBB3B5"/>
<stop offset="0.75" stop-color="#FCB4B4"/>
<stop offset="0.78125" stop-color="#FCB4B3"/>
<stop offset="0.8125" stop-color="#FCB5B2"/>
<stop offset="0.84375" stop-color="#FCB5B1"/>
<stop offset="0.875" stop-color="#FCB6B0"/>
<stop offset="0.90625" stop-color="#FCB6AF"/>
<stop offset="0.9375" stop-color="#FCB7AE"/>
<stop offset="0.96875" stop-color="#FCB7AD"/>
<stop offset="1" stop-color="#FCB8AC"/>
</linearGradient>
</defs>
</svg>
